<svg width="160" height="160" viewBox="0 0 160 160" fill="none" xmlns="http://www.w3.org/2000/svg">
<path opacity="0.35" d="M83.1998 153.6C122.081 153.6 153.6 122.081 153.6 83.2001C153.6 44.3192 122.081 12.8 83.1998 12.8C44.319 12.8 12.7998 44.3192 12.7998 83.2001C12.7998 122.081 44.319 153.6 83.1998 153.6Z" fill="#FEFEFE"/>
<path d="M80.0001 150.4C118.881 150.4 150.4 118.881 150.4 80.0001C150.4 41.1192 118.881 9.6001 80.0001 9.6001C41.1192 9.6001 9.6001 41.1192 9.6001 80.0001C9.6001 118.881 41.1192 150.4 80.0001 150.4Z" fill="#F2F2F2"/>
<path d="M79.9999 145.6C43.8287 145.6 14.3999 116.171 14.3999 79.9999C14.3999 43.8287 43.8287 14.3999 79.9999 14.3999C116.171 14.3999 145.6 43.8287 145.6 79.9999C145.6 116.171 116.171 145.6 79.9999 145.6Z" fill="#F2F2F2"/>
<path d="M80.0418 140.883C113.644 140.883 140.883 113.643 140.883 80.0416C140.883 46.4397 113.644 19.2 80.0418 19.2C46.4399 19.2 19.2002 46.4397 19.2002 80.0416C19.2002 113.643 46.4399 140.883 80.0418 140.883Z" fill="#61D045"/>
<path d="M80 140C113.137 140 140 113.137 140 80C140 46.8629 113.137 20 80 20C46.8629 20 20 46.8629 20 80C20 113.137 46.8629 140 80 140Z" stroke="#40396E" stroke-width="3" stroke-miterlimit="10"/>
<path d="M67.2271 104C65.9999 104 64.7727 103.533 63.8367 102.597L47.8095 86.5968C45.9327 84.7248 45.9295 81.6848 47.8031 79.808C49.6751 77.9312 52.7151 77.928 54.5903 79.8032L67.2239 92.4144L105.434 54.2064C107.309 52.3312 110.346 52.3312 112.221 54.2064C114.096 56.08 114.096 59.12 112.221 60.9936L70.6207 102.594C69.6831 103.531 68.4543 104 67.2271 104Z" fill="#285E2C"/>
</svg>
