<svg width="129" height="17" viewBox="0 0 129 17" fill="none" xmlns="http://www.w3.org/2000/svg">
<path d="M8.92083 12.5863C8.92083 13.2873 8.79381 13.9112 8.53978 14.4581C8.29323 15.005 7.94581 15.471 7.49753 15.8561C7.05672 16.2336 6.53372 16.5186 5.92854 16.7111C5.33083 16.9037 4.68455 17 3.98972 17C3.50408 17 3.05206 16.9576 2.63366 16.8729C2.22273 16.7882 1.8529 16.6842 1.52416 16.5609C1.20289 16.4377 0.930187 16.3106 0.706045 16.1796C0.489375 16.0487 0.336212 15.937 0.246555 15.8446C0.16437 15.7521 0.100864 15.6366 0.0560353 15.498C0.0186784 15.3516 0 15.159 0 14.9203C0 14.7508 0.00747138 14.6121 0.0224141 14.5043C0.0373569 14.3888 0.059771 14.2963 0.0896565 14.227C0.119542 14.1577 0.156899 14.1115 0.201727 14.0884C0.246555 14.0576 0.298855 14.0421 0.358626 14.0421C0.463225 14.0421 0.608917 14.1076 0.795702 14.2386C0.989958 14.3695 1.23651 14.512 1.53537 14.6661C1.83422 14.8201 2.19285 14.9665 2.61125 15.1051C3.03712 15.2361 3.52649 15.3015 4.07937 15.3015C4.49777 15.3015 4.87881 15.2438 5.22249 15.1282C5.57365 15.0127 5.8725 14.8509 6.11906 14.643C6.37309 14.4273 6.56734 14.1654 6.70183 13.8573C6.83631 13.5492 6.90355 13.1987 6.90355 12.8059C6.90355 12.3822 6.81016 12.0202 6.62338 11.7198C6.43659 11.4194 6.19004 11.1575 5.88371 10.9341C5.57738 10.703 5.22623 10.4951 4.83025 10.3102C4.44173 10.1176 4.04202 9.92505 3.63109 9.73249C3.22016 9.53222 2.82045 9.31269 2.43193 9.07391C2.04342 8.83512 1.696 8.55397 1.38968 8.23046C1.08335 7.90695 0.833059 7.52951 0.638803 7.09816C0.452018 6.65911 0.358626 6.13532 0.358626 5.52681C0.358626 4.90289 0.466961 4.3483 0.683631 3.86303C0.907772 3.37005 1.2141 2.95796 1.60261 2.62674C1.99859 2.29553 2.46555 2.04519 3.00349 1.87573C3.5489 1.69857 4.13541 1.60999 4.763 1.60999C5.08427 1.60999 5.40554 1.6408 5.72681 1.70242C6.05555 1.75634 6.36188 1.83336 6.64579 1.9335C6.93717 2.02593 7.19494 2.13377 7.41908 2.25701C7.64322 2.37255 7.78891 2.46884 7.85615 2.54586C7.93087 2.61519 7.97943 2.67296 8.00185 2.71917C8.02426 2.75769 8.04294 2.81161 8.05788 2.88093C8.07282 2.94255 8.08403 3.01958 8.0915 3.11201C8.09897 3.20445 8.10271 3.32384 8.10271 3.47019C8.10271 3.60884 8.09524 3.73208 8.08029 3.83992C8.07282 3.94776 8.05788 4.04019 8.03547 4.11722C8.01305 4.18654 7.97943 4.24046 7.9346 4.27897C7.89725 4.30978 7.85242 4.32519 7.80012 4.32519C7.71793 4.32519 7.58718 4.27127 7.40787 4.16343C7.23603 4.05559 7.0231 3.9362 6.76907 3.80526C6.51504 3.66661 6.21245 3.54336 5.8613 3.43553C5.51761 3.31999 5.1291 3.26222 4.69576 3.26222C4.29231 3.26222 3.94115 3.31999 3.6423 3.43553C3.34344 3.54336 3.09689 3.68972 2.90263 3.87458C2.70837 4.05945 2.56268 4.27897 2.46555 4.53316C2.36843 4.78735 2.31986 5.05695 2.31986 5.34195C2.31986 5.75789 2.41325 6.11607 2.60004 6.41647C2.78682 6.71688 3.03338 6.98262 3.33971 7.2137C3.6535 7.44478 4.00839 7.65661 4.40438 7.84918C4.80036 8.04174 5.20381 8.23816 5.61474 8.43843C6.02567 8.631 6.42912 8.84668 6.8251 9.08546C7.22109 9.31654 7.57224 9.59384 7.87857 9.91735C8.19237 10.2332 8.44266 10.6106 8.62944 11.0496C8.8237 11.481 8.92083 11.9932 8.92083 12.5863Z" fill="#D4001A"/>
<path d="M22.134 16.4801C22.134 16.5417 22.119 16.5956 22.0891 16.6418C22.0592 16.688 22.0069 16.7265 21.9322 16.7574C21.8575 16.7805 21.7567 16.7997 21.6296 16.8151C21.5101 16.8382 21.3607 16.8498 21.1814 16.8498C20.9871 16.8498 20.8302 16.8382 20.7107 16.8151C20.5911 16.7997 20.494 16.7805 20.4193 16.7574C20.3446 16.7265 20.2923 16.688 20.2624 16.6418C20.2325 16.5956 20.2175 16.5417 20.2175 16.4801V9.84803H13.6166V16.4801C13.6166 16.5417 13.6016 16.5956 13.5718 16.6418C13.5419 16.688 13.4896 16.7265 13.4149 16.7574C13.3401 16.7805 13.2393 16.7997 13.1123 16.8151C12.9927 16.8382 12.8396 16.8498 12.6528 16.8498C12.4735 16.8498 12.3203 16.8382 12.1933 16.8151C12.0663 16.7997 11.9654 16.7805 11.8907 16.7574C11.816 16.7265 11.7637 16.688 11.7338 16.6418C11.7039 16.5956 11.689 16.5417 11.689 16.4801V2.12992C11.689 2.0683 11.7039 2.01438 11.7338 1.96816C11.7637 1.92194 11.816 1.88728 11.8907 1.86417C11.9654 1.83336 12.0663 1.81026 12.1933 1.79485C12.3203 1.77174 12.4735 1.76019 12.6528 1.76019C12.8396 1.76019 12.9927 1.77174 13.1123 1.79485C13.2393 1.81026 13.3401 1.83336 13.4149 1.86417C13.4896 1.88728 13.5419 1.92194 13.5718 1.96816C13.6016 2.01438 13.6166 2.0683 13.6166 2.12992V8.11492H20.2175V2.12992C20.2175 2.0683 20.2325 2.01438 20.2624 1.96816C20.2923 1.92194 20.3446 1.88728 20.4193 1.86417C20.494 1.83336 20.5911 1.81026 20.7107 1.79485C20.8302 1.77174 20.9871 1.76019 21.1814 1.76019C21.3607 1.76019 21.5101 1.77174 21.6296 1.79485C21.7567 1.81026 21.8575 1.83336 21.9322 1.86417C22.0069 1.88728 22.0592 1.92194 22.0891 1.96816C22.119 2.01438 22.134 2.0683 22.134 2.12992V16.4801Z" fill="#D4001A"/>
<path d="M35.6609 16.4801C35.6609 16.5417 35.6497 16.5956 35.6273 16.6418C35.6049 16.688 35.5563 16.7265 35.4816 16.7574C35.4069 16.7882 35.3023 16.8113 35.1678 16.8267C35.0333 16.8421 34.854 16.8498 34.6298 16.8498C34.4356 16.8498 34.2749 16.8421 34.1479 16.8267C34.0284 16.8113 33.9313 16.7882 33.8565 16.7574C33.7818 16.7188 33.7221 16.6688 33.6772 16.6072C33.6399 16.5455 33.6063 16.4685 33.5764 16.3761L32.2427 12.8521C32.0858 12.4515 31.9215 12.0857 31.7496 11.7544C31.5852 11.4155 31.3873 11.1267 31.1556 10.8879C30.924 10.6414 30.6513 10.4527 30.3375 10.3217C30.0237 10.1831 29.6464 10.1138 29.2056 10.1138H27.9168V16.4801C27.9168 16.5417 27.8981 16.5956 27.8608 16.6418C27.8309 16.688 27.7786 16.7265 27.7039 16.7574C27.6366 16.7805 27.5395 16.7997 27.4125 16.8151C27.2929 16.8382 27.1398 16.8498 26.953 16.8498C26.7662 16.8498 26.6093 16.8382 26.4823 16.8151C26.3628 16.7997 26.2656 16.7805 26.1909 16.7574C26.1162 16.7265 26.0639 16.688 26.034 16.6418C26.0041 16.5956 25.9892 16.5417 25.9892 16.4801V2.6383C25.9892 2.33789 26.0639 2.12992 26.2133 2.01438C26.3702 1.89113 26.5346 1.82951 26.7064 1.82951H29.7884C30.1545 1.82951 30.4571 1.84107 30.6962 1.86417C30.9427 1.87958 31.1631 1.89884 31.3574 1.92194C31.9177 2.02208 32.4108 2.17999 32.8367 2.39566C33.27 2.61134 33.6324 2.88478 33.9238 3.216C34.2152 3.54722 34.4318 3.9285 34.5738 4.35985C34.7232 4.7835 34.7979 5.25336 34.7979 5.76945C34.7979 6.27012 34.7307 6.72073 34.5962 7.12127C34.4692 7.51411 34.2824 7.86458 34.0359 8.17269C33.7893 8.47309 33.4942 8.73499 33.1505 8.95836C32.8068 9.18174 32.422 9.37046 31.9962 9.52451C32.2353 9.63235 32.4519 9.771 32.6462 9.94046C32.8404 10.1022 33.0198 10.2986 33.1841 10.5297C33.356 10.7608 33.5166 11.0265 33.666 11.3269C33.8155 11.6274 33.9649 11.9663 34.1143 12.3437L35.4143 15.6366C35.5189 15.9139 35.5862 16.1103 35.6161 16.2259C35.6459 16.3337 35.6609 16.4184 35.6609 16.4801ZM32.7583 5.97742C32.7583 5.39201 32.6312 4.89904 32.3772 4.4985C32.1232 4.09026 31.6973 3.79755 31.0996 3.62039C30.9128 3.56647 30.6999 3.52796 30.4608 3.50485C30.2292 3.48174 29.9229 3.47019 29.5418 3.47019H27.9168V8.50776H29.7996C30.3076 8.50776 30.7447 8.44614 31.1108 8.32289C31.4844 8.19195 31.7944 8.01478 32.041 7.79141C32.2876 7.56032 32.4669 7.29073 32.5789 6.98262C32.6985 6.67451 32.7583 6.33945 32.7583 5.97742Z" fill="#D4001A"/>
<path d="M40.3791 16.4801C40.3791 16.5417 40.3641 16.5956 40.3342 16.6418C40.3043 16.688 40.252 16.7265 40.1773 16.7574C40.1026 16.7805 40.0018 16.7997 39.8747 16.8151C39.7552 16.8382 39.602 16.8498 39.4153 16.8498C39.2359 16.8498 39.0828 16.8382 38.9558 16.8151C38.8288 16.7997 38.7279 16.7805 38.6532 16.7574C38.5785 16.7265 38.5262 16.688 38.4963 16.6418C38.4664 16.5956 38.4514 16.5417 38.4514 16.4801V2.12992C38.4514 2.0683 38.4664 2.01438 38.4963 1.96816C38.5336 1.92194 38.5897 1.88728 38.6644 1.86417C38.7466 1.83336 38.8474 1.81026 38.967 1.79485C39.094 1.77174 39.2434 1.76019 39.4153 1.76019C39.602 1.76019 39.7552 1.77174 39.8747 1.79485C40.0018 1.81026 40.1026 1.83336 40.1773 1.86417C40.252 1.88728 40.3043 1.92194 40.3342 1.96816C40.3641 2.01438 40.3791 2.0683 40.3791 2.12992V16.4801Z" fill="#D4001A"/>
<path d="M55.1948 15.9601C55.1948 16.1142 55.1687 16.2451 55.1164 16.353C55.0715 16.4608 55.008 16.5494 54.9258 16.6187C54.8511 16.688 54.7652 16.7381 54.6681 16.7689C54.5709 16.7997 54.4738 16.8151 54.3767 16.8151H53.7603C53.566 16.8151 53.3942 16.7959 53.2448 16.7574C53.1028 16.7111 52.9646 16.6341 52.8301 16.5263C52.7031 16.4107 52.5723 16.2567 52.4379 16.0641C52.3109 15.8715 52.1689 15.6251 52.012 15.3246L47.4395 6.82086C47.2004 6.38181 46.9576 5.9235 46.7111 5.44593C46.472 4.96066 46.2478 4.4908 46.0386 4.03634H46.0162C46.0312 4.59093 46.0424 5.15708 46.0498 5.73478C46.0573 6.31249 46.061 6.88634 46.061 7.45634V16.4801C46.061 16.534 46.0461 16.5879 46.0162 16.6418C45.9863 16.688 45.934 16.7265 45.8593 16.7574C45.7921 16.7805 45.6987 16.7997 45.5791 16.8151C45.4671 16.8382 45.3214 16.8498 45.1421 16.8498C44.9627 16.8498 44.8133 16.8382 44.6938 16.8151C44.5817 16.7997 44.4921 16.7805 44.4248 16.7574C44.3576 16.7265 44.309 16.688 44.2791 16.6418C44.2492 16.5879 44.2343 16.534 44.2343 16.4801V2.68451C44.2343 2.3764 44.3165 2.15688 44.4808 2.02593C44.6452 1.89499 44.8245 1.82951 45.0188 1.82951H45.9378C46.1544 1.82951 46.3337 1.84877 46.4757 1.88728C46.6251 1.9258 46.7559 1.99127 46.868 2.0837C46.9875 2.16843 47.0996 2.29167 47.2042 2.45343C47.3162 2.60749 47.4358 2.8039 47.5628 3.04269L51.0818 9.60539C51.2985 10.0059 51.5077 10.3988 51.7094 10.7839C51.9111 11.1613 52.1054 11.5349 52.2922 11.9046C52.479 12.2744 52.662 12.6403 52.8413 13.0023C53.0281 13.3566 53.2112 13.7148 53.3905 14.0768H53.4017C53.3867 13.4683 53.3755 12.8367 53.368 12.1819C53.368 11.5195 53.368 10.884 53.368 10.2755V2.16458C53.368 2.11066 53.383 2.06059 53.4129 2.01438C53.4428 1.96816 53.4913 1.92965 53.5586 1.89884C53.6333 1.86032 53.7267 1.83336 53.8387 1.81796C53.9583 1.80255 54.1115 1.79485 54.2982 1.79485C54.4626 1.79485 54.6046 1.80255 54.7241 1.81796C54.8436 1.83336 54.937 1.86032 55.0043 1.89884C55.0715 1.92965 55.1201 1.96816 55.15 2.01438C55.1799 2.06059 55.1948 2.11066 55.1948 2.16458V15.9601Z" fill="#D4001A"/>
<path d="M68.5088 16.4569C68.5088 16.5186 68.4939 16.5763 68.464 16.6303C68.4416 16.6765 68.393 16.715 68.3183 16.7458C68.2436 16.7766 68.1427 16.7997 68.0157 16.8151C67.8887 16.8382 67.7243 16.8498 67.5226 16.8498C67.2611 16.8498 67.0481 16.8382 66.8838 16.8151C66.7194 16.792 66.5961 16.7497 66.5139 16.688C66.4318 16.6264 66.3645 16.5571 66.3122 16.4801L60.9776 9.00458V16.4801C60.9776 16.534 60.9627 16.5879 60.9328 16.6418C60.9029 16.688 60.8506 16.7265 60.7759 16.7574C60.7012 16.7805 60.6003 16.7997 60.4733 16.8151C60.3538 16.8382 60.2006 16.8498 60.0138 16.8498C59.8345 16.8498 59.6814 16.8382 59.5544 16.8151C59.4273 16.7997 59.3265 16.7805 59.2518 16.7574C59.177 16.7265 59.1247 16.688 59.0949 16.6418C59.065 16.5879 59.05 16.534 59.05 16.4801V2.12992C59.05 2.0683 59.065 2.01438 59.0949 1.96816C59.1247 1.92194 59.177 1.88728 59.2518 1.86417C59.3265 1.83336 59.4273 1.81026 59.5544 1.79485C59.6814 1.77174 59.8345 1.76019 60.0138 1.76019C60.2006 1.76019 60.3538 1.77174 60.4733 1.79485C60.6003 1.81026 60.7012 1.83336 60.7759 1.86417C60.8506 1.88728 60.9029 1.92194 60.9328 1.96816C60.9627 2.01438 60.9776 2.0683 60.9776 2.12992V8.7735L66.1105 2.12992C66.1553 2.06059 66.2076 2.00282 66.2674 1.95661C66.3272 1.91039 66.3981 1.87573 66.4803 1.85262C66.57 1.82181 66.6746 1.7987 66.7941 1.7833C66.9211 1.76789 67.0818 1.76019 67.276 1.76019C67.4703 1.76019 67.6272 1.77174 67.7467 1.79485C67.8663 1.81026 67.9596 1.83336 68.0269 1.86417C68.1016 1.89499 68.1502 1.9335 68.1726 1.97972C68.2025 2.02593 68.2174 2.076 68.2174 2.12992C68.2174 2.23005 68.1913 2.33019 68.139 2.43032C68.0941 2.53046 68.0045 2.66911 67.87 2.84627L63.0622 8.7735L68.2398 15.8677C68.3668 16.068 68.4416 16.2066 68.464 16.2836C68.4939 16.353 68.5088 16.4107 68.5088 16.4569Z" fill="#D4001A"/>
<path d="M86.7915 16.4801C86.7915 16.5417 86.7766 16.5956 86.7467 16.6418C86.7168 16.688 86.6645 16.7265 86.5898 16.7574C86.5151 16.7805 86.418 16.7997 86.2984 16.8151C86.1864 16.8382 86.0369 16.8498 85.8501 16.8498C85.6783 16.8498 85.5289 16.8382 85.4019 16.8151C85.2823 16.7997 85.1852 16.7805 85.1105 16.7574C85.0432 16.7265 84.9947 16.688 84.9648 16.6418C84.9349 16.5956 84.92 16.5417 84.92 16.4801V3.45864H84.8975L79.7311 16.5378C79.7087 16.5917 79.675 16.638 79.6302 16.6765C79.5929 16.715 79.5331 16.7497 79.4509 16.7805C79.3762 16.8036 79.2828 16.819 79.1707 16.8267C79.0661 16.8421 78.9391 16.8498 78.7897 16.8498C78.6328 16.8498 78.4983 16.8421 78.3862 16.8267C78.2742 16.8113 78.1808 16.792 78.1061 16.7689C78.0313 16.7381 77.9716 16.7034 77.9267 16.6649C77.8894 16.6264 77.8632 16.584 77.8483 16.5378L72.906 3.45864H72.8948V16.4801C72.8948 16.5417 72.8798 16.5956 72.8499 16.6418C72.8201 16.688 72.7678 16.7265 72.693 16.7574C72.6183 16.7805 72.5212 16.7997 72.4017 16.8151C72.2821 16.8382 72.129 16.8498 71.9422 16.8498C71.7629 16.8498 71.6134 16.8382 71.4939 16.8151C71.3743 16.7997 71.2772 16.7805 71.2025 16.7574C71.1353 16.7265 71.0867 16.688 71.0568 16.6418C71.0344 16.5956 71.0232 16.5417 71.0232 16.4801V2.73073C71.0232 2.40722 71.1054 2.17614 71.2697 2.03749C71.4341 1.89884 71.6172 1.82952 71.8189 1.82952H72.9844C73.2235 1.82952 73.4327 1.85263 73.612 1.89884C73.7913 1.94506 73.9482 2.01823 74.0827 2.11837C74.2172 2.2185 74.3293 2.3456 74.4189 2.49965C74.5086 2.65371 74.587 2.83472 74.6543 3.04269L78.8569 13.8688H78.913L83.2837 3.07736C83.3659 2.84627 83.4556 2.64986 83.5527 2.4881C83.6498 2.32634 83.7544 2.19925 83.8665 2.10681C83.986 2.00668 84.1168 1.93736 84.2587 1.89884C84.4007 1.85263 84.5651 1.82952 84.7518 1.82952H85.9734C86.0855 1.82952 86.1901 1.84877 86.2872 1.88729C86.3918 1.9181 86.4777 1.97202 86.545 2.04904C86.6197 2.11837 86.6795 2.2108 86.7243 2.32634C86.7691 2.43418 86.7915 2.56898 86.7915 2.73073V16.4801Z" fill="#064494"/>
<path d="M101.518 16.0757C101.577 16.2451 101.607 16.3838 101.607 16.4916C101.615 16.5917 101.589 16.6688 101.529 16.7227C101.469 16.7766 101.368 16.8113 101.226 16.8267C101.092 16.8421 100.909 16.8498 100.677 16.8498C100.445 16.8498 100.259 16.8421 100.117 16.8267C99.9823 16.819 99.8777 16.8036 99.8029 16.7805C99.7357 16.7497 99.6834 16.7111 99.646 16.6649C99.6162 16.6187 99.5863 16.5609 99.5564 16.4916L98.3124 12.8521H92.283L91.095 16.4454C91.0726 16.5147 91.0427 16.5763 91.0054 16.6303C90.968 16.6765 90.912 16.7188 90.8373 16.7574C90.77 16.7882 90.6692 16.8113 90.5347 16.8267C90.4077 16.8421 90.2396 16.8498 90.0304 16.8498C89.8137 16.8498 89.6344 16.8382 89.4924 16.8151C89.358 16.7997 89.2608 16.7651 89.2011 16.7111C89.1488 16.6572 89.1226 16.5802 89.1226 16.4801C89.1301 16.3722 89.1637 16.2336 89.2235 16.0641L94.0873 2.17614C94.1172 2.09141 94.1546 2.02208 94.1994 1.96817C94.2517 1.91425 94.3227 1.87188 94.4123 1.84107C94.5095 1.81026 94.629 1.791 94.771 1.7833C94.9204 1.7679 95.1072 1.76019 95.3313 1.76019C95.5704 1.76019 95.7684 1.7679 95.9253 1.7833C96.0822 1.791 96.2092 1.81026 96.3063 1.84107C96.4035 1.87188 96.4782 1.9181 96.5305 1.97972C96.5828 2.03364 96.6239 2.10296 96.6538 2.18769L101.518 16.0757ZM95.2753 3.81681H95.2641L92.7649 11.2692H97.8081L95.2753 3.81681Z" fill="#064494"/>
<path d="M114.91 15.9601C114.91 16.1142 114.884 16.2451 114.832 16.353C114.787 16.4608 114.723 16.5494 114.641 16.6187C114.566 16.688 114.48 16.7381 114.383 16.7689C114.286 16.7997 114.189 16.8151 114.092 16.8151H113.476C113.281 16.8151 113.109 16.7959 112.96 16.7574C112.818 16.7111 112.68 16.6341 112.545 16.5263C112.418 16.4107 112.288 16.2567 112.153 16.0641C112.026 15.8715 111.884 15.6251 111.727 15.3247L107.155 6.82087C106.916 6.38181 106.673 5.9235 106.426 5.44594C106.187 4.96067 105.963 4.4908 105.754 4.03634H105.731C105.746 4.59094 105.758 5.15708 105.765 5.73479C105.773 6.31249 105.776 6.88634 105.776 7.45634V16.4801C105.776 16.534 105.761 16.5879 105.731 16.6418C105.702 16.688 105.649 16.7265 105.575 16.7574C105.507 16.7805 105.414 16.7997 105.294 16.8151C105.182 16.8382 105.037 16.8498 104.857 16.8498C104.678 16.8498 104.529 16.8382 104.409 16.8151C104.297 16.7997 104.207 16.7805 104.14 16.7574C104.073 16.7265 104.024 16.688 103.994 16.6418C103.964 16.5879 103.95 16.534 103.95 16.4801V2.68452C103.95 2.37641 104.032 2.15688 104.196 2.02594C104.36 1.89499 104.54 1.82952 104.734 1.82952H105.653C105.87 1.82952 106.049 1.84877 106.191 1.88729C106.34 1.9258 106.471 1.99127 106.583 2.08371C106.703 2.16844 106.815 2.29168 106.919 2.45344C107.031 2.60749 107.151 2.80391 107.278 3.04269L110.797 9.6054C111.014 10.0059 111.223 10.3988 111.425 10.7839C111.626 11.1613 111.821 11.5349 112.007 11.9047C112.194 12.2744 112.377 12.6403 112.557 13.0023C112.743 13.3566 112.926 13.7148 113.106 14.0768H113.117C113.102 13.4683 113.091 12.8367 113.083 12.1819C113.083 11.5195 113.083 10.884 113.083 10.2755V2.16458C113.083 2.11067 113.098 2.0606 113.128 2.01438C113.158 1.96817 113.207 1.92965 113.274 1.89884C113.349 1.86033 113.442 1.83337 113.554 1.81796C113.674 1.80256 113.827 1.79486 114.013 1.79486C114.178 1.79486 114.32 1.80256 114.439 1.81796C114.559 1.83337 114.652 1.86033 114.72 1.89884C114.787 1.92965 114.835 1.96817 114.865 2.01438C114.895 2.0606 114.91 2.11067 114.91 2.16458V15.9601Z" fill="#064494"/>
<path d="M124.921 0C125.606 0 126.275 0.182209 126.928 0.546626C127.581 0.907325 128.089 1.42606 128.454 2.10284C128.818 2.7759 129 3.4787 129 4.21125C129 4.93637 128.82 5.6336 128.459 6.30294C128.102 6.97228 127.599 7.49287 126.949 7.86473C126.304 8.23286 125.628 8.41693 124.921 8.41693C124.214 8.41693 123.536 8.23286 122.886 7.86473C122.241 7.49287 121.738 6.97228 121.377 6.30294C121.016 5.6336 120.836 4.93637 120.836 4.21125C120.836 3.4787 121.018 2.7759 121.382 2.10284C121.75 1.42606 122.261 0.907325 122.913 0.546626C123.566 0.182209 124.235 0 124.921 0ZM124.921 0.697228C124.347 0.697228 123.788 0.849688 123.243 1.15461C122.702 1.45581 122.279 1.88902 121.972 2.45424C121.665 3.01574 121.512 3.60141 121.512 4.21125C121.512 4.81738 121.662 5.39933 121.961 5.95711C122.264 6.51118 122.686 6.94439 123.227 7.25674C123.768 7.56538 124.333 7.7197 124.921 7.7197C125.509 7.7197 126.073 7.56538 126.614 7.25674C127.155 6.94439 127.575 6.51118 127.875 5.95711C128.174 5.39933 128.324 4.81738 128.324 4.21125C128.324 3.60141 128.17 3.01574 127.864 2.45424C127.561 1.88902 127.137 1.45581 126.592 1.15461C126.048 0.849688 125.49 0.697228 124.921 0.697228ZM123.13 6.53721V2.00802H124.639C125.155 2.00802 125.528 2.05078 125.759 2.13631C125.99 2.21811 126.174 2.36314 126.311 2.57138C126.448 2.77961 126.517 3.00087 126.517 3.23514C126.517 3.56609 126.401 3.85427 126.17 4.0997C125.943 4.34512 125.64 4.48271 125.261 4.51246C125.417 4.57939 125.541 4.65934 125.635 4.7523C125.811 4.93079 126.028 5.23014 126.284 5.65033L126.82 6.53721H125.954L125.564 5.82324C125.258 5.26174 125.011 4.91034 124.823 4.76904C124.693 4.66492 124.504 4.61286 124.255 4.61286H123.839V6.53721H123.13ZM123.839 3.98814H124.699C125.11 3.98814 125.389 3.92493 125.537 3.7985C125.689 3.67206 125.765 3.50473 125.765 3.29649C125.765 3.16262 125.729 3.04363 125.656 2.93951C125.584 2.83167 125.483 2.75172 125.353 2.69966C125.227 2.64761 124.991 2.62158 124.645 2.62158H123.839V3.98814Z" fill="#182955"/>
</svg>
