<svg width="324" height="68" viewBox="0 0 324 68" fill="none" xmlns="http://www.w3.org/2000/svg">
<g filter="url(#filter0_dd_553_2169)">
<rect x="10" y="10" width="304" height="48" rx="5" fill="#064494"/>
</g>
<path d="M67.912 38.488C68.3547 38.488 68.7493 38.4133 69.096 38.264C69.448 38.1147 69.744 37.9067 69.984 37.64C70.2293 37.3733 70.416 37.0533 70.544 36.68C70.672 36.3013 70.736 35.8827 70.736 35.424V28.48H72.6V35.424C72.6 36.1013 72.4907 36.728 72.272 37.304C72.0587 37.88 71.7493 38.3787 71.344 38.8C70.9387 39.216 70.4453 39.544 69.864 39.784C69.288 40.0187 68.6373 40.136 67.912 40.136C67.1867 40.136 66.5333 40.0187 65.952 39.784C65.376 39.544 64.8853 39.216 64.48 38.8C64.0747 38.3787 63.7627 37.88 63.544 37.304C63.3307 36.728 63.224 36.1013 63.224 35.424V28.48H65.096V35.416C65.096 35.8747 65.16 36.2933 65.288 36.672C65.416 37.0453 65.6 37.368 65.84 37.64C66.08 37.9067 66.3733 38.1147 66.72 38.264C67.072 38.4133 67.4693 38.488 67.912 38.488ZM76.3461 37.952C76.5861 38.2613 76.8475 38.48 77.1301 38.608C77.4181 38.7307 77.7355 38.792 78.0821 38.792C78.7541 38.792 79.2768 38.5467 79.6501 38.056C80.0288 37.5653 80.2181 36.8347 80.2181 35.864C80.2181 35.3627 80.1755 34.936 80.0901 34.584C80.0048 34.2267 79.8821 33.936 79.7221 33.712C79.5621 33.488 79.3675 33.3253 79.1381 33.224C78.9088 33.1227 78.6501 33.072 78.3621 33.072C77.9248 33.072 77.5461 33.168 77.2261 33.36C76.9115 33.5467 76.6181 33.816 76.3461 34.168V37.952ZM76.2581 33.024C76.5995 32.624 76.9861 32.3013 77.4181 32.056C77.8555 31.8107 78.3621 31.688 78.9381 31.688C79.3968 31.688 79.8128 31.7813 80.1861 31.968C80.5595 32.1493 80.8795 32.416 81.1461 32.768C81.4128 33.12 81.6181 33.5573 81.7621 34.08C81.9115 34.5973 81.9861 35.192 81.9861 35.864C81.9861 36.4667 81.9035 37.0293 81.7381 37.552C81.5781 38.0693 81.3461 38.52 81.0421 38.904C80.7381 39.2827 80.3701 39.5813 79.9381 39.8C79.5061 40.0133 79.0181 40.12 78.4741 40.12C77.9941 40.12 77.5861 40.0427 77.2501 39.888C76.9195 39.7333 76.6181 39.52 76.3461 39.248V42.712H74.6261V31.84H75.6661C75.9008 31.84 76.0501 31.9493 76.1141 32.168L76.2581 33.024ZM86.5694 35.848C87.1027 35.848 87.5027 35.712 87.7694 35.44C88.036 35.168 88.1694 34.8133 88.1694 34.376C88.1694 33.928 88.036 33.5733 87.7694 33.312C87.5027 33.0507 87.1027 32.92 86.5694 32.92C86.0414 32.92 85.6414 33.0507 85.3694 33.312C85.1027 33.5733 84.9694 33.928 84.9694 34.376C84.9694 34.5893 85.004 34.7867 85.0734 34.968C85.1427 35.1493 85.244 35.3067 85.3774 35.44C85.5107 35.568 85.676 35.6693 85.8734 35.744C86.076 35.8133 86.308 35.848 86.5694 35.848ZM88.9614 40.4C88.9614 40.2187 88.908 40.0747 88.8014 39.968C88.7 39.856 88.5614 39.7707 88.3854 39.712C88.2094 39.648 88.004 39.6027 87.7694 39.576C87.5347 39.544 87.284 39.5227 87.0174 39.512C86.756 39.496 86.4867 39.4827 86.2094 39.472C85.9374 39.456 85.6734 39.4293 85.4174 39.392C85.1614 39.5253 84.9507 39.6853 84.7854 39.872C84.6254 40.0587 84.5454 40.2747 84.5454 40.52C84.5454 40.68 84.5854 40.8293 84.6654 40.968C84.7507 41.1067 84.8787 41.2267 85.0494 41.328C85.2254 41.4293 85.4467 41.5093 85.7134 41.568C85.9854 41.6267 86.3107 41.656 86.6894 41.656C87.4467 41.656 88.0147 41.5387 88.3934 41.304C88.772 41.0693 88.9614 40.768 88.9614 40.4ZM90.6894 32.136V32.776C90.6894 32.9893 90.5614 33.12 90.3054 33.168L89.4894 33.304C89.628 33.6133 89.6974 33.9573 89.6974 34.336C89.6974 34.736 89.6174 35.0987 89.4574 35.424C89.3027 35.7493 89.0867 36.0267 88.8094 36.256C88.532 36.4853 88.2014 36.6613 87.8174 36.784C87.4334 36.9067 87.0174 36.968 86.5694 36.968C86.3987 36.968 86.2307 36.96 86.0654 36.944C85.9054 36.9227 85.748 36.896 85.5934 36.864C85.4387 36.9547 85.324 37.0507 85.2494 37.152C85.1747 37.2533 85.1374 37.3573 85.1374 37.464C85.1374 37.64 85.2147 37.7707 85.3694 37.856C85.524 37.9413 85.7267 38.0027 85.9774 38.04C86.2334 38.0773 86.524 38.1013 86.8494 38.112C87.1747 38.1227 87.5054 38.1413 87.8414 38.168C88.1774 38.1947 88.508 38.24 88.8334 38.304C89.1587 38.3627 89.4467 38.464 89.6974 38.608C89.9534 38.7467 90.1587 38.936 90.3134 39.176C90.468 39.416 90.5454 39.728 90.5454 40.112C90.5454 40.464 90.4574 40.808 90.2814 41.144C90.1054 41.48 89.8494 41.7787 89.5134 42.04C89.1827 42.3013 88.7774 42.5093 88.2974 42.664C87.8174 42.824 87.2707 42.904 86.6574 42.904C86.0494 42.904 85.5187 42.8453 85.0654 42.728C84.6174 42.6107 84.2414 42.4507 83.9374 42.248C83.6387 42.0507 83.4147 41.8213 83.2654 41.56C83.1214 41.2987 83.0494 41.0267 83.0494 40.744C83.0494 40.36 83.1694 40.032 83.4094 39.76C83.6547 39.488 83.9854 39.2747 84.4014 39.12C84.1774 39.0133 83.996 38.8667 83.8574 38.68C83.724 38.4933 83.6574 38.248 83.6574 37.944C83.6574 37.704 83.7454 37.4533 83.9214 37.192C84.0974 36.9307 84.3614 36.7093 84.7134 36.528C84.308 36.304 83.988 36.008 83.7534 35.64C83.5187 35.2667 83.4014 34.832 83.4014 34.336C83.4014 33.9307 83.4787 33.5653 83.6334 33.24C83.7934 32.9147 84.0147 32.6373 84.2974 32.408C84.58 32.1787 84.9134 32.0027 85.2974 31.88C85.6867 31.7573 86.1107 31.696 86.5694 31.696C87.2734 31.696 87.8867 31.8427 88.4094 32.136H90.6894ZM93.672 33.352C93.928 32.8347 94.2373 32.4293 94.6 32.136C94.9627 31.8373 95.3973 31.688 95.904 31.688C96.08 31.688 96.2453 31.7093 96.4 31.752C96.5547 31.7893 96.6933 31.848 96.816 31.928L96.696 33.224C96.6747 33.3147 96.64 33.3787 96.592 33.416C96.5493 33.448 96.4907 33.464 96.416 33.464C96.336 33.464 96.2213 33.4507 96.072 33.424C95.9227 33.392 95.7653 33.376 95.6 33.376C95.36 33.376 95.1467 33.4107 94.96 33.48C94.7787 33.5493 94.6133 33.6507 94.464 33.784C94.32 33.9173 94.192 34.08 94.08 34.272C93.968 34.464 93.864 34.6827 93.768 34.928V40H92.048V31.84H93.048C93.2293 31.84 93.3547 31.8747 93.424 31.944C93.4933 32.008 93.5413 32.1227 93.568 32.288L93.672 33.352ZM102.189 36.432C101.576 36.4533 101.059 36.504 100.637 36.584C100.216 36.6587 99.8746 36.7573 99.6133 36.88C99.3519 36.9973 99.1626 37.1387 99.0453 37.304C98.9333 37.4693 98.8773 37.6507 98.8773 37.848C98.8773 38.04 98.9066 38.2053 98.9653 38.344C99.0293 38.4773 99.1146 38.5893 99.2213 38.68C99.3333 38.7653 99.4613 38.8293 99.6053 38.872C99.7546 38.9093 99.9173 38.928 100.093 38.928C100.541 38.928 100.925 38.8453 101.245 38.68C101.571 38.5093 101.885 38.264 102.189 37.944V36.432ZM97.6293 32.976C98.5519 32.1173 99.6506 31.688 100.925 31.688C101.395 31.688 101.811 31.7653 102.173 31.92C102.541 32.0693 102.848 32.2827 103.093 32.56C103.344 32.8373 103.533 33.168 103.661 33.552C103.795 33.9307 103.861 34.352 103.861 34.816V40H103.093C102.928 40 102.803 39.976 102.717 39.928C102.632 39.8747 102.56 39.7707 102.501 39.616L102.333 38.952C102.125 39.1387 101.92 39.3067 101.717 39.456C101.515 39.6 101.304 39.7227 101.085 39.824C100.872 39.9253 100.64 40 100.389 40.048C100.144 40.1013 99.8719 40.128 99.5733 40.128C99.2426 40.128 98.9333 40.0827 98.6453 39.992C98.3626 39.9013 98.1173 39.7653 97.9093 39.584C97.7013 39.3973 97.5359 39.168 97.4133 38.896C97.2959 38.624 97.2373 38.304 97.2373 37.936C97.2373 37.6213 97.3199 37.3147 97.4853 37.016C97.6559 36.7173 97.9333 36.4507 98.3173 36.216C98.7066 35.976 99.2159 35.7787 99.8453 35.624C100.48 35.4693 101.261 35.3813 102.189 35.36V34.816C102.189 34.2293 102.064 33.792 101.813 33.504C101.563 33.216 101.195 33.072 100.709 33.072C100.379 33.072 100.101 33.1147 99.8773 33.2C99.6533 33.28 99.4586 33.368 99.2933 33.464C99.1279 33.56 98.9813 33.6507 98.8533 33.736C98.7253 33.816 98.5893 33.856 98.4453 33.856C98.3279 33.856 98.2266 33.8267 98.1413 33.768C98.0613 33.704 97.9946 33.6267 97.9413 33.536L97.6293 32.976ZM111.084 33.848C110.844 33.5387 110.58 33.3227 110.292 33.2C110.004 33.0773 109.692 33.016 109.356 33.016C108.684 33.016 108.159 33.264 107.78 33.76C107.401 34.2507 107.212 34.9787 107.212 35.944C107.212 36.4453 107.255 36.8747 107.34 37.232C107.425 37.584 107.548 37.872 107.708 38.096C107.868 38.32 108.063 38.4827 108.292 38.584C108.521 38.6853 108.78 38.736 109.068 38.736C109.505 38.736 109.881 38.6427 110.196 38.456C110.516 38.264 110.812 37.9947 111.084 37.648V33.848ZM112.804 28.16V40H111.764C111.535 40 111.388 39.8907 111.324 39.672L111.172 38.784C110.831 39.184 110.441 39.5067 110.004 39.752C109.572 39.9973 109.068 40.12 108.492 40.12C108.033 40.12 107.617 40.0293 107.244 39.848C106.871 39.6613 106.551 39.392 106.284 39.04C106.017 38.688 105.809 38.2533 105.66 37.736C105.516 37.2133 105.444 36.616 105.444 35.944C105.444 35.336 105.524 34.7733 105.684 34.256C105.849 33.7387 106.084 33.2907 106.388 32.912C106.692 32.528 107.06 32.2293 107.492 32.016C107.929 31.7973 108.417 31.688 108.956 31.688C109.436 31.688 109.844 31.7653 110.18 31.92C110.516 32.0693 110.817 32.28 111.084 32.552V28.16H112.804ZM120.259 35C120.259 34.712 120.217 34.4453 120.131 34.2C120.051 33.9493 119.931 33.7333 119.771 33.552C119.611 33.3653 119.411 33.2213 119.171 33.12C118.937 33.0133 118.665 32.96 118.355 32.96C117.731 32.96 117.241 33.1387 116.883 33.496C116.526 33.8533 116.299 34.3547 116.203 35H120.259ZM116.155 36.056C116.177 36.52 116.249 36.9227 116.371 37.264C116.494 37.6 116.657 37.88 116.859 38.104C117.067 38.328 117.313 38.496 117.595 38.608C117.883 38.7147 118.203 38.768 118.555 38.768C118.891 38.768 119.182 38.7307 119.427 38.656C119.673 38.576 119.886 38.4907 120.067 38.4C120.249 38.304 120.403 38.2187 120.531 38.144C120.659 38.064 120.777 38.024 120.883 38.024C121.022 38.024 121.129 38.0773 121.203 38.184L121.691 38.816C121.489 39.056 121.259 39.2587 121.003 39.424C120.747 39.5893 120.475 39.7253 120.187 39.832C119.899 39.9333 119.603 40.0053 119.299 40.048C118.995 40.096 118.699 40.12 118.411 40.12C117.846 40.12 117.321 40.0267 116.835 39.84C116.355 39.648 115.937 39.368 115.579 39C115.227 38.632 114.95 38.176 114.747 37.632C114.55 37.088 114.451 36.4613 114.451 35.752C114.451 35.1867 114.539 34.6587 114.715 34.168C114.897 33.6773 115.153 33.2507 115.483 32.888C115.819 32.5253 116.225 32.24 116.699 32.032C117.179 31.8187 117.721 31.712 118.323 31.712C118.825 31.712 119.289 31.7947 119.715 31.96C120.142 32.12 120.51 32.3573 120.819 32.672C121.129 32.9867 121.369 33.3733 121.539 33.832C121.715 34.2853 121.803 34.8027 121.803 35.384C121.803 35.6507 121.774 35.8293 121.715 35.92C121.657 36.0107 121.55 36.056 121.395 36.056H116.155ZM130.008 40.128C129.33 40.128 128.808 39.9387 128.44 39.56C128.077 39.176 127.896 38.6373 127.896 37.944V33.192H127C126.904 33.192 126.821 33.1627 126.752 33.104C126.682 33.04 126.648 32.9467 126.648 32.824V32.128L127.968 31.936L128.344 29.576C128.37 29.4853 128.416 29.4133 128.48 29.36C128.544 29.3013 128.629 29.272 128.736 29.272H129.616V31.952H131.88V33.192H129.616V37.824C129.616 38.1173 129.688 38.3413 129.832 38.496C129.976 38.6507 130.168 38.728 130.408 38.728C130.541 38.728 130.656 38.712 130.752 38.68C130.848 38.6427 130.93 38.6053 131 38.568C131.069 38.5253 131.128 38.488 131.176 38.456C131.229 38.4187 131.28 38.4 131.328 38.4C131.424 38.4 131.501 38.4533 131.56 38.56L132.072 39.4C131.805 39.6347 131.49 39.816 131.128 39.944C130.765 40.0667 130.392 40.128 130.008 40.128ZM136.701 31.712C137.304 31.712 137.848 31.8107 138.333 32.008C138.824 32.2053 139.24 32.4853 139.581 32.848C139.928 33.2107 140.194 33.6507 140.381 34.168C140.568 34.6853 140.661 35.2667 140.661 35.912C140.661 36.5573 140.568 37.1387 140.381 37.656C140.194 38.1733 139.928 38.616 139.581 38.984C139.24 39.3467 138.824 39.6267 138.333 39.824C137.848 40.0213 137.304 40.12 136.701 40.12C136.093 40.12 135.544 40.0213 135.053 39.824C134.568 39.6267 134.152 39.3467 133.805 38.984C133.458 38.616 133.192 38.1733 133.005 37.656C132.818 37.1387 132.725 36.5573 132.725 35.912C132.725 35.2667 132.818 34.6853 133.005 34.168C133.192 33.6507 133.458 33.2107 133.805 32.848C134.152 32.4853 134.568 32.2053 135.053 32.008C135.544 31.8107 136.093 31.712 136.701 31.712ZM136.701 38.776C137.437 38.776 137.984 38.5307 138.341 38.04C138.704 37.544 138.885 36.8373 138.885 35.92C138.885 35.0027 138.704 34.296 138.341 33.8C137.984 33.2987 137.437 33.048 136.701 33.048C135.954 33.048 135.4 33.2987 135.037 33.8C134.674 34.296 134.493 35.0027 134.493 35.92C134.493 36.8373 134.674 37.544 135.037 38.04C135.4 38.5307 135.954 38.776 136.701 38.776ZM150.202 34.352C150.618 34.352 150.983 34.2987 151.298 34.192C151.618 34.0853 151.882 33.936 152.09 33.744C152.303 33.5467 152.463 33.3093 152.57 33.032C152.677 32.7547 152.73 32.4453 152.73 32.104C152.73 31.768 152.677 31.4667 152.57 31.2C152.469 30.9333 152.314 30.7067 152.106 30.52C151.898 30.3333 151.634 30.192 151.314 30.096C150.999 29.9947 150.629 29.944 150.202 29.944H148.49V34.352H150.202ZM150.202 28.48C150.954 28.48 151.605 28.568 152.154 28.744C152.709 28.92 153.165 29.168 153.522 29.488C153.885 29.8027 154.154 30.184 154.33 30.632C154.506 31.0747 154.594 31.5653 154.594 32.104C154.594 32.6533 154.501 33.1573 154.314 33.616C154.127 34.0693 153.85 34.4613 153.482 34.792C153.114 35.1173 152.655 35.3733 152.106 35.56C151.562 35.7413 150.927 35.832 150.202 35.832H148.49V40H146.618V28.48H150.202ZM157.547 33.352C157.803 32.8347 158.112 32.4293 158.475 32.136C158.838 31.8373 159.272 31.688 159.779 31.688C159.955 31.688 160.12 31.7093 160.275 31.752C160.43 31.7893 160.568 31.848 160.691 31.928L160.571 33.224C160.55 33.3147 160.515 33.3787 160.467 33.416C160.424 33.448 160.366 33.464 160.291 33.464C160.211 33.464 160.096 33.4507 159.947 33.424C159.798 33.392 159.64 33.376 159.475 33.376C159.235 33.376 159.022 33.4107 158.835 33.48C158.654 33.5493 158.488 33.6507 158.339 33.784C158.195 33.9173 158.067 34.08 157.955 34.272C157.843 34.464 157.739 34.6827 157.643 34.928V40H155.923V31.84H156.923C157.104 31.84 157.23 31.8747 157.299 31.944C157.368 32.008 157.416 32.1227 157.443 32.288L157.547 33.352ZM166.9 35C166.9 34.712 166.857 34.4453 166.772 34.2C166.692 33.9493 166.572 33.7333 166.412 33.552C166.252 33.3653 166.052 33.2213 165.812 33.12C165.577 33.0133 165.305 32.96 164.996 32.96C164.372 32.96 163.881 33.1387 163.524 33.496C163.167 33.8533 162.94 34.3547 162.844 35H166.9ZM162.796 36.056C162.817 36.52 162.889 36.9227 163.012 37.264C163.135 37.6 163.297 37.88 163.5 38.104C163.708 38.328 163.953 38.496 164.236 38.608C164.524 38.7147 164.844 38.768 165.196 38.768C165.532 38.768 165.823 38.7307 166.068 38.656C166.313 38.576 166.527 38.4907 166.708 38.4C166.889 38.304 167.044 38.2187 167.172 38.144C167.3 38.064 167.417 38.024 167.524 38.024C167.663 38.024 167.769 38.0773 167.844 38.184L168.332 38.816C168.129 39.056 167.9 39.2587 167.644 39.424C167.388 39.5893 167.116 39.7253 166.828 39.832C166.54 39.9333 166.244 40.0053 165.94 40.048C165.636 40.096 165.34 40.12 165.052 40.12C164.487 40.12 163.961 40.0267 163.476 39.84C162.996 39.648 162.577 39.368 162.22 39C161.868 38.632 161.591 38.176 161.388 37.632C161.191 37.088 161.092 36.4613 161.092 35.752C161.092 35.1867 161.18 34.6587 161.356 34.168C161.537 33.6773 161.793 33.2507 162.124 32.888C162.46 32.5253 162.865 32.24 163.34 32.032C163.82 31.8187 164.361 31.712 164.964 31.712C165.465 31.712 165.929 31.7947 166.356 31.96C166.783 32.12 167.151 32.3573 167.46 32.672C167.769 32.9867 168.009 33.3733 168.18 33.832C168.356 34.2853 168.444 34.8027 168.444 35.384C168.444 35.6507 168.415 35.8293 168.356 35.92C168.297 36.0107 168.191 36.056 168.036 36.056H162.796ZM170.048 40V31.84H171.088C171.323 31.84 171.472 31.9493 171.536 32.168L171.648 32.88C171.797 32.7093 171.952 32.5547 172.112 32.416C172.272 32.272 172.443 32.1493 172.624 32.048C172.811 31.9413 173.008 31.8587 173.216 31.8C173.429 31.7413 173.659 31.712 173.904 31.712C174.165 31.712 174.405 31.7493 174.624 31.824C174.843 31.8987 175.035 32.0053 175.2 32.144C175.371 32.2827 175.517 32.4507 175.64 32.648C175.763 32.8453 175.864 33.0667 175.944 33.312C176.067 33.0293 176.221 32.7867 176.408 32.584C176.595 32.3813 176.803 32.216 177.032 32.088C177.261 31.96 177.504 31.8667 177.76 31.808C178.021 31.744 178.285 31.712 178.552 31.712C178.989 31.712 179.379 31.7813 179.72 31.92C180.067 32.0587 180.357 32.2613 180.592 32.528C180.832 32.7893 181.013 33.112 181.136 33.496C181.259 33.88 181.32 34.3173 181.32 34.808V40H179.6V34.808C179.6 34.232 179.475 33.8 179.224 33.512C178.979 33.2187 178.613 33.072 178.128 33.072C177.909 33.072 177.704 33.1093 177.512 33.184C177.32 33.2587 177.152 33.368 177.008 33.512C176.864 33.656 176.749 33.8373 176.664 34.056C176.584 34.2693 176.544 34.52 176.544 34.808V40H174.824V34.808C174.824 34.2107 174.704 33.7733 174.464 33.496C174.224 33.2133 173.872 33.072 173.408 33.072C173.088 33.072 172.792 33.1547 172.52 33.32C172.248 33.48 171.997 33.7013 171.768 33.984V40H170.048ZM185.121 31.84V40H183.401V31.84H185.121ZM185.409 29.376C185.409 29.5307 185.377 29.6773 185.313 29.816C185.255 29.9547 185.172 30.0773 185.065 30.184C184.959 30.2853 184.833 30.368 184.689 30.432C184.551 30.4907 184.401 30.52 184.241 30.52C184.087 30.52 183.94 30.4907 183.801 30.432C183.668 30.368 183.551 30.2853 183.449 30.184C183.348 30.0773 183.265 29.9547 183.201 29.816C183.143 29.6773 183.113 29.5307 183.113 29.376C183.113 29.216 183.143 29.0667 183.201 28.928C183.265 28.7893 183.348 28.6693 183.449 28.568C183.551 28.4613 183.668 28.3787 183.801 28.32C183.94 28.256 184.087 28.224 184.241 28.224C184.401 28.224 184.551 28.256 184.689 28.32C184.833 28.3787 184.959 28.4613 185.065 28.568C185.172 28.6693 185.255 28.7893 185.313 28.928C185.377 29.0667 185.409 29.216 185.409 29.376ZM194.162 31.84V40H193.122C192.893 40 192.746 39.8907 192.682 39.672L192.554 38.912C192.384 39.0933 192.202 39.2587 192.01 39.408C191.824 39.5573 191.624 39.6853 191.41 39.792C191.197 39.8987 190.968 39.9813 190.722 40.04C190.482 40.0987 190.224 40.128 189.946 40.128C189.498 40.128 189.104 40.0533 188.762 39.904C188.421 39.7547 188.133 39.544 187.898 39.272C187.669 39 187.496 38.6747 187.378 38.296C187.261 37.912 187.202 37.4907 187.202 37.032V31.84H188.922V37.032C188.922 37.5813 189.048 38.008 189.298 38.312C189.554 38.616 189.941 38.768 190.458 38.768C190.837 38.768 191.189 38.6827 191.514 38.512C191.845 38.336 192.154 38.096 192.442 37.792V31.84H194.162ZM196.251 40V31.84H197.291C197.526 31.84 197.675 31.9493 197.739 32.168L197.851 32.88C198 32.7093 198.155 32.5547 198.315 32.416C198.475 32.272 198.646 32.1493 198.827 32.048C199.014 31.9413 199.211 31.8587 199.419 31.8C199.632 31.7413 199.862 31.712 200.107 31.712C200.368 31.712 200.608 31.7493 200.827 31.824C201.046 31.8987 201.238 32.0053 201.403 32.144C201.574 32.2827 201.72 32.4507 201.843 32.648C201.966 32.8453 202.067 33.0667 202.147 33.312C202.27 33.0293 202.424 32.7867 202.611 32.584C202.798 32.3813 203.006 32.216 203.235 32.088C203.464 31.96 203.707 31.8667 203.963 31.808C204.224 31.744 204.488 31.712 204.755 31.712C205.192 31.712 205.582 31.7813 205.923 31.92C206.27 32.0587 206.56 32.2613 206.795 32.528C207.035 32.7893 207.216 33.112 207.339 33.496C207.462 33.88 207.523 34.3173 207.523 34.808V40H205.803V34.808C205.803 34.232 205.678 33.8 205.427 33.512C205.182 33.2187 204.816 33.072 204.331 33.072C204.112 33.072 203.907 33.1093 203.715 33.184C203.523 33.2587 203.355 33.368 203.211 33.512C203.067 33.656 202.952 33.8373 202.867 34.056C202.787 34.2693 202.747 34.52 202.747 34.808V40H201.027V34.808C201.027 34.2107 200.907 33.7733 200.667 33.496C200.427 33.2133 200.075 33.072 199.611 33.072C199.291 33.072 198.995 33.1547 198.723 33.32C198.451 33.48 198.2 33.7013 197.971 33.984V40H196.251Z" fill="#FEFEFE"/>
<g clip-path="url(#clip0_553_2169)">
<path d="M290.59 38.59L295.17 34L290.59 29.41L292 28L298 34L292 40L290.59 38.59Z" fill="#FEFEFE"/>
</g>
<path d="M28 30L29.304 31.043C29.7583 31.4064 30.2864 31.6662 30.8514 31.8046C31.4164 31.9429 32.0048 31.9563 32.5756 31.8438C33.1463 31.7314 33.6857 31.4958 34.1561 31.1535C34.6264 30.8113 35.0165 30.3705 35.299 29.862L38 25L40.701 29.862C40.9836 30.3704 41.3737 30.8111 41.8441 31.1533C42.3145 31.4955 42.8539 31.7309 43.4247 31.8433C43.9954 31.9556 44.5838 31.9421 45.1488 31.8037C45.7138 31.6653 46.2418 31.4054 46.696 31.042L48 30L46.246 38.77C46.1694 39.1527 46.0065 39.5129 45.7696 39.8231C45.5327 40.1333 45.2281 40.3854 44.879 40.56V40.56C42.7432 41.628 40.388 42.184 38 42.184C35.612 42.184 33.2568 41.628 31.121 40.56V40.56C30.7719 40.3854 30.4673 40.1333 30.2304 39.8231C29.9935 39.5129 29.8306 39.1527 29.754 38.77L28 30Z" stroke="#FEFEFE" stroke-width="2" stroke-linecap="round" stroke-linejoin="round"/>
<path d="M34 37C36.596 38.333 39.404 38.333 42 37" stroke="#FEFEFE" stroke-width="2" stroke-linecap="round" stroke-linejoin="round"/>
<defs>
<filter id="filter0_dd_553_2169" x="0" y="0" width="324" height="68" filterUnits="userSpaceOnUse" color-interpolation-filters="sRGB">
<feFlood flood-opacity="0" result="BackgroundImageFix"/>
<feColorMatrix in="SourceAlpha" type="matrix" values="0 0 0 0 0 0 0 0 0 0 0 0 0 0 0 0 0 0 127 0" result="hardAlpha"/>
<feOffset dx="2" dy="2"/>
<feGaussianBlur stdDeviation="4"/>
<feComposite in2="hardAlpha" operator="out"/>
<feColorMatrix type="matrix" values="0 0 0 0 0.0235294 0 0 0 0 0.266667 0 0 0 0 0.580392 0 0 0 0.25 0"/>
<feBlend mode="normal" in2="BackgroundImageFix" result="effect1_dropShadow_553_2169"/>
<feColorMatrix in="SourceAlpha" type="matrix" values="0 0 0 0 0 0 0 0 0 0 0 0 0 0 0 0 0 0 127 0" result="hardAlpha"/>
<feOffset dx="-2" dy="-2"/>
<feGaussianBlur stdDeviation="4"/>
<feComposite in2="hardAlpha" operator="out"/>
<feColorMatrix type="matrix" values="0 0 0 0 0.0235294 0 0 0 0 0.266667 0 0 0 0 0.580392 0 0 0 0.1 0"/>
<feBlend mode="normal" in2="effect1_dropShadow_553_2169" result="effect2_dropShadow_553_2169"/>
<feBlend mode="normal" in="SourceGraphic" in2="effect2_dropShadow_553_2169" result="shape"/>
</filter>
<clipPath id="clip0_553_2169">
<rect width="24" height="24" fill="white" transform="translate(282 22)"/>
</clipPath>
</defs>
</svg>
