<svg width="158" height="158" viewBox="0 0 158 158" fill="none" xmlns="http://www.w3.org/2000/svg">
<g filter="url(#filter0_dd_528_1839)">
<rect x="10" y="10" width="136" height="136" rx="10" fill="#FEFEFE"/>
</g>
<path d="M67.896 116.424C68.328 116.424 68.7067 116.368 69.032 116.256C69.3627 116.144 69.6373 115.987 69.856 115.784C70.08 115.576 70.248 115.331 70.36 115.048C70.472 114.76 70.528 114.443 70.528 114.096C70.528 113.397 70.3093 112.848 69.872 112.448C69.44 112.048 68.7813 111.848 67.896 111.848H66.12V116.424H67.896ZM67.896 110.512C68.632 110.512 69.272 110.597 69.816 110.768C70.36 110.939 70.8107 111.181 71.168 111.496C71.5253 111.805 71.7893 112.181 71.96 112.624C72.136 113.067 72.224 113.557 72.224 114.096C72.224 114.635 72.1307 115.131 71.944 115.584C71.7573 116.032 71.4827 116.419 71.12 116.744C70.7573 117.069 70.304 117.323 69.76 117.504C69.2213 117.68 68.6 117.768 67.896 117.768H66.12V122H64.416V110.512H67.896ZM84.1275 116.256C84.1275 117.115 83.9888 117.896 83.7115 118.6C83.4395 119.304 83.0528 119.909 82.5515 120.416C82.0502 120.917 81.4502 121.307 80.7515 121.584C80.0528 121.861 79.2768 122 78.4235 122H74.1035V110.512H78.4235C79.2768 110.512 80.0528 110.651 80.7515 110.928C81.4502 111.205 82.0502 111.597 82.5515 112.104C83.0528 112.605 83.4395 113.211 83.7115 113.92C83.9888 114.624 84.1275 115.403 84.1275 116.256ZM82.3835 116.256C82.3835 115.573 82.2902 114.963 82.1035 114.424C81.9168 113.88 81.6502 113.421 81.3035 113.048C80.9622 112.669 80.5462 112.381 80.0555 112.184C79.5702 111.987 79.0262 111.888 78.4235 111.888H75.8155V120.624H78.4235C79.0262 120.624 79.5702 120.525 80.0555 120.328C80.5462 120.131 80.9622 119.845 81.3035 119.472C81.6502 119.093 81.9168 118.635 82.1035 118.096C82.2902 117.557 82.3835 116.944 82.3835 116.256ZM87.9874 111.896V115.744H92.5954V117.128H87.9874V122H86.2754V110.512H93.3954V111.896H87.9874Z" fill="#D4001A"/>
<path d="M90.15 45.108L98.496 53.808V86.892H67.3185V87H98.6025V53.9175L90.15 45.108Z" fill="#909090"/>
<path d="M90.0465 45H67.212V86.892H98.496V53.8095L90.045 45" fill="#F4F4F4"/>
<path d="M66.9825 47.25H57.3975V57.4905H87.5475V47.25H66.9825Z" fill="#7A7B7C"/>
<path d="M87.708 57.3165H57.5925V47.0685H87.708V57.3165Z" fill="#064494"/>
<path d="M67.5781 48.801H65.6176V56.001H67.1596V53.5725L67.5001 53.592C67.8309 53.5863 68.1587 53.527 68.4706 53.4165C68.744 53.3224 68.9956 53.174 69.2101 52.98C69.4283 52.7952 69.6004 52.562 69.7126 52.299C69.863 51.8617 69.9167 51.397 69.8701 50.937C69.8607 50.6084 69.8031 50.2829 69.6991 49.971C69.6044 49.7459 69.4638 49.5429 69.2864 49.375C69.109 49.2072 68.8986 49.0781 68.6686 48.996C68.4697 48.924 68.2642 48.8717 68.0551 48.84C67.8967 48.8156 67.7368 48.8025 67.5766 48.801H67.5781ZM67.2931 52.242H67.1596V50.022H67.4491C67.5768 50.0128 67.705 50.0324 67.8242 50.0794C67.9434 50.1264 68.0505 50.1996 68.1376 50.2935C68.318 50.535 68.4144 50.829 68.4121 51.1305C68.4121 51.4995 68.4121 51.834 68.0791 52.0695C67.8392 52.2014 67.5661 52.2609 67.2931 52.2405" fill="#464648"/>
<path d="M72.7995 48.7815C72.633 48.7815 72.471 48.7935 72.357 48.798L72 48.807H70.83V56.007H72.207C72.7332 56.0214 73.2571 55.9322 73.749 55.7445C74.1448 55.5875 74.4954 55.3344 74.769 55.008C75.035 54.6787 75.2259 54.2953 75.3285 53.8845C75.4463 53.4193 75.5038 52.9409 75.4995 52.461C75.5286 51.8942 75.4847 51.3261 75.369 50.7705C75.2591 50.3615 75.0535 49.9846 74.769 49.671C74.5457 49.4177 74.2725 49.2135 73.9665 49.071C73.7036 48.9494 73.4271 48.8597 73.143 48.804C73.0299 48.7853 72.9155 48.7768 72.801 48.7785L72.7995 48.7815ZM72.528 54.684H72.378V50.088H72.3975C72.7067 50.0524 73.0196 50.1082 73.2975 50.2485C73.501 50.411 73.6668 50.6157 73.7835 50.8485C73.9094 51.0935 73.982 51.3624 73.9965 51.6375C74.01 51.9675 73.9965 52.2375 73.9965 52.461C74.0026 52.7185 73.986 52.976 73.947 53.2305C73.9007 53.4918 73.8153 53.7447 73.6935 53.9805C73.5556 54.1997 73.3693 54.3845 73.149 54.5205C72.9639 54.6402 72.7447 54.696 72.525 54.6795" fill="#464648"/>
<path d="M80.145 48.807H76.5V56.007H78.042V53.151H79.992V51.813H78.042V50.145H80.142V48.807" fill="#464648"/>
<path d="M86.6715 72.3825C86.6715 72.3825 91.4535 71.5155 91.4535 73.149C91.4535 74.7825 88.491 74.118 86.6715 72.3825ZM83.136 72.507C82.3763 72.6749 81.6358 72.9207 80.9265 73.2405L81.5265 71.8905C82.1265 70.5405 82.749 68.7 82.749 68.7C83.465 69.905 84.298 71.0365 85.236 72.078C84.5286 72.1835 83.8276 72.3277 83.136 72.51V72.507ZM81.243 62.757C81.243 61.3335 81.7035 60.945 82.062 60.945C82.4205 60.945 82.824 61.1175 82.8375 62.3535C82.7207 63.5963 82.4605 64.8215 82.062 66.0045C81.5162 65.0113 81.2337 63.8948 81.2415 62.7615L81.243 62.757ZM74.2695 78.531C72.8025 77.6535 77.346 74.952 78.1695 74.865C78.165 74.8665 75.8055 79.449 74.2695 78.531ZM92.85 73.3425C92.835 73.1925 92.7 71.532 89.745 71.6025C88.5133 71.5826 87.2822 71.6695 86.0655 71.862C84.8869 70.6746 83.872 69.3353 83.0475 67.8795C83.5669 66.3786 83.8813 64.8145 83.982 63.2295C83.9385 61.4295 83.508 60.3975 82.128 60.4125C80.748 60.4275 80.547 61.635 80.7285 63.432C80.9063 64.6396 81.2417 65.8186 81.726 66.939C81.726 66.939 81.0885 68.9235 80.2455 70.8975C79.4025 72.8715 78.8265 73.9065 78.8265 73.9065C77.3606 74.3837 75.9806 75.0927 74.739 76.0065C73.503 77.157 73.0005 78.0405 73.6515 78.924C74.2125 79.686 76.176 79.8585 77.931 77.559C78.8635 76.3713 79.7154 75.1225 80.481 73.821C80.481 73.821 83.157 73.0875 83.9895 72.8865C84.822 72.6855 85.8285 72.5265 85.8285 72.5265C85.8285 72.5265 88.272 74.985 90.6285 74.898C92.985 74.811 92.871 73.4895 92.856 73.3455" fill="#064494"/>
<path d="M89.931 45.1155V53.925H98.3805L89.931 45.1155Z" fill="#909090"/>
<path d="M90.0465 45V53.8095H98.496L90.0465 45Z" fill="#F4F4F4"/>
<path d="M67.4625 48.6855H65.502V55.8855H67.05V53.4585L67.392 53.478C67.7228 53.4723 68.0506 53.413 68.3625 53.3025C68.6359 53.2084 68.8874 53.0599 69.102 52.866C69.3186 52.6807 69.4891 52.4476 69.6 52.185C69.7504 51.7477 69.8041 51.283 69.7575 50.823C69.7481 50.4944 69.6905 50.1689 69.5865 49.857C69.4918 49.6319 69.3512 49.4289 69.1738 49.261C68.9964 49.0932 68.786 48.9641 68.556 48.882C68.3562 48.8093 68.1496 48.7565 67.9395 48.7245C67.7811 48.7001 67.6212 48.687 67.461 48.6855H67.4625ZM67.1775 52.1265H67.044V49.9065H67.335C67.4627 49.8973 67.5909 49.9169 67.7101 49.9639C67.8293 50.0109 67.9364 50.0841 68.0235 50.178C68.2039 50.4195 68.3003 50.7135 68.298 51.015C68.298 51.384 68.298 51.7185 67.965 51.954C67.7251 52.0859 67.452 52.1454 67.179 52.125" fill="white"/>
<path d="M72.684 48.666C72.5175 48.666 72.3555 48.678 72.2415 48.6825L71.889 48.6915H70.719V55.8915H72.096C72.6222 55.9059 73.1462 55.8167 73.638 55.629C74.0339 55.472 74.3844 55.2189 74.658 54.8925C74.924 54.5632 75.115 54.1798 75.2175 53.769C75.3353 53.3038 75.3928 52.8254 75.3885 52.3455C75.4176 51.7787 75.3737 51.2106 75.258 50.655C75.1482 50.246 74.9425 49.8691 74.658 49.5555C74.4348 49.3022 74.1615 49.098 73.8555 48.9555C73.5927 48.8339 73.3162 48.7442 73.032 48.6885C72.919 48.6698 72.8045 48.6613 72.69 48.663L72.684 48.666ZM72.417 54.5685H72.267V49.9725H72.2865C72.5957 49.9369 72.9086 49.9927 73.1865 50.133C73.39 50.2955 73.5558 50.5002 73.6725 50.733C73.7984 50.978 73.871 51.2469 73.8855 51.522C73.899 51.852 73.8855 52.122 73.8855 52.3455C73.8916 52.603 73.875 52.8604 73.836 53.115C73.7898 53.3763 73.7043 53.6292 73.5825 53.865C73.4446 54.0842 73.2584 54.269 73.038 54.405C72.8529 54.5247 72.6338 54.5805 72.414 54.564" fill="white"/>
<path d="M80.0295 48.6915H76.3845V55.8915H77.9265V53.0355H79.8765V51.6975H77.9265V50.0295H80.0265V48.6915" fill="white"/>
<defs>
<filter id="filter0_dd_528_1839" x="0" y="0" width="158" height="158" filterUnits="userSpaceOnUse" color-interpolation-filters="sRGB">
<feFlood flood-opacity="0" result="BackgroundImageFix"/>
<feColorMatrix in="SourceAlpha" type="matrix" values="0 0 0 0 0 0 0 0 0 0 0 0 0 0 0 0 0 0 127 0" result="hardAlpha"/>
<feOffset dx="4" dy="4"/>
<feGaussianBlur stdDeviation="4"/>
<feComposite in2="hardAlpha" operator="out"/>
<feColorMatrix type="matrix" values="0 0 0 0 0 0 0 0 0 0 0 0 0 0 0 0 0 0 0.15 0"/>
<feBlend mode="normal" in2="BackgroundImageFix" result="effect1_dropShadow_528_1839"/>
<feColorMatrix in="SourceAlpha" type="matrix" values="0 0 0 0 0 0 0 0 0 0 0 0 0 0 0 0 0 0 127 0" result="hardAlpha"/>
<feOffset dx="-2" dy="-2"/>
<feGaussianBlur stdDeviation="4"/>
<feComposite in2="hardAlpha" operator="out"/>
<feColorMatrix type="matrix" values="0 0 0 0 0 0 0 0 0 0 0 0 0 0 0 0 0 0 0.15 0"/>
<feBlend mode="normal" in2="effect1_dropShadow_528_1839" result="effect2_dropShadow_528_1839"/>
<feBlend mode="normal" in="SourceGraphic" in2="effect2_dropShadow_528_1839" result="shape"/>
</filter>
</defs>
</svg>
