<svg width="158" height="158" viewBox="0 0 158 158" fill="none" xmlns="http://www.w3.org/2000/svg">
<g filter="url(#filter0_dd_575_2209)">
<rect x="10" y="10" width="136" height="136" rx="10" fill="#FEFEFE"/>
</g>
<path d="M34.896 116.424C35.328 116.424 35.7067 116.368 36.032 116.256C36.3627 116.144 36.6373 115.987 36.856 115.784C37.08 115.576 37.248 115.331 37.36 115.048C37.472 114.76 37.528 114.443 37.528 114.096C37.528 113.397 37.3093 112.848 36.872 112.448C36.44 112.048 35.7813 111.848 34.896 111.848H33.12V116.424H34.896ZM34.896 110.512C35.632 110.512 36.272 110.597 36.816 110.768C37.36 110.939 37.8107 111.181 38.168 111.496C38.5253 111.805 38.7893 112.181 38.96 112.624C39.136 113.067 39.224 113.557 39.224 114.096C39.224 114.635 39.1307 115.131 38.944 115.584C38.7573 116.032 38.4827 116.419 38.12 116.744C37.7573 117.069 37.304 117.323 36.76 117.504C36.2213 117.68 35.6 117.768 34.896 117.768H33.12V122H31.416V110.512H34.896ZM42.2966 114.904C42.638 114.557 43.014 114.277 43.4246 114.064C43.8406 113.851 44.318 113.744 44.8566 113.744C45.3046 113.744 45.6966 113.819 46.0326 113.968C46.374 114.117 46.6593 114.328 46.8886 114.6C47.118 114.867 47.2913 115.189 47.4086 115.568C47.526 115.947 47.5846 116.365 47.5846 116.824V122H46.0166V116.824C46.0166 116.243 45.8833 115.792 45.6166 115.472C45.35 115.147 44.942 114.984 44.3926 114.984C43.9926 114.984 43.6166 115.08 43.2646 115.272C42.918 115.459 42.5953 115.715 42.2966 116.04V122H40.7366V110.192H42.2966V114.904ZM53.1538 113.744C53.7511 113.744 54.2898 113.843 54.7698 114.04C55.2551 114.232 55.6658 114.512 56.0018 114.88C56.3431 115.243 56.6044 115.683 56.7858 116.2C56.9671 116.712 57.0578 117.288 57.0578 117.928C57.0578 118.568 56.9671 119.147 56.7858 119.664C56.6044 120.181 56.3431 120.621 56.0018 120.984C55.6658 121.347 55.2551 121.627 54.7698 121.824C54.2898 122.016 53.7511 122.112 53.1538 122.112C52.5511 122.112 52.0071 122.016 51.5218 121.824C51.0418 121.627 50.6311 121.347 50.2898 120.984C49.9484 120.621 49.6844 120.181 49.4978 119.664C49.3164 119.147 49.2258 118.568 49.2258 117.928C49.2258 117.288 49.3164 116.712 49.4978 116.2C49.6844 115.683 49.9484 115.243 50.2898 114.88C50.6311 114.512 51.0418 114.232 51.5218 114.04C52.0071 113.843 52.5511 113.744 53.1538 113.744ZM53.1538 120.896C53.9218 120.896 54.4951 120.637 54.8738 120.12C55.2524 119.603 55.4418 118.875 55.4418 117.936C55.4418 116.997 55.2524 116.269 54.8738 115.752C54.4951 115.229 53.9218 114.968 53.1538 114.968C52.3751 114.968 51.7938 115.229 51.4098 115.752C51.0311 116.269 50.8418 116.997 50.8418 117.936C50.8418 118.875 51.0311 119.603 51.4098 120.12C51.7938 120.637 52.3751 120.896 53.1538 120.896ZM61.1869 122.128C60.5309 122.128 60.0242 121.944 59.6669 121.576C59.3149 121.208 59.1389 120.683 59.1389 120V115.136H58.1949C58.1042 115.136 58.0269 115.109 57.9629 115.056C57.9042 114.997 57.8749 114.912 57.8749 114.8V114.168L59.1949 113.984L59.5469 111.56C59.5682 111.469 59.6082 111.4 59.6669 111.352C59.7309 111.299 59.8109 111.272 59.9069 111.272H60.6989V114H63.0029V115.136H60.6989V119.896C60.6989 120.216 60.7762 120.456 60.9309 120.616C61.0909 120.771 61.2935 120.848 61.5389 120.848C61.6829 120.848 61.8055 120.829 61.9069 120.792C62.0135 120.755 62.1042 120.715 62.1789 120.672C62.2535 120.624 62.3175 120.581 62.3709 120.544C62.4242 120.507 62.4722 120.488 62.5149 120.488C62.5682 120.488 62.6082 120.501 62.6349 120.528C62.6669 120.549 62.6989 120.587 62.7309 120.64L63.1949 121.392C62.9389 121.627 62.6349 121.808 62.2829 121.936C61.9309 122.064 61.5655 122.128 61.1869 122.128ZM67.8569 113.744C68.4542 113.744 68.9929 113.843 69.4729 114.04C69.9582 114.232 70.3689 114.512 70.7049 114.88C71.0462 115.243 71.3075 115.683 71.4889 116.2C71.6702 116.712 71.7609 117.288 71.7609 117.928C71.7609 118.568 71.6702 119.147 71.4889 119.664C71.3075 120.181 71.0462 120.621 70.7049 120.984C70.3689 121.347 69.9582 121.627 69.4729 121.824C68.9929 122.016 68.4542 122.112 67.8569 122.112C67.2542 122.112 66.7102 122.016 66.2249 121.824C65.7449 121.627 65.3342 121.347 64.9929 120.984C64.6515 120.621 64.3875 120.181 64.2009 119.664C64.0195 119.147 63.9289 118.568 63.9289 117.928C63.9289 117.288 64.0195 116.712 64.2009 116.2C64.3875 115.683 64.6515 115.243 64.9929 114.88C65.3342 114.512 65.7449 114.232 66.2249 114.04C66.7102 113.843 67.2542 113.744 67.8569 113.744ZM67.8569 120.896C68.6249 120.896 69.1982 120.637 69.5769 120.12C69.9555 119.603 70.1449 118.875 70.1449 117.936C70.1449 116.997 69.9555 116.269 69.5769 115.752C69.1982 115.229 68.6249 114.968 67.8569 114.968C67.0782 114.968 66.4969 115.229 66.1129 115.752C65.7342 116.269 65.5449 116.997 65.5449 117.936C65.5449 118.875 65.7342 119.603 66.1129 120.12C66.4969 120.637 67.0782 120.896 67.8569 120.896ZM80.0931 122.128C79.4371 122.128 78.9305 121.944 78.5731 121.576C78.2211 121.208 78.0451 120.683 78.0451 120V115.136H77.1011C77.0105 115.136 76.9331 115.109 76.8691 115.056C76.8105 114.997 76.7811 114.912 76.7811 114.8V114.168L78.1011 113.984L78.4531 111.56C78.4745 111.469 78.5145 111.4 78.5731 111.352C78.6371 111.299 78.7171 111.272 78.8131 111.272H79.6051V114H81.9091V115.136H79.6051V119.896C79.6051 120.216 79.6825 120.456 79.8371 120.616C79.9971 120.771 80.1998 120.848 80.4451 120.848C80.5891 120.848 80.7118 120.829 80.8131 120.792C80.9198 120.755 81.0105 120.715 81.0851 120.672C81.1598 120.624 81.2238 120.581 81.2771 120.544C81.3305 120.507 81.3785 120.488 81.4211 120.488C81.4745 120.488 81.5145 120.501 81.5411 120.528C81.5731 120.549 81.6051 120.587 81.6371 120.64L82.1011 121.392C81.8451 121.627 81.5411 121.808 81.1891 121.936C80.8371 122.064 80.4718 122.128 80.0931 122.128ZM86.7631 113.744C87.3605 113.744 87.8991 113.843 88.3791 114.04C88.8645 114.232 89.2751 114.512 89.6111 114.88C89.9525 115.243 90.2138 115.683 90.3951 116.2C90.5765 116.712 90.6671 117.288 90.6671 117.928C90.6671 118.568 90.5765 119.147 90.3951 119.664C90.2138 120.181 89.9525 120.621 89.6111 120.984C89.2751 121.347 88.8645 121.627 88.3791 121.824C87.8991 122.016 87.3605 122.112 86.7631 122.112C86.1605 122.112 85.6165 122.016 85.1311 121.824C84.6511 121.627 84.2405 121.347 83.8991 120.984C83.5578 120.621 83.2938 120.181 83.1071 119.664C82.9258 119.147 82.8351 118.568 82.8351 117.928C82.8351 117.288 82.9258 116.712 83.1071 116.2C83.2938 115.683 83.5578 115.243 83.8991 114.88C84.2405 114.512 84.6511 114.232 85.1311 114.04C85.6165 113.843 86.1605 113.744 86.7631 113.744ZM86.7631 120.896C87.5311 120.896 88.1045 120.637 88.4831 120.12C88.8618 119.603 89.0511 118.875 89.0511 117.936C89.0511 116.997 88.8618 116.269 88.4831 115.752C88.1045 115.229 87.5311 114.968 86.7631 114.968C85.9845 114.968 85.4031 115.229 85.0191 115.752C84.6405 116.269 84.4511 116.997 84.4511 117.936C84.4511 118.875 84.6405 119.603 85.0191 120.12C85.4031 120.637 85.9845 120.896 86.7631 120.896ZM100.255 116.424C100.687 116.424 101.066 116.368 101.391 116.256C101.722 116.144 101.997 115.987 102.215 115.784C102.439 115.576 102.607 115.331 102.719 115.048C102.831 114.76 102.887 114.443 102.887 114.096C102.887 113.397 102.669 112.848 102.231 112.448C101.799 112.048 101.141 111.848 100.255 111.848H98.4794V116.424H100.255ZM100.255 110.512C100.991 110.512 101.631 110.597 102.175 110.768C102.719 110.939 103.17 111.181 103.527 111.496C103.885 111.805 104.149 112.181 104.319 112.624C104.495 113.067 104.583 113.557 104.583 114.096C104.583 114.635 104.49 115.131 104.303 115.584C104.117 116.032 103.842 116.419 103.479 116.744C103.117 117.069 102.663 117.323 102.119 117.504C101.581 117.68 100.959 117.768 100.255 117.768H98.4794V122H96.7754V110.512H100.255ZM116.487 116.256C116.487 117.115 116.348 117.896 116.071 118.6C115.799 119.304 115.412 119.909 114.911 120.416C114.41 120.917 113.81 121.307 113.111 121.584C112.412 121.861 111.636 122 110.783 122H106.463V110.512H110.783C111.636 110.512 112.412 110.651 113.111 110.928C113.81 111.205 114.41 111.597 114.911 112.104C115.412 112.605 115.799 113.211 116.071 113.92C116.348 114.624 116.487 115.403 116.487 116.256ZM114.743 116.256C114.743 115.573 114.65 114.963 114.463 114.424C114.276 113.88 114.01 113.421 113.663 113.048C113.322 112.669 112.906 112.381 112.415 112.184C111.93 111.987 111.386 111.888 110.783 111.888H108.175V120.624H110.783C111.386 120.624 111.93 120.525 112.415 120.328C112.906 120.131 113.322 119.845 113.663 119.472C114.01 119.093 114.276 118.635 114.463 118.096C114.65 117.557 114.743 116.944 114.743 116.256ZM120.347 111.896V115.744H124.955V117.128H120.347V122H118.635V110.512H125.755V111.896H120.347Z" fill="#D4001A"/>
<path d="M88.5 50.3882V65.6117H67.5V50.3882H88.5Z" fill="#064494"/>
<path d="M84.174 52.4058C83.7873 52.3241 83.384 52.3841 83.0377 52.5747C82.6914 52.7653 82.425 53.0739 82.2871 53.4444C82.1491 53.8148 82.1488 54.2225 82.286 54.5932C82.4233 54.9639 82.6891 55.273 83.0351 55.4642C83.381 55.6555 83.7842 55.7162 84.1711 55.6353C84.558 55.5543 84.9031 55.3372 85.1434 55.0233C85.3837 54.7095 85.5034 54.3198 85.4806 53.9251C85.4578 53.5305 85.2941 53.1571 85.0193 52.873C84.7901 52.6369 84.4959 52.4742 84.174 52.4058Z" fill="white"/>
<path d="M79.5832 61.075C78.2212 59.181 76.8587 57.2873 75.4957 55.3938L69.4342 63.8245H77.6092C78.2672 62.9085 78.9257 61.9928 79.5847 61.0773" fill="white"/>
<path d="M82.5427 58C81.1462 59.941 79.7502 61.8822 78.3547 63.8237H86.7315C85.336 61.8822 83.9397 59.941 82.5427 58Z" fill="white"/>
<path d="M54.5 50H58C58.275 50 58.5 49.775 58.5 49.5V38.5H69.5C69.775 38.5 70 38.275 70 38V34.5C70 34.225 69.775 34 69.5 34H58.25C55.9 34 54 35.9 54 38.25V49.5C54 49.775 54.225 50 54.5 50ZM86.5 38.5H97.5V49.5C97.5 49.775 97.725 50 98 50H101.5C101.775 50 102 49.775 102 49.5V38.25C102 35.9 100.1 34 97.75 34H86.5C86.225 34 86 34.225 86 34.5V38C86 38.275 86.225 38.5 86.5 38.5ZM69.5 77.5H58.5V66.5C58.5 66.225 58.275 66 58 66H54.5C54.225 66 54 66.225 54 66.5V77.75C54 80.1 55.9 82 58.25 82H69.5C69.775 82 70 81.775 70 81.5V78C70 77.725 69.775 77.5 69.5 77.5ZM101.5 66H98C97.725 66 97.5 66.225 97.5 66.5V77.5H86.5C86.225 77.5 86 77.725 86 78V81.5C86 81.775 86.225 82 86.5 82H97.75C100.1 82 102 80.1 102 77.75V66.5C102 66.225 101.775 66 101.5 66Z" fill="#064494"/>
<defs>
<filter id="filter0_dd_575_2209" x="0" y="0" width="158" height="158" filterUnits="userSpaceOnUse" color-interpolation-filters="sRGB">
<feFlood flood-opacity="0" result="BackgroundImageFix"/>
<feColorMatrix in="SourceAlpha" type="matrix" values="0 0 0 0 0 0 0 0 0 0 0 0 0 0 0 0 0 0 127 0" result="hardAlpha"/>
<feOffset dx="4" dy="4"/>
<feGaussianBlur stdDeviation="4"/>
<feComposite in2="hardAlpha" operator="out"/>
<feColorMatrix type="matrix" values="0 0 0 0 0 0 0 0 0 0 0 0 0 0 0 0 0 0 0.15 0"/>
<feBlend mode="normal" in2="BackgroundImageFix" result="effect1_dropShadow_575_2209"/>
<feColorMatrix in="SourceAlpha" type="matrix" values="0 0 0 0 0 0 0 0 0 0 0 0 0 0 0 0 0 0 127 0" result="hardAlpha"/>
<feOffset dx="-2" dy="-2"/>
<feGaussianBlur stdDeviation="4"/>
<feComposite in2="hardAlpha" operator="out"/>
<feColorMatrix type="matrix" values="0 0 0 0 0 0 0 0 0 0 0 0 0 0 0 0 0 0 0.15 0"/>
<feBlend mode="normal" in2="effect1_dropShadow_575_2209" result="effect2_dropShadow_575_2209"/>
<feBlend mode="normal" in="SourceGraphic" in2="effect2_dropShadow_575_2209" result="shape"/>
</filter>
</defs>
</svg>
