<svg width="158" height="158" viewBox="0 0 158 158" fill="none" xmlns="http://www.w3.org/2000/svg">
<g filter="url(#filter0_dd_707_1799)">
<rect x="10" y="10" width="136" height="136" rx="10" fill="#FEFEFE"/>
</g>
<path d="M57.896 116.424C58.328 116.424 58.7067 116.368 59.032 116.256C59.3627 116.144 59.6373 115.987 59.856 115.784C60.08 115.576 60.248 115.331 60.36 115.048C60.472 114.76 60.528 114.443 60.528 114.096C60.528 113.397 60.3093 112.848 59.872 112.448C59.44 112.048 58.7813 111.848 57.896 111.848H56.12V116.424H57.896ZM57.896 110.512C58.632 110.512 59.272 110.597 59.816 110.768C60.36 110.939 60.8107 111.181 61.168 111.496C61.5253 111.805 61.7893 112.181 61.96 112.624C62.136 113.067 62.224 113.557 62.224 114.096C62.224 114.635 62.1307 115.131 61.944 115.584C61.7573 116.032 61.4827 116.419 61.12 116.744C60.7573 117.069 60.304 117.323 59.76 117.504C59.2213 117.68 58.6 117.768 57.896 117.768H56.12V122H54.416V110.512H57.896ZM65.2966 114.904C65.638 114.557 66.014 114.277 66.4246 114.064C66.8406 113.851 67.318 113.744 67.8566 113.744C68.3046 113.744 68.6966 113.819 69.0326 113.968C69.374 114.117 69.6593 114.328 69.8886 114.6C70.118 114.867 70.2913 115.189 70.4086 115.568C70.526 115.947 70.5846 116.365 70.5846 116.824V122H69.0166V116.824C69.0166 116.243 68.8833 115.792 68.6166 115.472C68.35 115.147 67.942 114.984 67.3926 114.984C66.9926 114.984 66.6166 115.08 66.2646 115.272C65.918 115.459 65.5953 115.715 65.2966 116.04V122H63.7366V110.192H65.2966V114.904ZM76.1538 113.744C76.7511 113.744 77.2898 113.843 77.7698 114.04C78.2551 114.232 78.6658 114.512 79.0018 114.88C79.3431 115.243 79.6044 115.683 79.7858 116.2C79.9671 116.712 80.0578 117.288 80.0578 117.928C80.0578 118.568 79.9671 119.147 79.7858 119.664C79.6044 120.181 79.3431 120.621 79.0018 120.984C78.6658 121.347 78.2551 121.627 77.7698 121.824C77.2898 122.016 76.7511 122.112 76.1538 122.112C75.5511 122.112 75.0071 122.016 74.5218 121.824C74.0418 121.627 73.6311 121.347 73.2898 120.984C72.9484 120.621 72.6844 120.181 72.4978 119.664C72.3164 119.147 72.2258 118.568 72.2258 117.928C72.2258 117.288 72.3164 116.712 72.4978 116.2C72.6844 115.683 72.9484 115.243 73.2898 114.88C73.6311 114.512 74.0418 114.232 74.5218 114.04C75.0071 113.843 75.5511 113.744 76.1538 113.744ZM76.1538 120.896C76.9218 120.896 77.4951 120.637 77.8738 120.12C78.2524 119.603 78.4418 118.875 78.4418 117.936C78.4418 116.997 78.2524 116.269 77.8738 115.752C77.4951 115.229 76.9218 114.968 76.1538 114.968C75.3751 114.968 74.7938 115.229 74.4098 115.752C74.0311 116.269 73.8418 116.997 73.8418 117.936C73.8418 118.875 74.0311 119.603 74.4098 120.12C74.7938 120.637 75.3751 120.896 76.1538 120.896ZM84.1869 122.128C83.5309 122.128 83.0242 121.944 82.6669 121.576C82.3149 121.208 82.1389 120.683 82.1389 120V115.136H81.1949C81.1042 115.136 81.0269 115.109 80.9629 115.056C80.9042 114.997 80.8749 114.912 80.8749 114.8V114.168L82.1949 113.984L82.5469 111.56C82.5682 111.469 82.6082 111.4 82.6669 111.352C82.7309 111.299 82.8109 111.272 82.9069 111.272H83.6989V114H86.0029V115.136H83.6989V119.896C83.6989 120.216 83.7762 120.456 83.9309 120.616C84.0909 120.771 84.2935 120.848 84.5389 120.848C84.6829 120.848 84.8055 120.829 84.9069 120.792C85.0135 120.755 85.1042 120.715 85.1789 120.672C85.2535 120.624 85.3175 120.581 85.3709 120.544C85.4242 120.507 85.4722 120.488 85.5149 120.488C85.5682 120.488 85.6082 120.501 85.6349 120.528C85.6669 120.549 85.6989 120.587 85.7309 120.64L86.1949 121.392C85.9389 121.627 85.6349 121.808 85.2829 121.936C84.9309 122.064 84.5655 122.128 84.1869 122.128ZM90.8569 113.744C91.4542 113.744 91.9929 113.843 92.4729 114.04C92.9582 114.232 93.3689 114.512 93.7049 114.88C94.0462 115.243 94.3075 115.683 94.4889 116.2C94.6702 116.712 94.7609 117.288 94.7609 117.928C94.7609 118.568 94.6702 119.147 94.4889 119.664C94.3075 120.181 94.0462 120.621 93.7049 120.984C93.3689 121.347 92.9582 121.627 92.4729 121.824C91.9929 122.016 91.4542 122.112 90.8569 122.112C90.2542 122.112 89.7102 122.016 89.2249 121.824C88.7449 121.627 88.3342 121.347 87.9929 120.984C87.6515 120.621 87.3875 120.181 87.2009 119.664C87.0195 119.147 86.9289 118.568 86.9289 117.928C86.9289 117.288 87.0195 116.712 87.2009 116.2C87.3875 115.683 87.6515 115.243 87.9929 114.88C88.3342 114.512 88.7449 114.232 89.2249 114.04C89.7102 113.843 90.2542 113.744 90.8569 113.744ZM90.8569 120.896C91.6249 120.896 92.1982 120.637 92.5769 120.12C92.9555 119.603 93.1449 118.875 93.1449 117.936C93.1449 116.997 92.9555 116.269 92.5769 115.752C92.1982 115.229 91.6249 114.968 90.8569 114.968C90.0782 114.968 89.4969 115.229 89.1129 115.752C88.7342 116.269 88.5449 116.997 88.5449 117.936C88.5449 118.875 88.7342 119.603 89.1129 120.12C89.4969 120.637 90.0782 120.896 90.8569 120.896ZM101.294 115.272C101.252 115.341 101.206 115.392 101.158 115.424C101.11 115.451 101.049 115.464 100.974 115.464C100.889 115.464 100.793 115.435 100.686 115.376C100.585 115.317 100.46 115.253 100.31 115.184C100.166 115.115 99.9956 115.051 99.7983 114.992C99.6009 114.933 99.3663 114.904 99.0943 114.904C98.8703 114.904 98.6649 114.933 98.4783 114.992C98.2969 115.045 98.1423 115.123 98.0143 115.224C97.8863 115.32 97.7876 115.437 97.7183 115.576C97.6489 115.709 97.6143 115.853 97.6143 116.008C97.6143 116.211 97.6729 116.379 97.7903 116.512C97.9129 116.645 98.0703 116.76 98.2623 116.856C98.4596 116.952 98.6809 117.04 98.9263 117.12C99.1769 117.195 99.4303 117.275 99.6863 117.36C99.9476 117.445 100.201 117.544 100.446 117.656C100.697 117.763 100.918 117.899 101.11 118.064C101.308 118.224 101.465 118.419 101.582 118.648C101.705 118.877 101.766 119.157 101.766 119.488C101.766 119.867 101.697 120.219 101.558 120.544C101.425 120.864 101.225 121.141 100.958 121.376C100.697 121.611 100.372 121.795 99.9823 121.928C99.5929 122.061 99.1476 122.128 98.6463 122.128C98.0863 122.128 97.5689 122.035 97.0943 121.848C96.6196 121.661 96.2223 121.424 95.9023 121.136L96.2703 120.536C96.3129 120.461 96.3663 120.405 96.4303 120.368C96.4943 120.325 96.5796 120.304 96.6863 120.304C96.7876 120.304 96.8916 120.341 96.9983 120.416C97.1049 120.491 97.2329 120.573 97.3823 120.664C97.5316 120.749 97.7129 120.829 97.9263 120.904C98.1396 120.973 98.4063 121.008 98.7263 121.008C98.9929 121.008 99.2249 120.976 99.4223 120.912C99.6196 120.843 99.7823 120.752 99.9103 120.64C100.044 120.523 100.142 120.389 100.206 120.24C100.27 120.091 100.302 119.933 100.302 119.768C100.302 119.555 100.241 119.379 100.118 119.24C100.001 119.096 99.8436 118.973 99.6463 118.872C99.4543 118.771 99.2329 118.683 98.9823 118.608C98.7316 118.533 98.4756 118.453 98.2143 118.368C97.9529 118.283 97.6969 118.184 97.4463 118.072C97.1956 117.96 96.9716 117.819 96.7743 117.648C96.5823 117.477 96.4249 117.269 96.3023 117.024C96.1849 116.779 96.1263 116.48 96.1263 116.128C96.1263 115.813 96.1903 115.512 96.3183 115.224C96.4516 114.936 96.6409 114.683 96.8863 114.464C97.1369 114.245 97.4436 114.072 97.8063 113.944C98.1743 113.811 98.5929 113.744 99.0623 113.744C99.6009 113.744 100.086 113.829 100.518 114C100.956 114.171 101.329 114.405 101.638 114.704L101.294 115.272Z" fill="#D4001A"/>
<g clip-path="url(#clip0_707_1799)">
<path d="M66.045 52.6882H56.418C56.3385 52.6882 56.2725 52.7272 56.2725 52.7737V58.2787C56.2725 58.3252 56.3385 58.3642 56.418 58.3642H66.045C66.0794 58.3657 66.1136 58.358 66.144 58.3417L66.1485 58.3387C66.1485 58.3387 66.1515 58.3387 66.1515 58.3372C66.177 58.3237 66.192 58.3027 66.192 58.2787V54.7785V52.773C66.192 52.7272 66.126 52.6882 66.045 52.6882Z" fill="#25333A"/>
<path d="M101.348 55.0012H54.705C54.318 55.0012 53.997 55.1917 53.997 55.4167V82.0867C53.997 82.3117 54.318 82.5007 54.7043 82.5007H101.347C101.555 82.5007 101.717 82.4542 101.831 82.3905C101.831 82.3905 101.84 82.3845 101.846 82.3777C101.856 82.3777 101.861 82.3717 101.864 82.362C101.978 82.299 102.056 82.2052 102.056 82.0867V65.1225V55.4167C102.054 55.1917 101.732 55.0012 101.347 55.0012" fill="#064494"/>
<path d="M101.453 59.544H61.6613C61.3328 59.544 61.059 59.703 61.059 59.8898V82.1557C61.059 82.3447 61.3335 82.5007 61.6613 82.5007H101.454C101.63 82.5007 101.768 82.464 101.864 82.4077L101.877 82.3972C101.877 82.3972 101.891 82.3912 101.894 82.3852C101.992 82.3312 102.056 82.2533 102.056 82.1542V67.9912V59.8883C102.054 59.703 101.779 59.544 101.453 59.544Z" fill="#064494"/>
<path d="M101.453 59.544H61.6613C61.3328 59.544 61.059 59.703 61.059 59.8898V82.1557C61.059 82.3447 61.3335 82.5007 61.6613 82.5007H101.454C101.63 82.5007 101.768 82.464 101.864 82.4077L101.877 82.3972C101.877 82.3972 101.891 82.3912 101.894 82.3852C101.992 82.3312 102.056 82.2533 102.056 82.1542V67.9912V59.8883C102.054 59.703 101.779 59.544 101.453 59.544Z" fill="black" fill-opacity="0.2"/>
<path d="M100.26 57.351H90.6323C90.5543 57.351 90.4868 57.39 90.4868 57.4365V62.9415C90.4868 62.988 90.5543 63.027 90.6323 63.027H100.26C100.294 63.0285 100.328 63.0207 100.358 63.0045L100.363 63.0015C100.363 63.0015 100.366 63.0015 100.366 63C100.392 62.9865 100.407 62.9655 100.407 62.9415V59.442V57.4365C100.406 57.3908 100.34 57.351 100.26 57.351Z" fill="#56787F"/>
<path d="M87.9525 68.751C87.9525 74.1405 83.586 78.501 78.2025 78.501C72.819 78.501 68.4525 74.1397 68.4525 68.751C68.4525 63.3645 72.8198 59.0033 78.2025 59.0033C83.5853 59.0033 87.9525 63.3645 87.9525 68.751Z" fill="#D1D2D3"/>
<path d="M86.961 68.751C86.961 73.5907 83.0378 77.5095 78.2025 77.5095C73.3673 77.5095 69.4448 73.5907 69.4448 68.751C69.4448 63.9112 73.3673 59.994 78.2025 59.994C83.0378 59.994 86.961 63.9112 86.961 68.751Z" fill="#A7A8AC"/>
<path d="M85.9995 68.751C85.9995 73.059 82.5075 76.5472 78.2025 76.5472C73.8997 76.5472 70.407 73.0605 70.407 68.751C70.407 64.4437 73.899 60.9555 78.2025 60.9555C82.5075 60.9555 85.9995 64.4437 85.9995 68.751Z" fill="#1E75BB"/>
<path d="M85.035 68.751C85.035 72.5235 81.9765 75.5872 78.2003 75.5872C74.4278 75.5872 71.367 72.5265 71.367 68.751C71.367 64.9785 74.4263 61.9185 78.2003 61.9185C81.9728 61.9185 85.035 64.9777 85.035 68.751Z" fill="#57C6E9"/>
<path d="M74.6205 70.7325C73.4093 68.1353 73.3553 65.3393 74.4495 63.0278C73.5028 63.6489 72.7255 64.496 72.1878 65.4925C71.65 66.489 71.3687 67.6037 71.3693 68.736C71.3693 72.5085 74.4285 75.5708 78.2025 75.5708C78.27 75.5708 78.336 75.561 78.4035 75.5595C76.8375 74.2387 75.5168 72.6533 74.6235 70.7325" fill="#27A8E0"/>
<path d="M99.93 56.9047H90.9637C90.888 56.9047 90.8265 56.9407 90.8265 56.9842V62.112C90.8265 62.1555 90.888 62.1915 90.9637 62.1915H99.93C99.9613 62.1928 99.9924 62.1856 100.02 62.1705L100.025 62.1675C100.025 62.1675 100.029 62.1675 100.029 62.166C100.052 62.154 100.066 62.1345 100.066 62.112V58.8517V56.9842C100.066 56.9407 100.005 56.9047 99.93 56.9047Z" fill="#57C6E9"/>
</g>
<defs>
<filter id="filter0_dd_707_1799" x="0" y="0" width="158" height="158" filterUnits="userSpaceOnUse" color-interpolation-filters="sRGB">
<feFlood flood-opacity="0" result="BackgroundImageFix"/>
<feColorMatrix in="SourceAlpha" type="matrix" values="0 0 0 0 0 0 0 0 0 0 0 0 0 0 0 0 0 0 127 0" result="hardAlpha"/>
<feOffset dx="4" dy="4"/>
<feGaussianBlur stdDeviation="4"/>
<feComposite in2="hardAlpha" operator="out"/>
<feColorMatrix type="matrix" values="0 0 0 0 0 0 0 0 0 0 0 0 0 0 0 0 0 0 0.15 0"/>
<feBlend mode="normal" in2="BackgroundImageFix" result="effect1_dropShadow_707_1799"/>
<feColorMatrix in="SourceAlpha" type="matrix" values="0 0 0 0 0 0 0 0 0 0 0 0 0 0 0 0 0 0 127 0" result="hardAlpha"/>
<feOffset dx="-2" dy="-2"/>
<feGaussianBlur stdDeviation="4"/>
<feComposite in2="hardAlpha" operator="out"/>
<feColorMatrix type="matrix" values="0 0 0 0 0 0 0 0 0 0 0 0 0 0 0 0 0 0 0.15 0"/>
<feBlend mode="normal" in2="effect1_dropShadow_707_1799" result="effect2_dropShadow_707_1799"/>
<feBlend mode="normal" in="SourceGraphic" in2="effect2_dropShadow_707_1799" result="shape"/>
</filter>
<clipPath id="clip0_707_1799">
<rect width="48" height="48" fill="white" transform="translate(54 42)"/>
</clipPath>
</defs>
</svg>
