<svg width="118" height="121" viewBox="0 0 118 121" fill="none" xmlns="http://www.w3.org/2000/svg">
<path fill-rule="evenodd" clip-rule="evenodd" d="M33.6387 72.6286C36.2775 72.9577 39.2458 70.9375 41.0566 69.2993C41.4305 68.961 41.6741 68.7126 42.0252 68.4151C42.3918 68.1045 42.6322 67.8189 42.982 67.5154C44.1071 66.5389 46.6037 63.8371 47.582 63.0381L49.7463 61.5016C50.1077 61.2948 50.598 61.1451 50.9002 60.8512C50.5297 60.4672 50.079 59.9001 49.6701 59.5416C48.088 58.1549 47.4076 57.382 45.2062 56.2954C42.3566 54.8888 38.0446 53.759 35.4552 56.4689C34.8359 57.117 34.8722 57.1429 34.6388 58.2489C33.7607 62.4098 35.1705 67.6258 34.4463 70.8261C34.247 71.7072 33.9452 72.0416 33.6387 72.6286ZM81.7628 49.2286C82.0606 49.1417 81.9416 49.3616 81.9557 49.7465C81.964 49.9728 81.9402 50.3118 81.9301 50.5447L81.9451 51.9181L80.4218 52.5333C80.8276 53.4782 81.392 54.5103 81.5393 55.7062L85.3887 59.1128C85.8237 59.5135 86.1895 60.08 86.6456 60.3506C87.0551 58.9056 87.3962 57.0164 87.7277 55.5427C88.2753 53.1085 91.1648 42.5224 91.2191 41.1775C91.0204 40.6204 90.451 39.7033 90.1439 39.144C89.7776 38.4771 89.4423 37.7622 89.0315 37.1451C88.7156 37.6225 88.5636 38.1937 88.2175 38.7346C87.2506 40.2457 86.3041 41.5584 85.0494 42.8093C84.6255 43.2319 84.2711 43.6021 83.7697 44.0032C83.4975 44.2208 82.6048 44.7914 82.4027 45.0024C81.8257 45.6048 81.6761 48.1976 81.7628 49.2286ZM52.6395 45.6664C52.1876 45.7579 52.2408 46.086 51.8192 46.3574C51.5682 46.5188 51.0414 46.6941 50.7254 46.7905C49.7843 47.0778 48.8822 47.0855 47.8697 46.9697C47.65 47.1954 44.6453 48.1664 44.0771 48.3903C42.9273 48.8435 41.5094 49.4818 40.5402 50.0723C38.6406 51.2296 36.2139 53.4225 35.5306 55.5795C36.5928 54.9629 37.1984 54.3851 38.8297 54.2751C40.2496 54.1794 41.656 54.4852 42.9547 54.8534C45.6837 55.6272 47.1914 56.74 48.9513 58.1814C49.1901 58.377 49.3008 58.5356 49.5322 58.7329C50.4569 59.5216 50.033 59.2138 50.6729 59.8631L57.1213 67.5798C57.2452 67.7407 57.2479 67.7644 57.3905 67.9291L57.7228 68.2551L57.7911 67.3226C57.8539 63.2597 58.4049 59.4247 59.4453 55.7946C59.5879 55.2242 60.2432 54.1578 60.5451 53.6941C60.795 53.3102 60.9957 53.0121 61.2226 52.7139C61.4408 52.4274 61.7203 52.134 61.8967 51.9027L61.9111 50.5489C61.8999 50.3175 61.8759 49.9821 61.8861 49.7557C61.8913 49.6393 61.8966 49.5704 61.9189 49.4566C61.9587 49.2534 61.966 49.2764 62.0134 49.1964C62.2599 48.298 61.9735 46.5898 61.7463 45.7473C61.5485 45.0135 61.5005 45.031 60.9595 44.6652C60.5774 44.4069 60.2658 44.2197 59.9603 43.9074C59.1122 43.9191 57.1769 44.531 56.2455 44.76C55.1575 45.0274 53.6788 45.5365 52.6395 45.6664ZM0.596841 51.7403C0.389104 53.9077 2.18321 56.1528 3.38832 57.2996L5.83928 59.8034C6.98463 60.9109 9.6128 63.757 10.562 64.996C11.5791 66.3239 11.214 66.0422 11.7983 67.2285C13.6904 66.7989 16.9728 63.5656 17.7802 63.1066C17.5219 62.4294 16.5182 61.625 16.0157 61.0831C15.6944 60.7366 15.4229 60.4804 15.1053 60.1352C14.7656 59.7661 14.5809 59.4962 14.2257 59.1563C13.883 58.8283 13.6159 58.588 13.2605 58.264L11.3679 56.4446C9.55118 54.948 8.86162 54.0131 6.22528 52.3251C4.32048 51.1055 2.83198 50.6222 0.596841 51.7403ZM2.77206 64.9972C3.97285 65.2833 9.28314 68.3698 11.2046 67.5362C11.2669 66.1143 8.89904 63.9125 8.02702 62.8982C7.59436 62.3949 7.18785 61.9729 6.76716 61.4996C6.44926 61.641 2.97251 64.614 2.77206 64.9972ZM70.1525 65.0587C69.7861 67.2968 69.2436 69.6761 68.73 71.8751C68.4746 72.9685 68.2232 74.0801 67.9451 75.1605C67.7029 76.1011 67.186 77.5472 67.0988 78.418C67.0663 78.9039 67.5744 79.1563 68.242 79.6964C71.202 82.091 74.3695 84.6801 78.4803 84.5634C79.0959 84.5459 80.1166 84.1492 80.5157 84.2816C80.7401 84.0163 81.0657 83.451 81.2994 83.2691L84.6529 78.3162C84.34 78.1507 84.5087 78.4379 84.4911 77.9976L84.9049 76.971C85.2192 76.5123 85.5032 76.3582 85.7938 75.9949L85.7567 74.9256C85.1668 74.4591 84.595 74.1672 83.988 73.7741C80.8344 71.7316 78.7758 70.1896 75.9454 67.7287C74.5671 66.5303 74.2233 66.004 73.1431 65.0082C71.5745 65.4701 71.649 65.2123 70.1525 65.0587ZM53.2728 44.605L53.1736 44.9417L59.3356 43.4028C58.8213 42.7403 57.8689 42.0525 56.596 40.2574C56.3674 39.935 56.0773 39.386 55.8043 39.1366C54.9442 40.9109 54.1051 42.785 53.2728 44.605ZM46.7646 46.7259C45.5442 46.342 45.3704 45.8901 44.5589 45.253C44.1314 44.9174 42.9438 43.8172 42.692 43.4454C42.3029 43.2731 42.0645 43.1447 41.7983 42.8625C41.5488 42.5982 41.3728 42.4498 41.1419 42.0813C40.6791 41.6312 40.3929 41.2628 39.9567 40.8079C38.005 40.577 30.7712 41.1389 28.4921 41.3781C21.9041 42.0694 14.5459 43.2538 8.50533 45.7898C7.0491 46.4011 5.63798 47.0746 4.46456 47.8969C3.33595 48.6879 1.80228 49.7816 1.19145 50.8335C5.38342 49.8479 7.86952 52.9106 10.8613 55.2856C12.1015 56.2701 17.085 61.292 18.2109 62.6929L19.5638 64.2321C21.2545 66.0266 21.1567 66.9225 23.7416 68.939C26.0743 70.7587 28.882 72.0962 31.9066 72.5515C32.3722 72.6216 32.6958 72.7183 32.9939 72.4782C33.1838 72.3252 33.4764 71.9251 33.6133 71.6452C35.6676 67.4438 30.4243 56.8003 38.8889 50.5612C39.9438 49.7837 41.1792 49.0392 42.6061 48.4339C43.1323 48.2106 46.6322 46.9438 46.7646 46.7259Z" fill="#064494"/>
<path fill-rule="evenodd" clip-rule="evenodd" d="M59.4453 55.7944L61.2308 56.6368C61.7364 56.8443 63.4777 57.7661 63.652 58.1006C64.7299 58.5278 66.5879 60.4222 67.2804 61.1709C68.2584 62.2282 69.3984 63.5368 70.1526 65.0584C71.6491 65.212 71.5745 65.4698 73.1431 65.008C73.8284 63.1469 77.8064 57.9203 78.9449 57.4684C79.0975 57.2216 79.1373 57.1913 79.4324 57.0425C79.6462 56.7063 81.0211 55.8694 81.5393 55.7059C81.392 54.51 80.8276 53.478 80.4218 52.5331C78.3909 53.1419 76.244 54.0189 73.9154 54.1189C73.3293 54.2729 73.1551 54.6047 72.2286 54.6256C71.2432 54.6479 71.0946 54.3535 70.4349 54.2239C67.1931 54.0581 64.4762 53.1136 61.8968 51.9025C61.7203 52.1338 61.4408 52.4272 61.2227 52.7137C60.9957 53.0118 60.795 53.31 60.5452 53.6938C60.2433 54.1575 59.5879 55.224 59.4453 55.7944Z" fill="#020100"/>
<path fill-rule="evenodd" clip-rule="evenodd" d="M75.2056 10.5965C74.663 11.6777 72.2475 11.5967 72.4838 10.5567C72.7473 9.3978 74.6932 9.44869 75.2056 10.5965ZM67.1231 10.5965C67.5885 9.44737 69.5929 9.40766 69.8402 10.5617C70.0697 11.6329 67.6101 11.6431 67.1231 10.5965ZM65.8205 4.36798L65.4199 9.19714C65.2837 11.845 65.2775 14.3096 65.2545 16.9544L65.7853 18.2764C65.9712 18.5184 66.0724 18.8607 66.2518 19.172C66.4421 19.5023 66.6479 19.7716 66.81 20.0723C67.1504 20.5564 67.7235 21.3501 68.0736 21.6591C68.3404 21.5318 68.1269 21.7361 68.2062 21.3658C67.6133 20.7001 67.0865 17.3387 67.2445 16.1565C67.6775 12.9158 69.0552 13.1791 70.6593 13.1339C70.8022 12.7515 70.7891 12.4077 71.2281 12.3629C71.7273 12.3118 71.6596 12.6933 71.9485 13.0629C73.7516 13.1223 74.8528 13.3138 74.9417 16.0835C74.9944 17.7255 74.5572 19.9337 74.1465 21.4163C74.0895 22.0021 74.0991 21.5759 74.2444 21.7211C74.6201 21.4243 75.1313 20.7083 75.4735 20.2241C75.7581 19.8216 76.2618 18.758 76.4751 18.5321C76.6941 17.7405 77.0377 17.4093 77.0467 16.4083C77.0549 15.5013 77.0535 14.5678 77.0397 13.6614L76.7607 8.98657L76.4742 4.36719L76.1752 4.18768C75.56 4.7814 73.3968 4.93943 72.4371 5.02656C70.9507 5.16153 69.7608 5.02283 68.2777 4.92887L67.6217 5.56356L68.4711 7.60046L66.6738 5.43439L66.991 4.75764L65.8205 4.36798Z" fill="#D4001A"/>
<path fill-rule="evenodd" clip-rule="evenodd" d="M2.77225 64.9971C2.97269 64.614 6.44945 61.641 6.76734 61.4995C7.18803 61.9728 7.59454 62.3949 8.02721 62.8982C8.89924 63.9125 11.2671 66.1143 11.2048 67.5361C9.28331 68.3698 3.97304 65.2833 2.77225 64.9971ZM33.6389 72.6286C33.9454 72.0416 34.2472 71.7072 34.4465 70.8261C35.1707 67.6257 33.7609 62.4098 34.639 58.2489C34.8724 57.1428 34.8361 57.117 35.4554 56.4689C38.0448 53.759 42.3568 54.8887 45.2064 56.2953C47.4078 57.382 48.0882 58.1548 49.6703 59.5416C50.0792 59.9 50.5299 60.4671 50.9004 60.8511C50.5981 61.1451 50.1079 61.2948 49.7465 61.5016L47.5822 63.038C46.6039 63.837 44.1073 66.5389 42.9822 67.5153C42.6324 67.8189 42.392 68.1044 42.0254 68.415C41.6743 68.7126 41.4307 68.9609 41.0568 69.2992C39.246 70.9375 36.2777 72.9577 33.6389 72.6286ZM6.22546 52.3251C8.8618 54.0131 9.55136 54.9479 11.3681 56.4445L13.2607 58.2639C13.6161 58.588 13.8832 58.8282 14.2259 59.1563C14.581 59.4962 14.7658 59.7661 15.1055 60.1352C15.4231 60.4803 15.6946 60.7366 16.0159 61.083C16.5184 61.625 17.5221 62.4294 17.7804 63.1065C16.9729 63.5656 13.6906 66.7989 11.7985 67.2285C11.2142 66.0422 11.5793 66.3238 10.5622 64.996C9.613 63.7569 6.98482 60.9108 5.83947 59.8033L3.38851 57.2996C2.1834 56.1527 0.38929 53.9076 0.597034 51.7402C2.83217 50.6222 4.32066 51.1055 6.22546 52.3251ZM57.7448 69.22L57.7913 67.3225L57.723 68.255L57.3907 67.929C57.248 67.7644 57.2454 67.7406 57.1214 67.5798L50.6731 59.8631C50.0331 59.2138 50.4571 59.5216 49.5324 58.7329C49.301 58.5356 49.1903 58.377 48.9515 58.1814C47.1916 56.74 45.6839 55.6272 42.9548 54.8534C41.6562 54.4852 40.2498 54.1794 38.8299 54.2751C37.1985 54.385 36.5929 54.9629 35.5308 55.5795C36.2141 53.4225 38.6407 51.2295 40.5404 50.0722C41.5096 49.4817 42.9274 48.8434 44.0773 48.3903C44.6455 48.1664 47.6502 47.1954 47.8699 46.9697L46.7648 46.7259C46.6324 46.9437 43.1325 48.2106 42.6063 48.4338C41.1794 49.0391 39.944 49.7837 38.8891 50.5612C30.4245 56.8002 35.6678 67.4438 33.6135 71.6452C33.4766 71.9251 33.184 72.3251 32.9941 72.4781C32.696 72.7182 32.3724 72.6216 31.9068 72.5515C28.8822 72.0962 26.0745 70.7587 23.7418 68.9389C21.1569 66.9225 21.2547 66.0265 19.564 64.232L18.2111 62.6929C17.0851 61.2919 12.1017 56.27 10.8615 55.2856C7.86972 52.9106 5.38362 49.8478 1.19163 50.8335C1.80247 49.7816 3.33613 48.6878 4.46474 47.8969C5.63817 47.0746 7.04929 46.4011 8.50551 45.7897C14.546 43.2537 21.9043 42.0694 28.4923 41.378C30.7714 41.1389 38.0052 40.5769 39.9569 40.8079C39.829 40.5784 39.7816 40.5679 39.651 40.3603C39.0255 39.3655 39.3645 39.9926 39.0203 39.5507L38.7262 39.1028C38.5587 39.3664 38.8564 39.2046 38.3296 39.4216C38.3187 39.4261 37.9807 39.5198 37.935 39.5327C34.6426 40.4649 35.3622 40.2748 31.7128 40.5456C24.8941 41.0515 17.0488 42.238 10.7555 44.3412C7.87818 45.3029 4.76686 46.7682 2.51417 48.7054L0.460761 50.7812C-1.34193 53.2614 2.61242 57.2872 4.27012 59.0158C4.71606 59.4809 6.12638 60.6102 6.29775 61.2132C5.7201 61.5153 4.63622 62.5792 4.03884 63.0779C3.62359 63.4245 2.09395 64.6436 1.98839 65.0742C2.35214 65.5663 9.06437 68.4904 10.8754 68.2232C11.818 68.084 13.9815 66.7122 14.8136 66.119L18.154 63.4598C18.6941 63.768 20.8291 66.7459 21.2677 67.3044C23.9539 70.7244 30.6864 74.0971 35.5852 72.9825C38.9725 72.2118 41.4169 69.7878 43.8343 67.4547C44.1444 67.1554 44.3729 66.8509 44.687 66.5543C45.0127 66.2469 45.266 66.0122 45.5927 65.7056L47.3144 64.0237C47.9569 63.3626 50.2736 61.5055 51.4709 61.3573C51.6674 61.6633 52.0385 62.094 52.299 62.3868L54.6691 65.2893C55.1971 65.9197 55.6909 66.5773 56.2204 67.2551C56.7328 67.911 57.2423 68.6267 57.7448 69.22Z" fill="#102A83"/>
<path fill-rule="evenodd" clip-rule="evenodd" d="M68.7303 36.4628C69.4397 36.0899 73.7489 36.1177 74.4593 36.4628C74.3851 36.5206 74.4211 36.5223 74.2332 36.5813C73.5624 36.792 69.2045 36.8735 68.7303 36.4628ZM69.2357 30.4449C69.4884 30.1969 69.7748 29.9579 70.121 29.8359C70.785 30.6862 70.6923 30.0858 70.6817 31.2896C68.917 32.7335 70.1813 34.3366 71.418 34.4073C72.2786 34.4566 72.9452 33.9088 73.1166 33.2729C73.4906 31.8855 72.6133 31.7706 72.3321 31.1839C72.3321 30.3494 72.445 30.1816 72.9324 29.8275C73.2388 29.9718 73.585 30.1747 73.7741 30.4449C73.6759 30.8256 73.4118 30.9113 73.5119 31.1418C73.6741 31.5153 73.8911 31.2205 74.3448 31.1994C74.5525 31.5018 74.6675 31.8026 74.654 32.2397C74.2791 32.487 74.1769 32.2813 74.0284 32.662C74.2003 33.0792 74.2698 32.8674 74.7178 33.098L74.4365 34.1408C73.89 34.156 73.826 33.8943 73.579 34.1695C73.4198 34.347 73.6855 34.5778 73.8089 34.8791C73.5935 35.1968 73.2495 35.417 72.9324 35.4935C72.6767 35.2547 72.6626 35.0084 72.3597 35.0981C71.9098 35.2314 72.2812 35.3704 72.0245 35.8183L71.0154 35.8365C70.8787 35.4157 71.107 35.2213 70.7057 35.1288C70.4083 35.0603 70.3753 35.3305 70.1077 35.5402L69.2788 35.0178C69.3319 34.5063 69.5754 34.5296 69.4551 34.2764C69.3051 33.9607 69.0697 34.2254 68.5945 34.1209L68.3066 33.1422C68.7136 32.9147 68.9405 33.088 68.896 32.6747C68.8498 32.2467 68.7096 32.5741 68.3324 32.2397L68.6093 31.2331C69.0797 31.2288 69.6622 31.6046 69.4045 30.8781L69.2357 30.4449ZM71.1015 28.2989L71.1819 29.3603L71.8516 29.3789L71.923 28.3215C72.3464 28.4599 72.6187 28.8892 72.4039 29.4447C72.1824 30.0177 71.8864 29.6466 71.8864 30.6561C71.8864 31.6494 72.0311 32.8637 71.6828 33.3386C70.9856 33.3627 71.1239 32.9341 71.1314 32.242C71.1701 28.6649 70.8636 30.4111 70.5601 29.3372C70.4011 28.7747 70.7523 28.4186 71.1015 28.2989ZM70.103 26.8103C67.3965 27.3524 64.9388 30.0837 65.7095 33.6737C66.2971 36.4113 69.1721 38.7209 72.5004 38.0266C75.2151 37.4602 77.7415 34.7346 76.9719 31.1711C76.3101 28.1068 73.311 26.1677 70.103 26.8103Z" fill="#FEFEFE"/>
<path fill-rule="evenodd" clip-rule="evenodd" d="M35.8423 34.7732C36.9967 34.0031 37.6134 34.2632 37.9173 32.1253C37.7695 31.8549 37.9412 31.5075 37.9614 31.0801C38.0002 30.2598 37.7468 29.7657 37.3156 29.1854C36.3943 27.9453 38.8534 24.5326 36.5479 24.6865C35.7107 24.8582 35.3486 25.4901 35.0915 26.3231C34.6297 27.8195 35.3474 27.7007 35.141 28.8996C34.212 29.1488 32.2565 29.0776 31.2683 28.972C29.6899 28.8034 28.2398 28.2384 27.8413 28.2279C27.7355 28.4325 27.4776 29.177 27.4341 29.2383L26.3254 28.7638C25.151 30.0754 26.0841 30.5104 26.1809 30.7205C26.3656 31.1215 26.0704 31.1878 26.449 31.4747C27.0753 31.9494 26.886 31.5445 27.0152 32.2342C27.1494 32.9511 27.2191 32.812 27.8524 33.0775C28.4454 33.326 29.5938 34.0382 30.0667 34.0789L34.7936 34.2926C35.4159 34.3134 35.9739 34.1476 35.8423 34.7732Z" fill="#FBC189"/>
<path fill-rule="evenodd" clip-rule="evenodd" d="M71.3185 17.4737C70.9825 17.4737 70.7292 17.4521 70.4067 17.3711L69.8612 17.18C69.715 17.0959 69.7405 17.1004 69.6625 17.0301L73.3412 16.9471C72.8087 17.2904 72.0526 17.4737 71.3185 17.4737ZM68.206 21.3657L68.393 21.791C70.5111 22.4528 71.8161 22.2942 73.9728 21.879L74.1462 21.4162C74.5569 19.9336 74.9941 17.7254 74.9414 16.0834C74.8526 13.3137 73.7433 13.1117 71.9402 13.0523C71.8422 12.6428 71.727 12.3117 71.2278 12.3628C70.7888 12.4076 70.6991 12.7541 70.659 13.1338C69.0549 13.179 67.6772 12.9157 67.2442 16.1564C67.0862 17.3386 67.6131 20.7 68.206 21.3657Z" fill="#FBC189"/>
<path fill-rule="evenodd" clip-rule="evenodd" d="M86.7542 75.6201L85.7939 75.9947C85.5034 76.358 85.2193 76.5122 84.9051 76.9708L84.4912 77.9975C84.5088 78.4378 84.3402 78.1506 84.653 78.316C86.2507 78.2776 87.7952 78.366 89.3279 78.6413C90.1578 78.7905 92.0196 79.2554 92.8202 79.6262L93.2226 79.8956C93.6977 79.8926 94.1867 80.3169 94.6489 80.4384C94.8182 80.1978 95.1624 79.1328 95.7885 78.1261L96.3645 77.4041C95.9902 78.4549 93.7766 80.9171 95.2275 81.9974C96.7281 82.0894 98.0801 79.262 98.4208 77.7473C98.479 77.1186 98.1395 76.5892 98.0056 76.0621C97.3409 75.989 96.9304 76.569 96.6858 76.9758L96.4604 77.3448C96.0634 77.1279 95.609 76.8833 95.1441 76.6695C94.7697 76.4973 94.229 76.3328 93.9155 76.145C92.0182 75.7641 88.6264 74.8908 86.7542 75.6201Z" fill="#020100"/>
<path fill-rule="evenodd" clip-rule="evenodd" d="M65.8206 4.36803L66.9911 4.75768L66.6739 5.43444L68.4712 7.6005L67.6218 5.5636L68.2778 4.92891C69.7609 5.02286 70.9508 5.16157 72.4372 5.02661C73.3969 4.93948 75.5601 4.78145 76.1753 4.18773C76.3219 3.29723 76.0074 3.47891 76.4868 2.60123L76.9372 3.42401L76.6972 1.09812C76.1211 1.28736 75.2349 2.1205 74.6682 2.42823L75.2303 1.24918C75.019 1.43184 74.8241 1.58061 74.6022 1.7863C74.3176 2.05014 74.2602 2.22863 73.9142 2.39174L74.4774 6.10352e-05C73.836 0.446463 73.0139 2.11704 72.4587 2.46628L72.4484 0.0462027C71.9233 0.507777 71.3991 1.94977 70.9154 2.34623L69.8349 0.863611L69.7751 1.80702C69.5374 1.58904 69.3981 1.40732 69.0983 1.09719C68.7991 0.787693 68.7215 0.551211 68.376 0.334072L68.7551 2.39769L67.3999 1.62598L67.3283 2.38459C66.8118 2.1763 66.532 1.85165 66.0877 1.65683L66.5594 3.01684L65.1122 2.59637C65.4815 3.08593 65.6675 3.56314 65.8206 4.36803Z" fill="#020100"/>
<path fill-rule="evenodd" clip-rule="evenodd" d="M71.3527 51.4409C73.563 50.6767 74.9621 53.091 72.9486 53.8932C70.8159 54.7429 69.051 52.2367 71.3527 51.4409ZM61.9113 50.5487C65.2092 51.4528 64.9628 51.932 69.4019 52.463L69.481 52.6398C69.4912 52.6676 69.5037 52.6976 69.5138 52.7284C69.5236 52.7583 69.531 52.7859 69.54 52.8167C69.6327 53.1353 69.5619 53.1826 69.7645 53.4991L70.2696 54.0409C70.4571 54.234 70.3019 54.0613 70.4351 54.2239C71.0948 54.3535 71.2434 54.6479 72.2288 54.6256C73.1553 54.6047 73.3294 54.273 73.9156 54.1189L74.2377 53.7672C74.3277 53.6644 74.4169 53.5572 74.495 53.4025C74.6725 53.0513 74.6573 52.8495 74.6717 52.4268C76.0297 52.1961 77.1944 52.0138 78.4813 51.6664C79.6878 51.3407 80.8493 50.8403 81.9303 50.5444C81.9404 50.3116 81.9642 49.9726 81.9559 49.7463C81.9418 49.3613 82.0608 49.1414 81.763 49.2284C81.3434 49.3798 80.9729 49.6009 80.544 49.6026C80.0445 50.1911 75.4266 51.0699 74.1416 51.13C73.4055 51.1645 73.0073 50.7044 71.9216 50.7462C70.888 50.7859 70.8142 51.2196 69.7078 51.1124C68.1473 50.9613 64.495 50.3059 63.3746 49.676L62.0136 49.1962C61.9662 49.2762 61.9589 49.2532 61.9191 49.4564C61.8968 49.5702 61.8915 49.6391 61.8863 49.7554C61.8762 49.9818 61.9001 50.3173 61.9113 50.5487Z" fill="#FDC84E"/>
<path fill-rule="evenodd" clip-rule="evenodd" d="M58.6201 94.6897C58.7283 96.8511 58.9742 98.9607 59.0412 101.182C59.1081 103.395 59.1309 105.605 59.1327 107.833C59.1343 109.831 59.0845 112.139 59.7849 113.885C60.7832 116.374 60.4447 117.041 60.3732 119.785C60.514 120.079 60.1064 119.996 60.7072 119.966C61.1042 119.946 60.9305 119.871 60.9796 119.813C62.0337 119.714 62.2748 118.06 62.5316 117.116C62.9204 115.687 62.574 114.122 62.9029 113.178C63.9585 110.147 65.7214 108.996 62.7555 107.748C62.9837 106.985 63.6921 105.707 64.0483 104.87C64.9221 102.815 67.0812 97.1321 66.9397 95.2317C66.5335 94.2743 66.155 92.7499 65.4648 92.3759C65.4638 92.3776 65.4621 92.3907 65.4598 92.4131L65.451 92.3993C65.0519 92.1511 64.5766 91.5422 63.9615 91.1441C62.7937 90.3884 63.0128 90.3284 60.7613 92.2432C60.083 92.8202 59.7104 93.5432 59.2567 93.7604L59.4299 93.6643C59.1801 93.82 58.6977 94.2999 58.6201 94.6897H58.6201Z" fill="#023186" stroke="#023186" stroke-width="0.216"/>
<path fill-rule="evenodd" clip-rule="evenodd" d="M55.8046 39.1365C56.0776 39.3859 56.3677 39.935 56.5963 40.2573C57.8692 42.0525 58.8216 42.7403 59.336 43.4028C59.5606 43.5566 59.78 43.7553 59.9606 43.9074C60.2662 44.2197 60.5778 44.4069 60.9598 44.6652C61.5008 45.0309 61.5488 45.0135 61.7467 45.7472C61.9738 46.5898 62.2603 48.298 62.0138 49.1964L63.3747 49.6762C63.4837 48.4106 63.1304 46.4131 62.7443 45.3303C62.2737 44.0111 61.5735 43.2231 60.8758 42.3249C59.7531 40.8793 58.7578 39.8498 57.9172 38.0302C57.6464 37.4439 57.4726 36.8598 57.1954 36.2662C56.9041 36.5471 55.9391 38.8091 55.8046 39.1365Z" fill="#BE202E" stroke="#BE202E" stroke-width="0.216"/>
<path fill-rule="evenodd" clip-rule="evenodd" d="M64.0547 38.3811C61.617 38.3617 60.3105 38.0084 58.4902 36.6915C57.0602 35.6569 57.427 35.3871 57.6343 34.3772C58.3481 34.8001 59.6216 36.4705 61.3274 37.3103C63.33 38.2962 65.0763 37.8341 67.291 37.9411L66.9418 38.1064C66.8412 38.1378 66.7105 38.1605 66.6061 38.1797L64.0547 38.3811ZM46.7644 46.726L47.8695 46.9699C48.8821 47.0856 49.7842 47.0779 50.7252 46.7906C51.0413 46.6942 51.5681 46.5189 51.819 46.3575C52.2407 46.0862 52.1875 45.758 52.6394 45.6665C52.9483 45.3538 52.9168 45.2273 53.1735 44.9418L53.2726 44.6051C54.1049 42.7851 54.9441 40.911 55.8041 39.1367C55.9386 38.8092 56.9036 36.5472 57.1949 36.2663C57.4721 36.8599 57.646 37.444 57.9168 38.0303C58.7573 39.8499 59.7526 40.8794 60.8754 42.325C61.573 43.2233 62.2732 44.0112 62.7438 45.3305C63.13 46.4132 63.4832 48.4108 63.3742 49.6763C64.4947 50.3063 68.147 50.9617 69.7075 51.1128C70.8139 51.2199 70.8877 50.7863 71.9212 50.7465C73.007 50.7047 73.4052 51.1648 74.1412 51.1304C75.4263 51.0703 80.0441 50.1915 80.5436 49.603C79.9898 49.2509 81.0429 45.409 81.2627 44.8627C82.3595 42.1374 85.1676 40.9407 86.7486 35.8203C86.9754 35.0858 87.0884 34.2102 87.3282 33.5277C88.0379 35.5831 88.3439 35.5728 89.0314 37.1452C89.4422 37.7623 89.7775 38.4772 90.1438 39.1441C90.4509 39.7034 91.0202 40.6205 91.2189 41.1776L91.6747 42.0816L91.806 42.093C91.8628 42.3905 92.3726 43.0078 92.5668 43.2593C93.4434 44.3939 95.6066 44.5309 96.9462 44.286C99.6039 43.8 99.8262 42.3532 101.502 41.2738C101.897 40.8617 101.727 40.9932 101.104 41.2218C100.307 41.4352 98.891 42.0041 97.7396 41.3565L97.6485 41.3392C97.3844 40.3089 96.9115 39.5882 96.7398 38.3593C96.4949 36.6069 97.1179 36.232 97.2301 34.9768C97.4354 34.7261 97.3945 34.6202 97.5515 34.3536C97.7664 33.9887 97.7866 34.1367 98.0091 33.8649C97.7569 32.3147 96.1773 29.0781 95.4469 27.8929C94.439 26.2575 93.0073 24.6725 91.0225 23.8907L90.5609 23.6759L88.0554 22.943C87.6834 23.325 86.9935 23.9969 86.7816 24.4879L84.9664 24.3173L83.3541 24.2224C82.9445 24.232 82.1096 24.2691 81.7757 24.0593L80.6814 24.045L78.2217 23.8922L75.8502 23.8667L65.5127 23.9228L63.3137 24.0329L61.174 24.0315C60.9617 24.2905 61.0728 24.1906 60.6343 24.2243C60.4505 24.2384 60.2124 24.2341 60.0197 24.2419C59.6426 24.2572 59.2293 24.3151 58.8741 24.241C58.1267 24.1855 57.9795 24.3661 57.3589 24.3604C57.0671 23.5398 56.5752 23.2681 56.3204 22.8497L55.0964 22.8431L54.067 23.1529C53.3258 23.3196 52.7543 23.7115 52.1877 24.151L51.6762 24.497L51.1921 25.116C51.0127 25.3113 50.8698 25.4428 50.7073 25.6611C48.8794 28.1168 46.7532 33.1511 46.4284 35.8506C46.6261 36.0725 46.7013 36.0159 46.9136 36.2403C47.1369 36.4764 47.1526 36.6697 47.3209 36.8989C47.4811 38.2014 48.1235 38.7799 47.9172 40.4721C47.7477 41.8622 47.2817 42.6016 46.9571 43.7628L46.8537 43.7191C46.6443 44.2592 44.9813 44.1236 44.5856 44.0709C43.9032 43.98 43.2144 43.7461 42.6919 43.4455C42.9437 43.8173 44.1313 44.9175 44.5588 45.2532C45.3702 45.8903 45.5441 46.3422 46.7644 46.7261V46.726ZM70.4674 26.3152C72.4096 26.0532 73.8783 26.5693 75.1256 27.5174C79.2997 30.6907 77.6701 37.5664 72.2565 38.392C68.7263 38.9304 65.697 36.3314 65.2712 33.2808C64.7538 29.5729 67.2179 26.7535 70.4674 26.3152ZM78.1783 37.9745C80.4326 37.9745 82.2145 36.9507 83.3211 35.8269C83.6898 35.4526 83.8999 35.3508 84.2792 34.93L87.0425 32.2504C87.1348 32.7942 86.4173 33.6015 85.8502 34.5678C84.4671 36.9242 82.0949 38.4232 79.1871 38.4232C78.5453 38.4232 75.7019 38.239 75.2941 37.9565L78.1783 37.9745Z" fill="#D4001A" stroke="#D4001A" stroke-width="0.216"/>
<path fill-rule="evenodd" clip-rule="evenodd" d="M66.3699 20.4424C66.0017 20.7663 65.6404 21.1055 65.1534 21.4592C64.7485 21.7533 64.1912 21.9602 63.8506 22.3055C64.1669 22.6442 64.3656 22.8274 64.6998 23.1198C64.91 23.3036 65.3847 23.7606 65.5128 23.9226L75.8502 23.8665C76.1427 23.3917 76.4882 22.9922 76.8523 22.5117C77.1286 22.1471 77.6966 21.4758 77.8814 21.093L76.4973 19.8242C76.1922 20.2757 76.0466 20.6795 75.7262 21.1229L74.7994 22.262C73.8035 23.4384 73.6648 23.1646 71.7219 23.1646C70.6689 23.1647 68.7493 23.4182 68.1227 22.7036C67.7503 22.2789 66.6699 20.6096 66.3699 20.4424Z" fill="#FBC189"/>
<path fill-rule="evenodd" clip-rule="evenodd" d="M80.4496 84.702L79.9843 85.1333C79.8261 85.1944 79.7646 85.3527 79.6015 85.563L78.5113 86.9608C78.0238 87.6224 77.5503 88.1546 77.0418 88.8006L73.1736 93.3085C72.9406 93.4483 70.4884 93.7352 70.129 95.1953C69.8303 96.4088 71.5862 98.7516 71.7899 100.147C71.8058 101.634 71.6619 102.245 72.0636 103.68C72.3226 104.604 72.5032 105.821 73.2106 106.269C73.6048 106.561 73.802 106.593 74.3466 106.575C74.2677 104.571 73.9371 103.176 74.4457 101.183C74.6461 100.397 74.9809 99.7933 75.1613 98.966C75.6338 96.7991 74.9253 96.5757 75.997 95.9414C78.5605 94.4241 81.1155 92.8527 83.5564 91.1846L91.2025 85.7608C91.0147 85.0954 90.8472 85.354 90.4532 84.9054L90.3084 84.8951C89.5654 84.1215 87.6444 83.8492 86.3499 83.839C84.5747 83.8249 83.4647 84.1102 81.8085 84.3537L81.5231 84.4538L80.4496 84.702Z" fill="#023186" stroke="#023186" stroke-width="0.216"/>
<path fill-rule="evenodd" clip-rule="evenodd" d="M63.7764 84.6715C64.273 83.7488 64.7728 82.4309 64.552 81.0394C64.4437 80.3567 64.2629 79.7925 63.6425 79.6563C63.1785 79.5544 61.937 79.5747 61.4458 79.6265C61.1994 80.1675 60.7817 80.414 60.5873 81.0841C60.4088 81.6993 60.4418 82.6993 60.6743 83.2894C61.1455 84.4854 62.1951 85.0313 63.7764 84.6715Z" fill="#020100"/>
<path fill-rule="evenodd" clip-rule="evenodd" d="M72.3324 31.1841C72.6136 31.7707 73.491 31.8856 73.117 33.2731C72.9456 33.9089 72.279 34.4567 71.4184 34.4075C70.1817 34.3368 68.9173 32.7337 70.682 31.2898C70.6926 30.086 70.7853 30.6864 70.1213 29.8361C69.7751 29.9581 69.4888 30.1971 69.236 30.4451L69.4048 30.8783C69.6626 31.6048 69.0801 31.2289 68.6097 31.2333L68.3328 32.2399C68.7099 32.5743 68.8501 32.2468 68.8963 32.6749C68.9408 33.0882 68.7139 32.9148 68.3069 33.1424L68.5948 34.1211C69.07 34.2256 69.3055 33.9608 69.4554 34.2765C69.5758 34.5298 69.3323 34.5064 69.2791 35.0179L70.1081 35.5403C70.3757 35.3306 70.4086 35.0605 70.706 35.129C71.1073 35.2214 70.879 35.4159 71.0158 35.8367L72.0248 35.8184C72.2815 35.3706 71.9101 35.2316 72.36 35.0983C72.6629 35.0085 72.677 35.2548 72.9327 35.4936C73.2499 35.4171 73.5938 35.1969 73.8092 34.8793C73.6858 34.578 73.4201 34.3471 73.5793 34.1697C73.8263 33.8945 73.8903 34.1562 74.4369 34.1409L74.7181 33.0981C74.2702 32.8675 74.2006 33.0793 74.0288 32.6622C74.1772 32.2814 74.2795 32.4872 74.6544 32.2399C74.6679 31.8027 74.5529 31.5019 74.3451 31.1995C73.8914 31.2206 73.6745 31.5154 73.5123 31.142C73.4121 30.9114 73.6762 30.8257 73.7745 30.4451C73.5853 30.1748 73.2392 29.972 72.9327 29.8276C72.4454 30.1817 72.3324 30.3495 72.3324 31.1841Z" fill="#BE202E"/>
<path fill-rule="evenodd" clip-rule="evenodd" d="M70.1034 26.8103C73.3115 26.1677 76.3105 28.1068 76.9723 31.1711C77.7419 34.7346 75.2156 37.4602 72.5008 38.0266C69.1725 38.7209 66.2976 36.4113 65.7099 33.6737C64.9393 30.0837 67.397 27.3524 70.1034 26.8103ZM70.4678 26.3149C67.2184 26.7532 64.7542 29.5726 65.2717 33.2806C65.6974 36.3311 68.7268 38.9301 72.257 38.3918C77.6706 37.5661 79.3001 30.6904 75.126 27.5172C73.8788 26.569 72.41 26.053 70.4678 26.3149Z" fill="#D4D4D4"/>
<path fill-rule="evenodd" clip-rule="evenodd" d="M61.897 51.9026C64.4765 53.1137 67.1934 54.0581 70.4352 54.2239C70.302 54.0614 70.4572 54.2341 70.2697 54.041L69.7646 53.4992C69.562 53.1826 69.6328 53.1354 69.5401 52.8168C69.5311 52.786 69.5237 52.7584 69.5139 52.7284C69.5038 52.6977 69.4913 52.6677 69.4811 52.6398L69.402 52.463C64.9628 51.932 65.2093 51.4528 61.9114 50.5487L61.897 51.9026Z" fill="#422E01"/>
<path fill-rule="evenodd" clip-rule="evenodd" d="M74.1464 21.4164L73.9729 21.8791C71.8162 22.2944 70.5112 22.453 68.3931 21.7911L68.2061 21.3659C68.1268 21.7361 68.3402 21.5318 68.0735 21.6591C67.7234 21.3501 67.1502 20.5564 66.8098 20.0724C66.4965 20.216 66.553 20.2028 66.3702 20.4424C66.6702 20.6096 67.7505 22.2789 68.123 22.7036C68.7496 23.4182 70.6692 23.1647 71.7222 23.1646C73.6651 23.1646 73.8038 23.4384 74.7997 22.262L75.7265 21.1229C76.0469 20.6795 76.1925 20.2757 76.4975 19.8242L77.8817 21.093L78.3429 20.5431C77.7813 19.9588 76.4263 19.621 76.475 18.5322C76.2616 18.758 75.7579 19.8216 75.4734 20.2241C75.1311 20.7084 74.62 21.4243 74.2442 21.7211C74.0989 21.576 74.0894 22.0021 74.1464 21.4164Z" fill="#F9B16C"/>
<path fill-rule="evenodd" clip-rule="evenodd" d="M73.9156 54.1192C76.2442 54.0192 78.3911 53.1422 80.422 52.5334L81.9453 51.9182L81.9303 50.5447C80.8493 50.8407 79.6878 51.341 78.4813 51.6667C77.1944 52.0141 76.0297 52.1964 74.6717 52.4271C74.6574 52.8498 74.6725 53.0516 74.4951 53.4029C74.4169 53.5575 74.3277 53.6647 74.2377 53.7675L73.9156 54.1192Z" fill="#422E01"/>
<path fill-rule="evenodd" clip-rule="evenodd" d="M78.179 37.9742L75.2948 37.9562C75.7026 38.2387 78.546 38.4229 79.1878 38.4229C82.0956 38.4229 84.4678 36.9238 85.8509 34.5675C86.418 33.6012 87.1355 32.7939 87.0433 32.2501L84.28 34.9297C83.9006 35.3505 83.6905 35.4523 83.3219 35.8266C82.2152 36.9504 80.4333 37.9742 78.179 37.9742Z" fill="#BE202E" stroke="#D4001A" stroke-width="0.216"/>
<path fill-rule="evenodd" clip-rule="evenodd" d="M86.6454 60.3505C86.7934 60.6437 86.781 60.618 87.0872 60.7698C87.7647 57.5086 88.5406 54.4577 89.3046 51.27C89.6788 49.709 90.0914 48.1686 90.4949 46.604C90.7353 45.6716 91.3642 42.711 91.6746 42.0813L91.2189 41.1774C91.1647 42.5223 88.2751 53.1084 87.7275 55.5426C87.396 57.0163 87.055 58.9055 86.6454 60.3505Z" fill="#102A83" stroke="#102A83" stroke-width="0.216"/>
<path fill-rule="evenodd" clip-rule="evenodd" d="M58.3036 92.708C58.8099 92.5513 58.7318 92.1272 59.2234 91.8249L59.3346 91.5655C59.8143 91.3055 60.1321 90.7557 60.6207 90.3041C61.0283 89.9272 61.5545 89.5139 62.0318 89.1393C62.7626 88.5658 62.8313 88.1213 64.4321 89.385C64.6894 89.5881 64.7832 89.7195 64.9594 89.8458C64.9612 89.9062 64.9632 89.9663 64.9656 90.0263C64.9663 90.0287 66.687 91.7214 67.1376 93.6476C67.1498 93.3689 67.0985 93.6624 67.2673 93.5295C67.2923 91.4837 67.4455 90.0426 67.0805 87.9844C66.7497 86.1192 66.2983 85.1635 65.6868 83.5954C65.3269 84.0967 65.7855 84.0849 64.3472 84.0778C64.4183 83.6165 64.6037 83.2693 64.6795 82.7336C64.7469 82.2569 64.6864 81.7767 64.7895 81.2516L66.0738 81.2715L66.0265 81.7372C66.2141 81.5423 66.2128 81.4872 66.3141 81.1578C66.3787 80.9476 66.4258 80.7444 66.4873 80.504C66.5876 80.1121 66.6815 79.5971 66.8466 79.2687L67.0992 78.4181C67.1864 77.5473 67.7033 76.1012 67.9454 75.1606C68.2236 74.0802 68.4749 72.9686 68.7303 71.8752C69.244 69.6762 69.7865 67.2969 70.1529 65.0588C69.3987 63.5371 68.2587 62.2286 67.2807 61.1713C66.5882 60.4225 64.7303 58.5281 63.6523 58.101C63.478 57.7665 61.7367 56.8447 61.2311 56.6372L59.4456 55.7947C58.4053 59.4248 57.8543 63.2598 57.7915 67.3227L57.745 69.2201C57.8082 71.3688 57.8285 73.3934 57.9746 75.5274C58.0445 76.5483 58.1341 77.5585 58.2346 78.5581C58.3194 79.401 58.5257 80.6058 58.5127 81.4159C58.6748 81.1426 58.668 81.2352 59.0387 81.2291L59.6254 81.2335L59.8187 80.1868C60.4 79.7117 60.6272 79.7477 61.4462 79.6266C61.9374 79.5748 63.1788 79.5544 63.6428 79.6563C64.2632 79.7925 64.444 80.3567 64.5523 81.0395C64.7731 82.4309 64.2733 83.7489 63.7767 84.6715L63.4734 85.0706C63.3046 85.1881 63.1092 85.3352 62.8064 85.4078C60.4902 85.9629 60.3372 84.0286 60.02 83.8875L59.2135 83.8747C59.0753 83.8937 59.0599 83.9073 58.8983 83.8923L58.5074 83.7992L58.3428 83.7819L57.9881 83.7671L58.4537 83.8466C58.0718 85.1141 57.9997 86.915 58.0068 88.302C58.0142 89.7586 58.3171 91.4051 58.3036 92.708Z" fill="#D4001A" stroke="#D4001A" stroke-width="0.216"/>
<path fill-rule="evenodd" clip-rule="evenodd" d="M66.8461 79.2686C69.9007 81.6133 74.396 85.7871 79.1402 85.0682C80.1988 84.9077 79.8871 84.8663 79.9843 85.1332L80.4496 84.702C80.2082 84.6144 80.4404 84.8121 80.3051 84.591L80.5156 84.2815C80.1166 84.1491 79.0959 84.5459 78.4802 84.5633C74.3695 84.68 71.2019 82.0909 68.2419 79.6963C67.5744 79.1563 67.0662 78.9038 67.0988 78.4179L66.8461 79.2686Z" fill="#102A83" stroke="#102A83" stroke-width="0.216"/>
<path fill-rule="evenodd" clip-rule="evenodd" d="M71.3527 51.4412C69.051 52.237 70.8159 54.7432 72.9486 53.8935C74.9621 53.0913 73.563 50.6769 71.3527 51.4412Z" fill="#FEE6B4"/>
<path fill-rule="evenodd" clip-rule="evenodd" d="M45.9244 36.1774C46.4687 36.9316 46.8144 38.4686 46.8348 39.6293C46.8519 40.6038 46.6916 42.6309 45.9084 43.2582C44.8271 43.1246 44.3696 43.2821 43.2476 42.9323C42.4579 42.6862 41.8067 42.2893 41.1422 42.0811C41.3731 42.4496 41.5491 42.5981 41.7986 42.8624C42.0648 43.1445 42.3032 43.2729 42.6923 43.4452C43.2148 43.7458 43.9036 43.9797 44.586 44.0706C44.9817 44.1233 46.7481 44.3025 46.9575 43.7625C47.2822 42.6013 47.7481 41.8619 47.9176 40.4718C48.1239 38.7796 47.4815 38.2011 47.3213 36.8986C47.1531 36.6694 47.1373 36.4761 46.914 36.24C46.7018 36.0156 46.6266 36.0722 46.4288 35.8503L45.7029 35.5588L45.9244 36.1774Z" fill="#D5BA7D"/>
<path fill-rule="evenodd" clip-rule="evenodd" d="M67.2915 37.941C65.0768 37.834 63.3305 38.2961 61.3279 37.3102C59.6221 36.4704 58.3486 34.8 57.6348 34.3772C57.4275 35.3871 57.0607 35.6568 58.4908 36.6915C60.311 38.0084 61.6175 38.3617 64.0552 38.3811L66.6066 38.1796C66.711 38.1604 66.8417 38.1378 66.9423 38.1063L67.2915 37.941Z" fill="#BE202E" stroke="#D4001A" stroke-width="0.216"/>
<path fill-rule="evenodd" clip-rule="evenodd" d="M59.8185 80.1867L59.6253 81.2333C59.6167 82.7493 59.7106 82.5255 60.0367 83.7627L58.5072 83.7991L58.8982 83.8921C59.0597 83.9072 59.0752 83.8936 59.2134 83.8745L60.0199 83.8874C60.3371 84.0284 60.49 85.9627 62.8062 85.4076C63.2825 85.2935 63.4434 85.0625 63.6621 84.8996L63.7765 84.6714C62.1953 85.0313 61.1457 84.4853 60.6744 83.2893C60.442 82.6992 60.409 81.6992 60.5875 81.084C60.7818 80.4139 61.1996 80.1675 61.446 79.6264C60.6271 79.7475 60.3999 79.7116 59.8185 80.1867Z" fill="#020100" stroke="#020100" stroke-width="0.216"/>
<path fill-rule="evenodd" clip-rule="evenodd" d="M78.2219 23.892L80.6816 24.0448C80.7179 23.5758 80.795 23.1547 80.8911 22.7329C80.9982 22.2633 80.989 21.8765 81.4273 21.8028C81.1539 21.6197 80.6617 21.5159 80.2824 21.3796C79.8703 21.2315 79.5194 21.0639 79.1078 20.8872C78.9337 21.893 78.3118 23.1158 78.2219 23.892Z" fill="#102A83"/>
<path fill-rule="evenodd" clip-rule="evenodd" d="M65.2539 16.9546C65.277 14.3098 65.2832 11.8452 65.4194 9.19734C64.9657 9.16843 64.4812 9.09634 64.1424 9.30368C63.5812 9.7862 63.9169 11.0761 64.1805 11.7327C64.7282 13.097 64.3213 13.3204 64.9217 13.7008C65.1605 13.8521 64.5412 13.4656 65.0602 13.7807C65.0797 13.7925 65.1139 13.8148 65.1298 13.8246C65.1459 13.8344 65.1784 13.8516 65.1996 13.8696C65.1616 14.6531 65.019 16.3517 65.2539 16.9546Z" fill="#F9B16C"/>
<path fill-rule="evenodd" clip-rule="evenodd" d="M62.7469 21.2702C62.9272 21.5474 63.5455 22.1192 63.8507 22.3055C64.1913 21.9602 64.7486 21.7532 65.1535 21.4592C65.6405 21.1054 66.0017 20.7663 66.3699 20.4424C66.5528 20.2028 66.4962 20.216 66.8096 20.0724C66.6475 19.7716 66.4417 19.5023 66.2514 19.172C66.072 18.8608 65.9708 18.5184 65.7849 18.2764C65.8339 18.7331 65.6775 19.1117 65.5053 19.5057C65.301 19.9731 65.1234 19.9527 64.6793 20.2232C64.1524 20.5441 63.1205 20.9785 62.7469 21.2702Z" fill="#F7A654"/>
<path fill-rule="evenodd" clip-rule="evenodd" d="M77.8818 21.0932C77.697 21.476 77.129 22.1473 76.8526 22.5119C76.4885 22.9924 76.143 23.3919 75.8506 23.8667L78.2221 23.8922C78.312 23.1159 78.9339 21.8931 79.108 20.8873L78.343 20.5433L77.8818 21.0932Z" fill="#3657A0"/>
<path fill-rule="evenodd" clip-rule="evenodd" d="M61.0724 21.8354C61.5444 21.8637 61.4856 21.8319 61.7654 22.1755C61.9715 22.4284 62.0707 22.5696 62.2888 22.7915C62.6492 23.158 63.068 23.6603 63.3141 24.0327L65.5131 23.9226C65.385 23.7605 64.9103 23.3036 64.7001 23.1197C64.3659 22.8274 64.1672 22.6442 63.8509 22.3054C63.5458 22.1192 62.9274 21.5474 62.7471 21.2702C62.3588 21.3394 61.322 21.5962 61.0724 21.8354Z" fill="#102A83"/>
<path fill-rule="evenodd" clip-rule="evenodd" d="M91.7965 83.7923L91.7726 83.912C92.2563 84.142 92.2128 84.4335 92.6032 84.5779C92.9674 84.3145 93.2187 84.1018 93.6245 83.7729C93.8247 83.6106 93.8922 83.5616 94.1285 83.3538C94.4315 83.0874 94.3754 83.062 94.7865 83.001C95.5562 83.744 99.5606 79.3828 98.4208 77.7474C98.0801 79.2622 96.7281 82.0896 95.2275 81.9976C93.7766 80.9173 95.9901 78.4551 96.3645 77.4042L95.7885 78.1262C95.1623 79.1329 94.8182 80.198 94.6488 80.4386C94.1867 80.317 93.6977 79.8927 93.2225 79.8957L92.8202 79.6263C92.0196 79.2556 90.1578 78.7906 89.3279 78.6415C87.7952 78.3661 86.2507 78.2777 84.653 78.3162L81.2995 83.2691L82.8186 82.924L82.9427 82.8934C84.4017 82.5088 86.2204 82.3384 87.7642 82.4207C89.8029 82.5294 90.364 83.0217 91.7965 83.7923ZM96.6858 76.976C96.9304 76.5691 97.3409 75.9892 98.0056 76.0623C97.7941 74.4937 96.402 72.6599 95.6954 71.6577C94.3838 69.7976 91.6192 65.9793 90.0785 64.2325L87.0876 60.7699C86.7814 60.6181 86.7937 60.6438 86.6458 60.3507C86.1896 60.0801 85.8238 59.5135 85.3889 59.1128L81.5394 55.7062C81.0212 55.8697 79.6463 56.7065 79.4325 57.0428C79.1374 57.1915 79.0976 57.2219 78.945 57.4687C77.8065 57.9206 73.8285 63.1472 73.1432 65.0083C74.2234 66.0041 74.5672 66.5303 75.9456 67.7287C78.776 70.1896 80.8345 71.7317 83.9881 73.7741C84.5952 74.1673 85.1669 74.4592 85.7568 74.9256C86.0243 75.0058 86.0244 75.0263 86.2779 75.1782C86.327 75.2076 86.5282 75.3203 86.5403 75.3292C86.73 75.469 86.6826 75.3924 86.7542 75.6203C88.6264 74.891 92.0182 75.7643 93.9155 76.1451C94.229 76.3329 94.7697 76.4974 95.1441 76.6697C95.609 76.8835 96.0633 77.128 96.4604 77.3449L96.6858 76.976Z" fill="#D4001A" stroke="#D4001A" stroke-width="0.216"/>
<path fill-rule="evenodd" clip-rule="evenodd" d="M57.9557 22.3569L58.8742 24.2406C59.2294 24.3148 59.6427 24.2569 60.0198 24.2416C60.2124 24.2337 60.4506 24.2381 60.6344 24.224C61.0729 24.1902 60.9617 24.2902 61.1741 24.0312C60.8819 23.7603 60.0898 22.3982 60.0014 21.9721L57.9557 22.3569Z" fill="#102A83"/>
<path fill-rule="evenodd" clip-rule="evenodd" d="M71.6831 33.3386C72.0314 32.8637 71.8867 31.6495 71.8867 30.6561C71.8867 29.6466 72.1827 30.0177 72.4042 29.4447C72.619 28.8892 72.3467 28.46 71.9233 28.3216L71.8518 29.379L71.1822 29.3603L71.1017 28.299C70.7526 28.4186 70.4014 28.7748 70.5604 29.3372C70.8639 30.4111 71.1704 28.6649 71.1317 32.242C71.1242 32.9342 70.9859 33.3627 71.6831 33.3386Z" fill="#1B2C59"/>
<path fill-rule="evenodd" clip-rule="evenodd" d="M77.0395 13.6614C77.5827 13.4211 77.4337 13.0325 77.5921 12.4042C77.7709 11.6952 78.4447 10.526 78.0563 9.55762C77.8291 8.99112 77.4141 9.17186 76.7605 8.98657L77.0395 13.6614Z" fill="#FBC28B"/>
<path fill-rule="evenodd" clip-rule="evenodd" d="M60.0017 21.9722C60.09 22.3984 60.8822 23.7604 61.1743 24.0313L63.3141 24.0327C63.068 23.6603 62.6492 23.158 62.2888 22.7914C62.0707 22.5696 61.9715 22.4283 61.7654 22.1754C61.4856 21.8319 61.5444 21.8636 61.0724 21.8354L60.0017 21.9722Z" fill="#3657A0"/>
<path fill-rule="evenodd" clip-rule="evenodd" d="M53.174 44.9416C52.9173 45.2271 52.9488 45.3536 52.6399 45.6663C53.6792 45.5364 55.1579 45.0273 56.2459 44.7599C57.1773 44.5309 59.1126 43.919 59.9607 43.9073C59.78 43.7552 59.5606 43.5565 59.336 43.4027L53.174 44.9416Z" fill="#102A83"/>
<path fill-rule="evenodd" clip-rule="evenodd" d="M67.1228 10.5966C67.6098 11.6432 70.0694 11.633 69.8399 10.5619C69.5926 9.40781 67.5882 9.44751 67.1228 10.5966Z" fill="#262626"/>
<path fill-rule="evenodd" clip-rule="evenodd" d="M75.2054 10.5966C74.693 9.4488 72.7471 9.39791 72.4836 10.5569C72.2473 11.5968 74.6628 11.6778 75.2054 10.5966Z" fill="#262626"/>
<path fill-rule="evenodd" clip-rule="evenodd" d="M65.6865 83.5952C65.7574 83.0638 66.0183 82.0596 66.0262 81.7371L66.0736 81.2713L64.7892 81.2515C64.6862 81.7766 64.7467 82.2568 64.6793 82.7334C64.6035 83.2692 64.418 83.6163 64.347 84.0777C65.7853 84.0847 65.3267 84.0965 65.6865 83.5952Z" fill="#030100"/>
<path fill-rule="evenodd" clip-rule="evenodd" d="M55.0964 22.8428L56.3204 22.8494C56.5752 23.2678 57.0671 23.5395 57.3589 24.3601C57.9795 24.3658 58.1268 24.1852 58.8742 24.2407L57.9556 22.3569C57.234 22.411 55.6076 22.5702 55.0964 22.8428Z" fill="#3657A0"/>
<path fill-rule="evenodd" clip-rule="evenodd" d="M68.7307 36.4629C69.2049 36.8736 73.5628 36.7921 74.2337 36.5814C74.4215 36.5224 74.3855 36.5207 74.4597 36.4629C73.7493 36.1178 69.4401 36.09 68.7307 36.4629Z" fill="#1C305E"/>
<path fill-rule="evenodd" clip-rule="evenodd" d="M58.3428 83.7817L58.5074 83.799L60.0368 83.7627C59.7108 82.5254 59.6168 82.7492 59.6254 81.2332L59.0387 81.2289C58.9491 81.8107 59.0959 82.2919 58.8745 82.7743C58.691 83.1741 58.4637 83.3743 58.3428 83.7817Z" fill="#020100" stroke="#020100" stroke-width="0.216"/>
<path fill-rule="evenodd" clip-rule="evenodd" d="M37.9177 32.1254C37.8335 32.4857 37.7804 32.8759 37.5967 33.2645C37.3193 33.8515 37.0218 34.132 36.4589 34.3973C36.0663 34.5824 36.1732 34.5231 35.8427 34.7732C35.8405 35.2556 36.1512 35.2998 36.4248 35.3383C36.6118 35.1849 36.6499 35.1856 36.8867 35.0575C36.9261 35.0362 37.1437 34.9167 37.1519 34.913C37.1582 34.9103 37.1643 34.9075 37.1703 34.9047L37.1703 34.9048C37.904 34.6069 38.6108 33.4731 38.6476 32.2485C38.4758 31.8724 38.1008 31.9059 37.9177 32.1254Z" fill="#C8A452"/>
<path fill-rule="evenodd" clip-rule="evenodd" d="M45.9246 36.1774L45.7031 35.5588C44.8553 35.1235 43.9697 34.7272 43.0971 34.3259C42.3121 33.9648 41.1108 33.2737 40.3488 33.0877L38.6476 32.2483C38.473 33.2898 38.1769 34.3447 37.4431 34.6425L37.1943 34.8939C37.182 34.8995 37.168 34.9058 37.152 34.9128C37.1437 34.9164 36.9261 35.036 36.8867 35.0573C36.6499 35.1854 36.6118 35.1846 36.4248 35.3381C36.6407 36.0157 38.346 38.7731 38.7265 39.1027L39.0206 39.5506C39.3648 39.9925 39.0257 39.3654 39.6513 40.3602C39.7819 40.5678 39.8293 40.5783 39.9572 40.8078C40.3934 41.2626 40.6795 41.631 41.1424 42.0812C41.8069 42.2893 42.458 42.6862 43.2477 42.9323C44.3698 43.2821 44.8273 43.1246 45.9085 43.2582C46.7525 42.7071 46.8629 41.2207 46.835 39.6293C46.8146 38.4686 46.4689 36.9316 45.9246 36.1774Z" fill="#182956" stroke="#182956" stroke-width="0.216"/>
<path fill-rule="evenodd" clip-rule="evenodd" d="M58.3038 92.7079C58.3955 93.1737 58.4097 94.195 58.6202 94.6896C58.6875 94.3517 59.0589 93.9462 59.3194 93.7427C59.7731 93.5254 60.0832 92.8201 60.7615 92.2432C63.0129 90.3284 62.7939 90.3883 63.9616 91.144C64.5767 91.5421 65.0521 92.1511 65.4512 92.3992L65.5661 92.5787C66.0724 92.9749 66.5337 94.2742 66.9399 95.2316C67.1848 94.9005 67.2377 94.0036 67.2674 93.5295C66.9892 93.2443 66.2899 91.2495 65.3719 90.2873C65.2299 90.0083 64.6799 89.5804 64.4323 89.385C62.8314 88.1212 62.7627 88.5657 62.0319 89.1392C61.5546 89.5138 61.0284 89.9271 60.6208 90.304C60.1554 90.7343 59.8449 91.2536 59.4018 91.5266L59.4011 91.5272C59.3793 91.5406 59.3572 91.5534 59.3347 91.5656L59.3305 91.5756C58.8991 91.9004 58.7845 92.5593 58.3038 92.7081V92.7079Z" fill="#CCAD66" stroke="#CCAD66" stroke-width="0.216"/>
<path fill-rule="evenodd" clip-rule="evenodd" d="M81.2994 83.2691C81.0656 83.4511 80.74 84.0164 80.5156 84.2816L80.3051 84.5912C80.4404 84.8123 80.2082 84.6145 80.4496 84.7021L81.5638 84.4539L81.8492 84.3538L81.8506 84.3475C83.4836 84.1055 84.5898 83.8252 86.3499 83.8391C87.6444 83.8494 89.5655 84.1216 90.3085 84.8952C90.7024 85.3438 91.0147 85.0956 91.2025 85.7609L91.5618 85.4039C91.6326 85.3409 91.7785 85.23 91.9015 85.1367L92.603 84.578C92.2128 84.4336 92.2518 84.0076 91.7688 83.7775C90.3566 83.0155 89.7895 82.5287 87.764 82.4207C86.2202 82.3385 84.4015 82.5088 82.9425 82.8934L82.8184 82.924L82.8061 82.9358L81.2994 83.2691Z" fill="#CCAD66"/>
<path fill-rule="evenodd" clip-rule="evenodd" d="M71.3188 17.474C72.0529 17.474 72.809 17.2907 73.3415 16.9474L69.6628 17.0303C69.7408 17.1007 69.7153 17.0962 69.8615 17.1803L70.407 17.3714C70.7294 17.4523 70.9828 17.474 71.3188 17.474Z" fill="#E9904C"/>
<path fill-rule="evenodd" clip-rule="evenodd" d="M58.5127 81.4156L58.6457 82.5328C58.2678 82.7821 57.9974 83.0944 57.9881 83.7669L58.3427 83.7816C58.4636 83.3743 58.691 83.1741 58.8745 82.7743C59.0958 82.2919 58.9491 81.8106 59.0387 81.2289C58.668 81.235 58.6747 81.1424 58.5127 81.4156Z" fill="#020100"/>
<path fill-rule="evenodd" clip-rule="evenodd" d="M105.978 29.994C106.371 30.241 106.165 30.513 106.422 31.187C106.637 31.7532 106.826 31.7525 107.107 32.1535L108.145 32.6797L108.288 32.5945C108.31 32.5853 108.339 32.5696 108.364 32.5611C108.39 32.5523 108.417 32.5439 108.445 32.5369L110.761 32.4249C113.987 32.2833 113.223 32.6008 115.484 31.4843C116.928 30.7708 116.327 31.5226 116.816 30.0227C117.202 29.7621 117.363 29.8534 117.481 29.3657C117.585 28.9396 117.344 29.304 117.632 28.884C117.844 28.5734 118.443 28.3548 117.421 27.0548C117.019 27.1192 116.746 27.3497 116.312 27.5049C116.195 27.2748 116.012 26.7541 115.922 26.5209C115.357 26.554 114.846 26.8249 114.29 26.9502C112.864 27.2719 109.978 27.561 108.743 27.185C108.484 26.5288 108.916 26.1273 108.941 25.5786C109.029 23.646 106.669 21.9851 106.351 23.6112C106.147 24.6503 107.013 25.8398 106.768 27.0674C106.678 27.5147 106.327 27.5782 106.066 28.383C105.858 29.0217 105.95 29.3568 105.978 29.994Z" fill="#FBC189"/>
<path fill-rule="evenodd" clip-rule="evenodd" d="M80.544 49.6028C80.9729 49.6011 81.3434 49.38 81.7631 49.2286C81.6764 48.1975 81.826 45.6047 82.403 45.0024C82.6051 44.7914 83.4978 44.2208 83.7699 44.0031C84.2713 43.6021 84.6258 43.2319 85.0496 42.8093C86.3044 41.5584 87.2508 40.2456 88.2178 38.7345C88.5639 38.1936 88.7159 37.6225 89.0317 37.145C88.3443 35.5727 88.0383 35.5829 87.3286 33.5276C87.0888 34.2101 86.9758 35.0856 86.749 35.8201C85.168 40.9406 82.3599 42.1372 81.2631 44.8625C81.0432 45.4088 79.9902 49.2507 80.544 49.6028Z" fill="#BE202E" stroke="#D4001A" stroke-width="0.216"/>
<path fill-rule="evenodd" clip-rule="evenodd" d="M98.6058 40.7176C100.106 41.1602 101.922 40.2095 103.088 39.6787C103.842 39.1043 104.919 37.6277 105.564 36.7222C106.033 36.0622 107.357 34.1144 107.608 33.2883L106.623 32.6432C105.846 32.3982 105.652 31.0422 105.542 30.7314C105.39 30.3 105.547 30.6219 105.373 30.4246C104.241 30.9945 103.187 31.4957 102.07 32.0182C101.249 32.4025 99.3716 33.1902 98.8137 33.5972C98.6519 34.1817 98.3247 34.549 98.1212 35.1649C97.9542 35.6704 97.8031 36.4043 97.7621 36.9974C97.6417 38.7404 98.1298 39.4271 98.4137 40.751L98.6058 40.7176Z" fill="#182956" stroke="#182956" stroke-width="0.216"/>
<path fill-rule="evenodd" clip-rule="evenodd" d="M98.0093 33.8646C97.7868 34.1364 97.7666 33.9884 97.5517 34.3534C97.3946 34.62 97.4356 34.7258 97.2303 34.9765C97.1181 36.2317 96.4951 36.6066 96.74 38.3591C96.9117 39.588 97.3846 40.3086 97.6487 41.339L97.7398 41.3562C98.8912 42.0039 100.307 41.4349 101.104 41.2215C101.959 40.9925 102.649 40.5789 103.088 39.6786C101.922 40.2095 100.106 41.1601 98.6055 40.7176L98.4133 40.751C98.1294 39.427 97.6413 38.7403 97.7618 36.9973C97.8027 36.4043 97.9538 35.6704 98.1208 35.1648C98.3243 34.549 98.6515 34.1817 98.8133 33.5971L98.0093 33.8646Z" fill="#D5BA7D"/>
<path fill-rule="evenodd" clip-rule="evenodd" d="M81.7762 24.0592C82.1101 24.269 82.9449 24.2319 83.3546 24.2222L83.817 24.2169C84.1037 23.4679 84.6401 23.0516 84.9428 22.3801L82.7189 22.0151C82.8118 22.3703 82.818 22.193 82.5867 22.5938L81.7762 24.0592Z" fill="#102A83"/>
<path fill-rule="evenodd" clip-rule="evenodd" d="M84.9668 24.317L86.7819 24.4876C86.9939 23.9966 87.6837 23.3247 88.0557 22.9427C87.595 22.6877 86.8403 22.6254 86.236 22.5678C85.9984 22.8857 85.0666 24.0351 84.9668 24.317Z" fill="#102A83"/>
<path fill-rule="evenodd" clip-rule="evenodd" d="M80.6815 24.0447L81.7758 24.059L82.5864 22.5937C82.8176 22.1929 82.8114 22.3702 82.7185 22.015L81.4272 21.8027C80.9889 21.8764 80.9981 22.2632 80.891 22.7328C80.7949 23.1546 80.7178 23.5757 80.6815 24.0447Z" fill="#3657A0"/>
<path fill-rule="evenodd" clip-rule="evenodd" d="M83.3546 24.2222L84.9669 24.3171C85.0667 24.0353 85.9986 22.8858 86.2361 22.5679L84.9429 22.3801C84.6401 23.0516 84.1037 23.4678 83.8171 24.2169L83.3546 24.2222Z" fill="#3657A0"/>
<path fill-rule="evenodd" clip-rule="evenodd" d="M106.622 32.6433L107.608 33.2885C108.091 33.2503 108.194 33.2377 108.145 32.6799L107.106 32.1538C106.826 31.7527 106.637 31.7534 106.421 31.1872C106.165 30.5132 106.37 30.2413 105.977 29.9942C105.543 30.062 105.569 30.1887 105.372 30.4247C105.546 30.6221 105.39 30.3001 105.542 30.7315C105.651 31.0424 105.845 32.3984 106.622 32.6433Z" fill="#C8A452" stroke="#C8A452" stroke-width="0.216"/>
<path fill-rule="evenodd" clip-rule="evenodd" d="M85.7943 75.9947L86.7546 75.6201C86.6829 75.3922 86.7304 75.4689 86.5407 75.329C86.5286 75.3201 86.3273 75.2075 86.2782 75.178C86.0248 75.0262 86.0247 75.0056 85.7572 74.9255L85.7943 75.9947Z" fill="#FCFAFB"/>
<path fill-rule="evenodd" clip-rule="evenodd" d="M74.9878 42.2558C75.0697 42.1124 75.2069 41.6384 75.2745 41.4371C75.3557 41.1951 75.485 40.8778 75.5486 40.6576C75.5679 41.0124 75.5038 41.9922 75.5728 42.2486C75.6996 42.2771 75.7927 42.2913 75.8884 42.2307C75.9459 42.0909 75.9276 40.5655 75.8893 40.3595C75.7872 40.3143 75.5054 40.2742 75.3728 40.3513C75.2081 40.447 74.9969 41.4418 74.837 41.6702C74.6457 41.3882 74.5056 40.4253 74.2838 40.3405C74.1537 40.2908 73.8976 40.2913 73.7884 40.3699C73.7355 40.4752 73.7302 42.0735 73.774 42.2437C73.8988 42.2814 73.9838 42.2829 74.0911 42.242C74.1708 42.0207 74.1031 41.0078 74.1165 40.6703C74.3056 41.0335 74.4813 41.9778 74.6629 42.2624L74.9878 42.2558Z" fill="white"/>
<path fill-rule="evenodd" clip-rule="evenodd" d="M78.3985 42.2413C78.49 41.998 78.388 41.1487 78.4239 40.8022C78.4972 40.9242 78.5625 41.1005 78.6347 41.239L79.0761 42.1182C79.1629 42.2588 79.4022 42.3431 79.5439 42.2244C79.6252 42.1594 79.6069 42.157 79.6074 42.0177C79.6084 41.75 79.6297 40.3875 79.582 40.3396C79.4866 40.3006 79.3906 40.2999 79.2908 40.3396C79.2252 40.4832 79.2704 41.4252 79.268 41.6621C79.1987 41.5908 79.1837 41.5298 79.1427 41.439L78.8342 40.8172C78.6353 40.4378 78.6629 40.2234 78.1217 40.3395C78.0695 40.4609 78.0388 42.0939 78.1014 42.2165C78.1624 42.3016 78.3235 42.2717 78.3985 42.241V42.2413Z" fill="white"/>
<path fill-rule="evenodd" clip-rule="evenodd" d="M70.5507 42.2496C70.6362 41.9404 70.526 41.1512 70.5744 40.7823C70.5942 40.8968 70.9263 41.5299 71.0006 41.6743C71.2088 42.0795 71.2505 42.39 71.7277 42.2347C71.7798 42.0603 71.7561 41.5178 71.7561 41.2842C71.7561 40.3516 71.8527 40.2534 71.4169 40.3348L71.4148 41.696C71.3861 41.5995 70.8343 40.4825 70.7596 40.4017C70.6723 40.3072 70.3678 40.2618 70.2725 40.38C70.1892 40.4822 70.226 42.1492 70.2507 42.2448C70.3769 42.2828 70.4234 42.2776 70.5507 42.2496L70.5507 42.2496Z" fill="white"/>
<path fill-rule="evenodd" clip-rule="evenodd" d="M68.1855 40.6297C68.4407 40.594 68.6921 40.61 68.694 40.8885C68.6959 41.1733 68.4154 41.2112 68.1808 41.1571L68.1855 40.6297ZM68.743 41.3826C68.7695 41.3521 68.7593 41.3632 68.7974 41.3344C68.8933 41.2618 69.0177 41.2307 69.0673 41.003C69.2628 40.1047 67.931 40.305 67.8339 40.3532C67.7844 40.5012 67.7834 42.0853 67.8278 42.2629L68.1601 42.2469C68.213 42.0638 68.1779 41.6899 68.1832 41.4795C68.6314 41.4064 68.6348 41.9469 68.8016 42.2578C68.9313 42.2722 69.0483 42.2897 69.1691 42.238C69.18 42.1294 69.0585 41.8778 69.0151 41.7707C68.9374 41.5786 68.8922 41.4502 68.743 41.3826Z" fill="white"/>
<path fill-rule="evenodd" clip-rule="evenodd" d="M66.3146 42.2398C66.3901 42.046 66.3374 41.665 66.3374 41.4231L67.0309 41.4298C67.0309 41.6685 66.9788 42.0485 67.0542 42.2409C67.1147 42.2656 67.2152 42.2837 67.2986 42.2686C67.4136 42.2477 67.4053 42.2259 67.4053 42.1068C67.4059 41.7412 67.4426 40.6207 67.3839 40.3406C67.2862 40.2996 67.0707 40.2528 67.0337 40.4325L67.0309 40.7052C67.0317 40.8312 67.04 40.9624 67.0197 41.0875L66.3494 41.0869C66.3104 40.861 66.404 40.518 66.3067 40.3329C66.3028 40.3296 65.9628 40.2081 65.9628 40.4615V42.1067C65.9628 42.2291 65.9531 42.2489 66.0715 42.2691C66.1557 42.2836 66.254 42.2659 66.3146 42.2397L66.3146 42.2398Z" fill="white"/>
<path fill-rule="evenodd" clip-rule="evenodd" d="M76.7327 41.5178C76.7403 41.3993 76.9286 40.8016 76.9858 40.7097L77.2212 41.5178H76.7327ZM76.489 42.2495C76.5569 42.1185 76.5567 41.9018 76.6712 41.8195H77.2825C77.3573 41.8406 77.3465 41.8618 77.3988 42.0462C77.4248 42.1377 77.4307 42.1833 77.4864 42.2664L77.8347 42.2555C77.8469 42.0465 77.3264 40.6426 77.2369 40.3299C76.9433 40.2821 76.7914 40.2635 76.7157 40.4479C76.7044 40.4754 76.6898 40.5294 76.6795 40.5616C76.6508 40.6512 76.6259 40.7277 76.599 40.8123C76.5061 41.1041 76.1417 42.087 76.1597 42.2459C76.2832 42.2837 76.3639 42.2778 76.489 42.2495V42.2495Z" fill="white"/>
<path fill-rule="evenodd" clip-rule="evenodd" d="M72.9205 41.2231C73.0038 40.9781 73.4515 40.5919 73.472 40.3355C73.0631 40.2439 73.0799 40.377 72.9063 40.6346C72.8259 40.7538 72.6235 41.0883 72.5342 41.1713C72.5185 40.4918 72.6616 40.2613 72.2752 40.3095C72.1473 40.3255 72.1576 40.3341 72.1576 40.4614V42.1067C72.1576 42.2401 72.1426 42.2514 72.2725 42.2709C72.7104 42.3364 72.4934 41.8988 72.5386 41.3157C72.6225 41.3972 72.823 41.7656 72.9064 41.9036C73.0561 42.151 73.0876 42.3506 73.486 42.2458C73.5134 42.101 73.2994 41.8335 73.2279 41.7192C73.1176 41.5431 73.0166 41.3904 72.9205 41.2231Z" fill="white"/>
<path fill-rule="evenodd" clip-rule="evenodd" d="M64.4864 41.8462C64.4389 42.1057 64.4726 42.1771 64.6887 42.2457C64.8579 42.2994 65.057 42.3144 65.2318 42.2649C65.5243 42.1822 65.7988 41.8736 65.6392 41.4635C65.504 41.1161 65.0706 41.1233 64.9265 40.9291C64.8009 40.7597 64.9353 40.6041 65.1148 40.5951C65.2929 40.5861 65.4979 40.751 65.5442 40.6972C65.5911 40.6428 65.5816 40.493 65.5481 40.431C65.4703 40.2871 65.061 40.2522 64.8448 40.3325C64.5509 40.4417 64.3766 40.8493 64.5917 41.1594C64.7656 41.4101 65.2588 41.4681 65.2845 41.7142C65.3065 41.9253 65.1387 41.989 64.9417 41.9758C64.7452 41.9627 64.5988 41.8189 64.4864 41.8462Z" fill="white"/>
<path fill-rule="evenodd" clip-rule="evenodd" d="M69.4801 40.3356C69.4006 40.4992 69.4526 41.2565 69.4526 41.4973C69.4526 42.0484 69.377 42.2415 69.5646 42.2701C69.6513 42.2834 69.7455 42.2666 69.8064 42.2371C69.8553 42.1184 69.8577 40.447 69.8003 40.3342C69.6981 40.2991 69.5819 40.2996 69.4801 40.3356V40.3356Z" fill="white"/>
<path fill-rule="evenodd" clip-rule="evenodd" d="M80.5139 40.535C80.5624 40.4628 80.5545 40.4655 80.5568 40.341L80.5562 39.7667C80.6956 40.116 80.7551 40.5521 80.9195 40.5363C81.0536 40.5235 81.084 40.2643 81.1225 40.1538C81.1697 40.0184 81.206 39.896 81.2595 39.7673L81.2715 40.4627C81.2877 40.5289 81.2653 40.4892 81.3017 40.5238C81.3658 40.5844 81.4467 40.5504 81.4464 40.3427C81.4459 39.8092 81.5289 39.4844 81.2175 39.5795C81.0446 39.6323 81.095 39.903 80.9122 40.2369C80.7073 39.8497 80.8034 39.5259 80.4847 39.5728C80.3777 39.5885 80.3796 39.6153 80.3756 39.7275C80.3698 39.8858 80.3641 40.434 80.3969 40.5295L80.5139 40.535Z" fill="white"/>
<path fill-rule="evenodd" clip-rule="evenodd" d="M79.5973 39.5983C79.5931 39.5911 79.5819 39.604 79.5749 39.6084C79.5708 39.7941 79.6306 39.7348 79.8194 39.7348C79.8378 39.9532 79.7815 40.3444 79.844 40.5315L79.9898 40.527C80.0639 40.3553 80.003 39.9538 80.019 39.7348C80.3324 39.7348 80.2482 39.7604 80.2644 39.6657C80.2861 39.5386 80.1942 39.5713 80.0803 39.5714L79.5973 39.5983Z" fill="white"/>
<path fill-rule="evenodd" clip-rule="evenodd" d="M71.7905 12.6823C72.0902 13.5521 72.1694 14.4131 72.0789 15.2385C71.7219 15.3598 71.4582 15.3346 70.8319 15.2118C72.2408 14.9569 71.8615 14.8266 71.7905 12.6823Z" fill="#E9904C"/>
</svg>
