<svg width="182" height="19" viewBox="0 0 182 19" fill="none" xmlns="http://www.w3.org/2000/svg">
<path d="M143.807 5.51286C143.746 5.61177 143.682 5.68596 143.616 5.73542C143.549 5.77938 143.466 5.80136 143.366 5.80136C143.261 5.80136 143.142 5.7574 143.008 5.66947C142.881 5.58155 142.72 5.48538 142.526 5.38097C142.338 5.27106 142.113 5.17214 141.852 5.08422C141.592 4.9908 141.281 4.94409 140.921 4.94409C140.588 4.94409 140.294 4.9853 140.039 5.06773C139.79 5.15016 139.579 5.26556 139.407 5.41394C139.235 5.56231 139.105 5.73817 139.016 5.94149C138.933 6.13933 138.892 6.35639 138.892 6.59269C138.892 6.89494 138.972 7.14772 139.133 7.35105C139.293 7.54889 139.504 7.71924 139.765 7.86212C140.031 8.005 140.333 8.13139 140.671 8.2413C141.01 8.34571 141.353 8.45837 141.703 8.57927C142.058 8.70016 142.404 8.83755 142.742 8.99142C143.081 9.14529 143.38 9.34037 143.641 9.57667C143.907 9.81297 144.12 10.1015 144.281 10.4422C144.442 10.7829 144.522 11.1978 144.522 11.6869C144.522 12.2144 144.431 12.709 144.248 13.1706C144.065 13.6322 143.799 14.0362 143.449 14.3824C143.106 14.7231 142.679 14.9923 142.168 15.1902C141.664 15.388 141.087 15.4869 140.438 15.4869C140.056 15.4869 139.682 15.4485 139.316 15.3715C138.955 15.3001 138.609 15.1984 138.276 15.0665C137.949 14.9292 137.641 14.7643 137.353 14.572C137.065 14.3796 136.807 14.1653 136.579 13.929L137.145 13.0058C137.195 12.9288 137.259 12.8684 137.336 12.8244C137.414 12.7805 137.5 12.7585 137.594 12.7585C137.722 12.7585 137.863 12.8189 138.018 12.9398C138.173 13.0552 138.359 13.1844 138.575 13.3273C138.797 13.4646 139.063 13.5938 139.374 13.7147C139.684 13.8301 140.056 13.8878 140.488 13.8878C141.193 13.8878 141.736 13.7174 142.119 13.3767C142.507 13.036 142.701 12.5661 142.701 11.9672C142.701 11.6319 142.62 11.3599 142.46 11.1511C142.299 10.9368 142.085 10.7582 141.819 10.6153C141.559 10.4724 141.259 10.3515 140.921 10.2526C140.583 10.1537 140.239 10.0493 139.89 9.93937C139.54 9.82396 139.196 9.69208 138.858 9.5437C138.52 9.38983 138.218 9.192 137.952 8.9502C137.691 8.70291 137.48 8.40067 137.32 8.04347C137.159 7.68077 137.078 7.23015 137.078 6.69161C137.078 6.26297 137.162 5.84807 137.328 5.44691C137.5 5.04575 137.747 4.6913 138.068 4.38356C138.395 4.07032 138.797 3.82029 139.274 3.63344C139.751 3.4466 140.294 3.35318 140.904 3.35318C141.592 3.35318 142.221 3.46034 142.792 3.67466C143.369 3.88898 143.865 4.19397 144.281 4.58964L143.807 5.51286Z" fill="#D4001A"/>
<path d="M151.349 13.7971C151.809 13.7971 152.219 13.7202 152.58 13.5663C152.946 13.4124 153.253 13.1981 153.503 12.9233C153.758 12.6486 153.952 12.3189 154.085 11.9342C154.218 11.544 154.285 11.1126 154.285 10.64V3.48507H156.223V10.64C156.223 11.3379 156.109 11.9836 155.882 12.5771C155.66 13.1706 155.338 13.6845 154.917 14.1186C154.496 14.5472 153.983 14.8852 153.378 15.1325C152.779 15.3743 152.103 15.4952 151.349 15.4952C150.595 15.4952 149.916 15.3743 149.311 15.1325C148.712 14.8852 148.202 14.5472 147.781 14.1186C147.359 13.6845 147.035 13.1706 146.808 12.5771C146.586 11.9836 146.475 11.3379 146.475 10.64V3.48507H148.421V10.6318C148.421 11.1044 148.488 11.5358 148.621 11.9259C148.754 12.3106 148.945 12.6431 149.195 12.9233C149.444 13.1981 149.749 13.4124 150.11 13.5663C150.476 13.7202 150.889 13.7971 151.349 13.7971Z" fill="#D4001A"/>
<path d="M160.876 15.355H158.922V3.48507H160.876V15.355Z" fill="#D4001A"/>
<path d="M171.956 5.09246H168.222V15.355H166.284V5.09246H162.541V3.48507H171.956V5.09246Z" fill="#D4001A"/>
<path d="M181.1 13.7971L181.092 15.355H173.623V3.48507H181.092V5.043H175.577V8.62048H179.985V10.129H175.577V13.7971H181.1Z" fill="#D4001A"/>
<path d="M29.5688 11.7722C29.5688 12.3363 29.461 12.8384 29.2455 13.2785C29.0363 13.7186 28.7416 14.0937 28.3612 14.4036C27.9872 14.7074 27.5435 14.9367 27.03 15.0917C26.5229 15.2467 25.9746 15.3242 25.385 15.3242C24.973 15.3242 24.5895 15.2901 24.2345 15.2219C23.8859 15.1537 23.5721 15.07 23.2932 14.9708C23.0206 14.8716 22.7892 14.7694 22.599 14.664C22.4152 14.5586 22.2853 14.4687 22.2092 14.3943C22.1395 14.3199 22.0856 14.227 22.0475 14.1154C22.0158 13.9976 22 13.8426 22 13.6505C22 13.5141 22.0063 13.4025 22.019 13.3157C22.0317 13.2227 22.0507 13.1483 22.0761 13.0925C22.1014 13.0368 22.1331 12.9996 22.1712 12.981C22.2092 12.9562 22.2536 12.9438 22.3043 12.9438C22.393 12.9438 22.5166 12.9965 22.6751 13.1018C22.8399 13.2072 23.0491 13.3219 23.3027 13.4459C23.5562 13.5699 23.8605 13.6876 24.2155 13.7992C24.5768 13.9046 24.992 13.9573 25.4611 13.9573C25.8161 13.9573 26.1394 13.9108 26.431 13.8178C26.7289 13.7248 26.9825 13.5947 27.1917 13.4273C27.4072 13.2537 27.572 13.043 27.6861 12.795C27.8002 12.547 27.8573 12.265 27.8573 11.9488C27.8573 11.6079 27.778 11.3166 27.6195 11.0748C27.4611 10.833 27.2519 10.6223 26.992 10.4425C26.7321 10.2565 26.4341 10.0892 26.0982 9.9404C25.7686 9.78543 25.4294 9.63045 25.0808 9.47548C24.7321 9.31431 24.393 9.13764 24.0634 8.94547C23.7337 8.75331 23.439 8.52705 23.1791 8.26669C22.9192 8.00634 22.7068 7.70259 22.542 7.35545C22.3835 7.00211 22.3043 6.58059 22.3043 6.09087C22.3043 5.58876 22.3962 5.14244 22.58 4.7519C22.7702 4.35517 23.0301 4.02353 23.3597 3.75698C23.6957 3.49042 24.0919 3.28896 24.5483 3.15258C25.011 3.01001 25.5087 2.93872 26.0411 2.93872C26.3137 2.93872 26.5863 2.96352 26.8589 3.01311C27.1378 3.0565 27.3977 3.11849 27.6386 3.19908C27.8858 3.27346 28.1045 3.36025 28.2947 3.45943C28.4848 3.55241 28.6084 3.6299 28.6655 3.69189C28.7289 3.74768 28.7701 3.79417 28.7891 3.83136C28.8081 3.86236 28.824 3.90575 28.8366 3.96154C28.8493 4.01113 28.8588 4.07312 28.8652 4.14751C28.8715 4.2219 28.8747 4.31798 28.8747 4.43576C28.8747 4.54734 28.8683 4.64652 28.8557 4.73331C28.8493 4.82009 28.8366 4.89448 28.8176 4.95647C28.7986 5.01226 28.7701 5.05565 28.732 5.08665C28.7003 5.11144 28.6623 5.12384 28.6179 5.12384C28.5482 5.12384 28.4373 5.08045 28.2851 4.99366C28.1393 4.90688 27.9587 4.81079 27.7432 4.70541C27.5276 4.59383 27.2709 4.49465 26.973 4.40786C26.6814 4.31488 26.3517 4.26839 25.9841 4.26839C25.6418 4.26839 25.3438 4.31488 25.0903 4.40786C24.8367 4.49465 24.6275 4.61243 24.4627 4.7612C24.2979 4.90998 24.1743 5.08665 24.0919 5.29121C24.0095 5.49577 23.9683 5.71274 23.9683 5.9421C23.9683 6.27684 24.0475 6.56509 24.206 6.80685C24.3645 7.0486 24.5736 7.26247 24.8335 7.44843C25.0998 7.6344 25.4009 7.80487 25.7369 7.95984C26.0728 8.11482 26.4151 8.27289 26.7638 8.43406C27.1124 8.58904 27.4547 8.7626 27.7907 8.95477C28.1267 9.14074 28.4246 9.3639 28.6845 9.62425C28.9507 9.87841 29.1631 10.1822 29.3216 10.5355C29.4864 10.8826 29.5688 11.2949 29.5688 11.7722Z" fill="#BE202E"/>
<path d="M40.7794 14.9057C40.7794 14.9553 40.7667 14.9987 40.7413 15.0359C40.716 15.0731 40.6716 15.1041 40.6082 15.1289C40.5448 15.1475 40.4592 15.163 40.3515 15.1754C40.2501 15.194 40.1233 15.2033 39.9711 15.2033C39.8063 15.2033 39.6732 15.194 39.5718 15.1754C39.4704 15.163 39.3879 15.1475 39.3246 15.1289C39.2612 15.1041 39.2168 15.0731 39.1914 15.0359C39.1661 14.9987 39.1534 14.9553 39.1534 14.9057V9.56846H33.5529V14.9057C33.5529 14.9553 33.5402 14.9987 33.5148 15.0359C33.4895 15.0731 33.4451 15.1041 33.3817 15.1289C33.3183 15.1475 33.2328 15.163 33.125 15.1754C33.0236 15.194 32.8936 15.2033 32.7351 15.2033C32.583 15.2033 32.4531 15.194 32.3453 15.1754C32.2375 15.163 32.1519 15.1475 32.0886 15.1289C32.0252 15.1041 31.9808 15.0731 31.9554 15.0359C31.9301 14.9987 31.9174 14.9553 31.9174 14.9057V3.35715C31.9174 3.30756 31.9301 3.26416 31.9554 3.22697C31.9808 3.18978 32.0252 3.16188 32.0886 3.14329C32.1519 3.11849 32.2375 3.09989 32.3453 3.08749C32.4531 3.0689 32.583 3.0596 32.7351 3.0596C32.8936 3.0596 33.0236 3.0689 33.125 3.08749C33.2328 3.09989 33.3183 3.11849 33.3817 3.14329C33.4451 3.16188 33.4895 3.18978 33.5148 3.22697C33.5402 3.26416 33.5529 3.30756 33.5529 3.35715V8.17371H39.1534V3.35715C39.1534 3.30756 39.1661 3.26416 39.1914 3.22697C39.2168 3.18978 39.2612 3.16188 39.3246 3.14329C39.3879 3.11849 39.4704 3.09989 39.5718 3.08749C39.6732 3.0689 39.8063 3.0596 39.9711 3.0596C40.1233 3.0596 40.2501 3.0689 40.3515 3.08749C40.4592 3.09989 40.5448 3.11849 40.6082 3.14329C40.6716 3.16188 40.716 3.18978 40.7413 3.22697C40.7667 3.26416 40.7794 3.30756 40.7794 3.35715V14.9057Z" fill="#BE202E"/>
<path d="M52.2562 14.9057C52.2562 14.9553 52.2467 14.9987 52.2276 15.0359C52.2086 15.0731 52.1674 15.1041 52.104 15.1289C52.0406 15.1537 51.9519 15.1723 51.8378 15.1847C51.7237 15.1971 51.5716 15.2033 51.3814 15.2033C51.2166 15.2033 51.0803 15.1971 50.9725 15.1847C50.8711 15.1723 50.7887 15.1537 50.7253 15.1289C50.6619 15.0979 50.6112 15.0576 50.5732 15.008C50.5415 14.9584 50.5129 14.8964 50.4876 14.822L49.3561 11.986C49.2229 11.6637 49.0835 11.3693 48.9377 11.1027C48.7982 10.8299 48.6302 10.5975 48.4337 10.4053C48.2372 10.207 48.0058 10.0551 47.7396 9.9497C47.4734 9.83812 47.1533 9.78233 46.7792 9.78233H45.6858V14.9057C45.6858 14.9553 45.6699 14.9987 45.6382 15.0359C45.6129 15.0731 45.5685 15.1041 45.5051 15.1289C45.4481 15.1475 45.3656 15.163 45.2579 15.1754C45.1565 15.194 45.0265 15.2033 44.868 15.2033C44.7096 15.2033 44.5764 15.194 44.4687 15.1754C44.3673 15.163 44.2848 15.1475 44.2215 15.1289C44.1581 15.1041 44.1137 15.0731 44.0883 15.0359C44.063 14.9987 44.0503 14.9553 44.0503 14.9057V3.76628C44.0503 3.52452 44.1137 3.35715 44.2405 3.26416C44.3736 3.16498 44.513 3.11539 44.6588 3.11539H47.2737C47.5843 3.11539 47.841 3.12469 48.0439 3.14329C48.2531 3.15568 48.4401 3.17118 48.6049 3.18978C49.0803 3.27036 49.4987 3.39744 49.86 3.57101C50.2277 3.74458 50.5351 3.96464 50.7823 4.2312C51.0296 4.49775 51.2134 4.8046 51.3338 5.15173C51.4606 5.49268 51.524 5.87081 51.524 6.28614C51.524 6.68907 51.467 7.0517 51.3529 7.37405C51.2451 7.69019 51.0866 7.97224 50.8774 8.2202C50.6682 8.46196 50.4178 8.67272 50.1263 8.85249C49.8347 9.03226 49.5082 9.18413 49.1469 9.30811C49.3497 9.39489 49.5336 9.50647 49.6984 9.64285C49.8632 9.77303 50.0153 9.9311 50.1548 10.1171C50.3006 10.303 50.4369 10.5169 50.5636 10.7587C50.6904 11.0004 50.8172 11.2732 50.944 11.5769L52.047 14.227C52.1357 14.4501 52.1928 14.6082 52.2181 14.7012C52.2435 14.788 52.2562 14.8561 52.2562 14.9057ZM49.7935 6.45351C49.7935 5.98239 49.6857 5.58566 49.4702 5.26332C49.2546 4.93477 48.8933 4.69921 48.3862 4.55664C48.2277 4.51325 48.0471 4.48225 47.8442 4.46365C47.6477 4.44506 47.3878 4.43576 47.0645 4.43576H45.6858V8.48985H47.2832C47.7143 8.48985 48.0851 8.44026 48.3957 8.34108C48.7127 8.2357 48.9757 8.09312 49.1849 7.91335C49.3941 7.72739 49.5462 7.51042 49.6413 7.26247C49.7427 7.01451 49.7935 6.74486 49.7935 6.45351Z" fill="#BE202E"/>
<path d="M56.2593 14.9057C56.2593 14.9553 56.2466 14.9987 56.2212 15.0359C56.1959 15.0731 56.1515 15.1041 56.0881 15.1289C56.0247 15.1475 55.9391 15.163 55.8314 15.1754C55.73 15.194 55.6 15.2033 55.4415 15.2033C55.2894 15.2033 55.1594 15.194 55.0517 15.1754C54.9439 15.163 54.8583 15.1475 54.7949 15.1289C54.7316 15.1041 54.6872 15.0731 54.6618 15.0359C54.6365 14.9987 54.6238 14.9553 54.6238 14.9057V3.35715C54.6238 3.30756 54.6365 3.26416 54.6618 3.22697C54.6935 3.18978 54.7411 3.16188 54.8045 3.14329C54.8742 3.11849 54.9598 3.09989 55.0612 3.08749C55.1689 3.0689 55.2957 3.0596 55.4415 3.0596C55.6 3.0596 55.73 3.0689 55.8314 3.08749C55.9391 3.09989 56.0247 3.11849 56.0881 3.14329C56.1515 3.16188 56.1959 3.18978 56.2212 3.22697C56.2466 3.26416 56.2593 3.30756 56.2593 3.35715V14.9057Z" fill="#BE202E"/>
<path d="M68.8295 14.4873C68.8295 14.6113 68.8074 14.7167 68.763 14.8035C68.725 14.8902 68.6711 14.9615 68.6013 15.0173C68.538 15.0731 68.4651 15.1134 68.3826 15.1382C68.3002 15.163 68.2178 15.1754 68.1354 15.1754H67.6125C67.4476 15.1754 67.3018 15.1599 67.1751 15.1289C67.0546 15.0917 66.9373 15.0297 66.8232 14.9429C66.7155 14.8499 66.6045 14.726 66.4904 14.571C66.3827 14.416 66.2622 14.2177 66.1291 13.9759L62.2496 7.13229C62.0468 6.77895 61.8408 6.41012 61.6316 6.02578C61.4287 5.63525 61.2386 5.25712 61.0611 4.89138H61.0421C61.0547 5.3377 61.0642 5.79332 61.0706 6.25824C61.0769 6.72316 61.0801 7.18498 61.0801 7.6437V14.9057C61.0801 14.9491 61.0674 14.9925 61.0421 15.0359C61.0167 15.0731 60.9723 15.1041 60.9089 15.1289C60.8519 15.1475 60.7726 15.163 60.6712 15.1754C60.5761 15.194 60.4525 15.2033 60.3004 15.2033C60.1483 15.2033 60.0215 15.194 59.92 15.1754C59.825 15.163 59.7489 15.1475 59.6918 15.1289C59.6348 15.1041 59.5936 15.0731 59.5682 15.0359C59.5429 14.9925 59.5302 14.9491 59.5302 14.9057V3.80347C59.5302 3.55551 59.5999 3.37884 59.7394 3.27346C59.8788 3.16808 60.031 3.11539 60.1958 3.11539H60.9755C61.1593 3.11539 61.3115 3.13089 61.4319 3.16188C61.5587 3.19288 61.6696 3.24557 61.7647 3.31995C61.8661 3.38814 61.9612 3.48733 62.05 3.6175C62.145 3.74148 62.2465 3.89955 62.3542 4.09172L65.3399 9.3732C65.5237 9.69554 65.7012 10.0117 65.8724 10.3216C66.0435 10.6254 66.2084 10.926 66.3668 11.2236C66.5253 11.5211 66.6806 11.8156 66.8328 12.1069C66.9912 12.3921 67.1465 12.6803 67.2987 12.9717H67.3082C67.2955 12.482 67.286 11.9736 67.2797 11.4467C67.2797 10.9136 67.2797 10.4022 67.2797 9.9125V3.38504C67.2797 3.34165 67.2923 3.30136 67.3177 3.26416C67.343 3.22697 67.3843 3.19598 67.4413 3.17118C67.5047 3.14019 67.5839 3.11849 67.679 3.10609C67.7804 3.09369 67.9104 3.08749 68.0689 3.08749C68.2083 3.08749 68.3288 3.09369 68.4302 3.10609C68.5316 3.11849 68.6109 3.14019 68.6679 3.17118C68.725 3.19598 68.7662 3.22697 68.7915 3.26416C68.8169 3.30136 68.8295 3.34165 68.8295 3.38504V14.4873Z" fill="#BE202E"/>
<path d="M80.1257 14.8871C80.1257 14.9367 80.113 14.9832 80.0877 15.0266C80.0686 15.0638 80.0274 15.0948 79.964 15.1196C79.9007 15.1444 79.8151 15.163 79.7073 15.1754C79.5996 15.194 79.4601 15.2033 79.2889 15.2033C79.0671 15.2033 78.8864 15.194 78.747 15.1754C78.6075 15.1568 78.5029 15.1227 78.4332 15.0731C78.3634 15.0235 78.3064 14.9677 78.262 14.9057L73.736 8.88968V14.9057C73.736 14.9491 73.7233 14.9925 73.6979 15.0359C73.6726 15.0731 73.6282 15.1041 73.5648 15.1289C73.5014 15.1475 73.4158 15.163 73.3081 15.1754C73.2066 15.194 73.0767 15.2033 72.9182 15.2033C72.7661 15.2033 72.6361 15.194 72.5284 15.1754C72.4206 15.163 72.335 15.1475 72.2716 15.1289C72.2082 15.1041 72.1639 15.0731 72.1385 15.0359C72.1132 14.9925 72.1005 14.9491 72.1005 14.9057V3.35715C72.1005 3.30756 72.1132 3.26416 72.1385 3.22697C72.1639 3.18978 72.2082 3.16188 72.2716 3.14329C72.335 3.11849 72.4206 3.09989 72.5284 3.08749C72.6361 3.0689 72.7661 3.0596 72.9182 3.0596C73.0767 3.0596 73.2066 3.0689 73.3081 3.08749C73.4158 3.09989 73.5014 3.11849 73.5648 3.14329C73.6282 3.16188 73.6726 3.18978 73.6979 3.22697C73.7233 3.26416 73.736 3.30756 73.736 3.35715V8.70371L78.0909 3.35715C78.1289 3.30136 78.1733 3.25487 78.224 3.21767C78.2747 3.18048 78.3349 3.15258 78.4046 3.13399C78.4807 3.10919 78.5695 3.09059 78.6709 3.0782C78.7786 3.0658 78.9149 3.0596 79.0798 3.0596C79.2446 3.0596 79.3777 3.0689 79.4791 3.08749C79.5805 3.09989 79.6598 3.11849 79.7168 3.14329C79.7802 3.16808 79.8214 3.19908 79.8404 3.23627C79.8658 3.27346 79.8785 3.31376 79.8785 3.35715C79.8785 3.43773 79.8563 3.51832 79.8119 3.59891C79.7739 3.67949 79.6978 3.79107 79.5837 3.93365L75.5045 8.70371L79.8975 14.4129C80.0052 14.5741 80.0686 14.6857 80.0877 14.7477C80.113 14.8035 80.1257 14.8499 80.1257 14.8871Z" fill="#BE202E"/>
<path d="M95.5343 14.9057C95.5343 14.9553 95.5216 14.9987 95.4962 15.0359C95.4709 15.0731 95.4265 15.1041 95.3631 15.1289C95.2997 15.1475 95.2173 15.163 95.1159 15.1754C95.0208 15.194 94.894 15.2033 94.7356 15.2033C94.5898 15.2033 94.463 15.194 94.3552 15.1754C94.2538 15.163 94.1714 15.1475 94.108 15.1289C94.0509 15.1041 94.0097 15.0731 93.9844 15.0359C93.959 14.9987 93.9463 14.9553 93.9463 14.9057V4.42643H93.9273L89.5439 14.9522C89.5249 14.9956 89.4964 15.0328 89.4583 15.0638C89.4266 15.0948 89.3759 15.1227 89.3062 15.1475C89.2428 15.1661 89.1636 15.1785 89.0685 15.1847C88.9797 15.1971 88.872 15.2033 88.7452 15.2033C88.6121 15.2033 88.498 15.1971 88.4029 15.1847C88.3078 15.1723 88.2285 15.1568 88.1652 15.1382C88.1018 15.1134 88.0511 15.0855 88.013 15.0545C87.9813 15.0235 87.9591 14.9894 87.9465 14.9522L83.7532 4.42643H83.7437V14.9057C83.7437 14.9553 83.731 14.9987 83.7057 15.0359C83.6803 15.0731 83.6359 15.1041 83.5725 15.1289C83.5091 15.1475 83.4267 15.163 83.3253 15.1754C83.2239 15.194 83.0939 15.2033 82.9355 15.2033C82.7833 15.2033 82.6565 15.194 82.5551 15.1754C82.4537 15.163 82.3713 15.1475 82.3079 15.1289C82.2508 15.1041 82.2096 15.0731 82.1843 15.0359C82.1653 14.9987 82.1558 14.9553 82.1558 14.9057V3.84063C82.1558 3.58028 82.2255 3.39431 82.3649 3.28273C82.5044 3.17115 82.6597 3.11536 82.8309 3.11536H83.8198C84.0226 3.11536 84.2001 3.13396 84.3522 3.17115C84.5044 3.20834 84.6375 3.26723 84.7516 3.34782C84.8657 3.42841 84.9608 3.53069 85.0368 3.65467C85.1129 3.77864 85.1795 3.92432 85.2365 4.09169L88.8022 12.8043H88.8498L92.5581 4.11959C92.6278 3.93362 92.7039 3.77555 92.7863 3.64537C92.8687 3.51519 92.9575 3.41291 93.0525 3.33852C93.154 3.25794 93.2649 3.20215 93.3853 3.17115C93.5058 3.13396 93.6452 3.11536 93.8037 3.11536H94.8402C94.9352 3.11536 95.024 3.13086 95.1064 3.16185C95.1951 3.18665 95.268 3.23004 95.3251 3.29203C95.3885 3.34782 95.4392 3.42221 95.4772 3.51519C95.5153 3.60198 95.5343 3.71046 95.5343 3.84063V14.9057Z" fill="#182955"/>
<path d="M108.028 14.5803C108.079 14.7166 108.105 14.8282 108.105 14.915C108.111 14.9956 108.089 15.0576 108.038 15.101C107.987 15.1444 107.902 15.1723 107.781 15.1847C107.667 15.1971 107.512 15.2033 107.315 15.2033C107.119 15.2033 106.96 15.1971 106.84 15.1847C106.726 15.1785 106.637 15.1661 106.574 15.1475C106.517 15.1227 106.472 15.0917 106.441 15.0545C106.415 15.0173 106.39 14.9708 106.365 14.915L105.309 11.986H100.193L99.1856 14.8778C99.1665 14.9336 99.1412 14.9832 99.1095 15.0266C99.0778 15.0638 99.0302 15.0979 98.9669 15.1289C98.9098 15.1537 98.8242 15.1723 98.7101 15.1847C98.6024 15.1971 98.4597 15.2033 98.2822 15.2033C98.0984 15.2033 97.9463 15.194 97.8258 15.1754C97.7117 15.163 97.6293 15.1351 97.5786 15.0917C97.5342 15.0483 97.5121 14.9863 97.5121 14.9057C97.5184 14.8189 97.5469 14.7073 97.5976 14.571L101.724 3.39431C101.75 3.32612 101.781 3.27033 101.819 3.22694C101.864 3.18355 101.924 3.14945 102 3.12466C102.082 3.09986 102.184 3.08437 102.304 3.07817C102.431 3.06577 102.59 3.05957 102.78 3.05957C102.983 3.05957 103.151 3.06577 103.284 3.07817C103.417 3.08437 103.525 3.09986 103.607 3.12466C103.689 3.14945 103.753 3.18665 103.797 3.23624C103.842 3.27963 103.876 3.33542 103.902 3.40361L108.028 14.5803ZM102.732 4.71468H102.723L100.602 10.7121H104.881L102.732 4.71468Z" fill="#182955"/>
<path d="M119.391 14.4873C119.391 14.6113 119.369 14.7166 119.325 14.8034C119.287 14.8902 119.233 14.9615 119.163 15.0173C119.1 15.0731 119.027 15.1134 118.944 15.1382C118.862 15.163 118.779 15.1754 118.697 15.1754H118.174C118.009 15.1754 117.863 15.1599 117.737 15.1289C117.616 15.0917 117.499 15.0297 117.385 14.9429C117.277 14.8499 117.166 14.7259 117.052 14.571C116.944 14.416 116.824 14.2176 116.691 13.9759L112.811 7.13226C112.608 6.77892 112.402 6.41009 112.193 6.02575C111.99 5.63522 111.8 5.25709 111.623 4.89135H111.604C111.616 5.33767 111.626 5.79329 111.632 6.25821C111.639 6.72313 111.642 7.18495 111.642 7.64367V14.9057C111.642 14.9491 111.629 14.9925 111.604 15.0359C111.578 15.0731 111.534 15.1041 111.471 15.1289C111.414 15.1475 111.334 15.163 111.233 15.1754C111.138 15.194 111.014 15.2033 110.862 15.2033C110.71 15.2033 110.583 15.194 110.482 15.1754C110.387 15.163 110.311 15.1475 110.253 15.1289C110.196 15.1041 110.155 15.0731 110.13 15.0359C110.105 14.9925 110.092 14.9491 110.092 14.9057V3.80344C110.092 3.55548 110.162 3.37881 110.301 3.27343C110.44 3.16805 110.593 3.11536 110.757 3.11536H111.537C111.721 3.11536 111.873 3.13086 111.994 3.16185C112.12 3.19285 112.231 3.24554 112.326 3.31992C112.428 3.38811 112.523 3.4873 112.612 3.61747C112.707 3.74145 112.808 3.89952 112.916 4.09169L115.902 9.37317C116.085 9.69551 116.263 10.0117 116.434 10.3216C116.605 10.6254 116.77 10.926 116.928 11.2235C117.087 11.5211 117.242 11.8155 117.394 12.1069C117.553 12.392 117.708 12.6803 117.86 12.9716H117.87C117.857 12.4819 117.848 11.9736 117.841 11.4467C117.841 10.9136 117.841 10.4022 117.841 9.91247V3.38501C117.841 3.34162 117.854 3.30133 117.879 3.26413C117.905 3.22694 117.946 3.19595 118.003 3.17115C118.066 3.14016 118.146 3.11846 118.241 3.10606C118.342 3.09366 118.472 3.08747 118.631 3.08747C118.77 3.08747 118.89 3.09366 118.992 3.10606C119.093 3.11846 119.173 3.14016 119.23 3.17115C119.287 3.19595 119.328 3.22694 119.353 3.26413C119.379 3.30133 119.391 3.34162 119.391 3.38501V14.4873Z" fill="#182955"/>
<path d="M127.988 1.64304C128.569 1.64304 129.137 1.78967 129.691 2.08295C130.245 2.37323 130.676 2.79069 130.985 3.33534C131.294 3.877 131.449 4.4426 131.449 5.03213C131.449 5.61569 131.296 6.1768 130.99 6.71546C130.687 7.25413 130.26 7.67309 129.709 7.97235C129.161 8.26861 128.588 8.41674 127.988 8.41674C127.388 8.41674 126.813 8.26861 126.262 7.97235C125.714 7.67309 125.287 7.25413 124.981 6.71546C124.675 6.1768 124.522 5.61569 124.522 5.03213C124.522 4.4426 124.677 3.877 124.986 3.33534C125.298 2.79069 125.731 2.37323 126.285 2.08295C126.839 1.78967 127.406 1.64304 127.988 1.64304ZM127.988 2.20414C127.501 2.20414 127.027 2.32684 126.565 2.57223C126.106 2.81463 125.746 3.16327 125.486 3.61814C125.226 4.07002 125.096 4.54135 125.096 5.03213C125.096 5.51993 125.223 5.98826 125.477 6.43715C125.734 6.88305 126.092 7.23168 126.551 7.48306C127.01 7.73144 127.489 7.85564 127.988 7.85564C128.487 7.85564 128.966 7.73144 129.425 7.48306C129.884 7.23168 130.24 6.88305 130.494 6.43715C130.748 5.98826 130.875 5.51993 130.875 5.03213C130.875 4.54135 130.745 4.07002 130.485 3.61814C130.228 3.16327 129.868 2.81463 129.406 2.57223C128.944 2.32684 128.471 2.20414 127.988 2.20414ZM126.468 6.90399V3.25903H127.749C128.187 3.25903 128.503 3.29344 128.699 3.36227C128.895 3.42811 129.051 3.54482 129.168 3.71241C129.284 3.87999 129.342 4.05805 129.342 4.24658C129.342 4.51292 129.244 4.74485 129.048 4.94236C128.855 5.13987 128.598 5.25059 128.277 5.27453C128.409 5.3284 128.514 5.39274 128.594 5.46756C128.744 5.6112 128.927 5.8521 129.145 6.19026L129.599 6.90399H128.865L128.534 6.32942C128.274 5.87754 128.064 5.59474 127.905 5.48102C127.795 5.39723 127.634 5.35533 127.423 5.35533H127.07V6.90399H126.468ZM127.07 4.85258H127.8C128.148 4.85258 128.386 4.80171 128.511 4.69996C128.64 4.59821 128.704 4.46354 128.704 4.29596C128.704 4.18823 128.673 4.09246 128.612 4.00867C128.551 3.92189 128.465 3.85755 128.355 3.81565C128.248 3.77375 128.047 3.75281 127.754 3.75281H127.07V4.85258Z" fill="#182955"/>
<path fill-rule="evenodd" clip-rule="evenodd" d="M5.13122 10.8941C5.53374 10.9435 5.98654 10.6405 6.26275 10.3947C6.31979 10.344 6.35694 10.3067 6.41051 10.2621C6.46642 10.2155 6.50309 10.1727 6.55645 10.1272C6.72808 9.9807 7.10891 9.57543 7.25813 9.45558L7.58827 9.22512C7.64341 9.1941 7.71819 9.17164 7.76429 9.12755C7.70777 9.06995 7.63902 8.98488 7.57665 8.93112C7.33532 8.72311 7.23153 8.60718 6.89573 8.44419C6.46105 8.2332 5.80331 8.06374 5.40831 8.47022C5.31385 8.56743 5.31939 8.57131 5.28378 8.73722C5.14983 9.36134 5.36489 10.1437 5.25442 10.6238C5.22401 10.7559 5.17798 10.8061 5.13122 10.8941ZM12.4721 7.38419C12.5175 7.37115 12.4993 7.40413 12.5015 7.46188C12.5027 7.49582 12.4991 7.54667 12.4976 7.58159L12.4999 7.78761L12.2675 7.87989C12.3294 8.02162 12.4155 8.17643 12.438 8.35581L13.0252 8.86679C13.0915 8.92689 13.1473 9.01188 13.2169 9.05247C13.2794 8.83572 13.3314 8.55234 13.382 8.33129C13.4655 7.96616 13.9063 6.37827 13.9145 6.17654C13.8842 6.09297 13.7974 5.95541 13.7505 5.87152C13.6946 5.77149 13.6435 5.66426 13.5808 5.57169C13.5326 5.6433 13.5095 5.72897 13.4567 5.81011C13.3092 6.03677 13.1648 6.23368 12.9734 6.42131C12.9087 6.4847 12.8547 6.54023 12.7782 6.60039C12.7367 6.63303 12.6005 6.71862 12.5697 6.75027C12.4817 6.84062 12.4588 7.22954 12.4721 7.38419ZM8.02961 6.84987C7.96068 6.86358 7.96878 6.91281 7.90447 6.95351C7.86619 6.97773 7.78583 7.00401 7.73762 7.01848C7.59407 7.06157 7.45647 7.06272 7.30201 7.04536C7.26851 7.07921 6.81017 7.22487 6.7235 7.25845C6.5481 7.32642 6.33183 7.42217 6.18398 7.51074C5.89421 7.68433 5.52404 8.01327 5.41981 8.33681C5.58184 8.24432 5.67421 8.15765 5.92306 8.14116C6.13965 8.1268 6.35418 8.17267 6.55228 8.2279C6.96857 8.34397 7.19855 8.51088 7.46701 8.7271C7.50343 8.75643 7.52032 8.78022 7.55562 8.80982C7.69668 8.92812 7.632 8.88195 7.72962 8.97935L8.71325 10.1368C8.73215 10.161 8.73256 10.1645 8.75433 10.1892L8.80501 10.2381L8.81543 10.0982C8.82501 9.48882 8.90905 8.91358 9.06775 8.36908C9.08951 8.28352 9.18948 8.12356 9.23552 8.054C9.27364 7.99642 9.30425 7.9517 9.33887 7.90698C9.37215 7.864 9.41478 7.81999 9.4417 7.7853L9.44389 7.58223C9.44218 7.54752 9.43853 7.4972 9.44007 7.46325C9.44087 7.4458 9.44167 7.43546 9.44508 7.41838C9.45115 7.38791 9.45226 7.39136 9.4595 7.37936C9.4971 7.24461 9.45341 6.98838 9.41876 6.86199C9.38858 6.75193 9.38126 6.75455 9.29873 6.69969C9.24045 6.66095 9.19292 6.63286 9.14631 6.58602C9.01695 6.58777 8.72174 6.67956 8.57966 6.7139C8.4137 6.75402 8.18814 6.83037 8.02961 6.84987ZM0.0910255 7.76093C0.0593372 8.08604 0.33301 8.4228 0.516837 8.59483L0.890706 8.97038C1.06542 9.13651 1.46632 9.56341 1.61111 9.74927C1.76626 9.94844 1.71057 9.90619 1.79969 10.0841C2.08832 10.0197 2.589 9.53471 2.71217 9.46586C2.67277 9.36428 2.51967 9.24363 2.44301 9.16233C2.39401 9.11037 2.3526 9.07193 2.30414 9.02016C2.25232 8.96479 2.22414 8.92431 2.16997 8.87332C2.11769 8.82412 2.07694 8.78808 2.02274 8.73947L1.73404 8.46657C1.45692 8.24208 1.35173 8.10186 0.949586 7.84866C0.659028 7.66573 0.431973 7.59323 0.0910255 7.76093ZM0.422833 9.74944C0.606002 9.79236 1.41603 10.2553 1.70913 10.1303C1.71864 9.91701 1.35744 9.58675 1.22442 9.4346C1.15843 9.35911 1.09642 9.2958 1.03224 9.22481C0.983752 9.24602 0.453409 9.69197 0.422833 9.74944ZM10.701 9.75867C10.6451 10.0944 10.5624 10.4513 10.484 10.7811C10.4451 10.9451 10.4067 11.1119 10.3643 11.2739C10.3274 11.415 10.2485 11.6319 10.2352 11.7625C10.2303 11.8354 10.3078 11.8733 10.4096 11.9543C10.8611 12.3135 11.3443 12.7018 11.9714 12.6843C12.0653 12.6817 12.221 12.6222 12.2818 12.6421C12.3161 12.6023 12.3657 12.5175 12.4014 12.4902L12.9129 11.7473C12.8652 11.7224 12.8909 11.7655 12.8882 11.6995L12.9514 11.5455C12.9993 11.4767 13.0426 11.4536 13.087 11.3991L13.0813 11.2387C12.9913 11.1687 12.9041 11.1249 12.8115 11.066C12.3304 10.7596 12.0164 10.5283 11.5847 10.1592C11.3744 9.9794 11.322 9.90047 11.1572 9.7511C10.9179 9.82037 10.9293 9.78171 10.701 9.75867ZM8.1262 6.69066L8.11107 6.74116L9.05103 6.51033C8.97257 6.41095 8.82729 6.30779 8.63312 6.03852C8.59826 5.99017 8.554 5.90781 8.51236 5.8704C8.38116 6.13655 8.25316 6.41765 8.1262 6.69066ZM7.13344 7.00879C6.94729 6.95121 6.92077 6.88343 6.79699 6.78786C6.73178 6.73752 6.55063 6.57249 6.51222 6.51672C6.45286 6.49087 6.4165 6.47161 6.37588 6.42929C6.33783 6.38965 6.31098 6.36738 6.27576 6.31211C6.20516 6.24459 6.16151 6.18933 6.09497 6.12111C5.79726 6.08646 4.69381 6.17075 4.34617 6.20663C3.34123 6.31033 2.21881 6.48798 1.29738 6.86837C1.07525 6.96007 0.860001 7.06109 0.681006 7.18444C0.508848 7.30308 0.274904 7.46714 0.181726 7.62492C0.82117 7.47707 1.2004 7.93649 1.65676 8.29273C1.84594 8.4404 2.60612 9.19367 2.77787 9.40381L2.98424 9.63468C3.24214 9.90385 3.22722 10.0382 3.62152 10.3407C3.97736 10.6137 4.40564 10.8143 4.86701 10.8826C4.93804 10.8931 4.9874 10.9076 5.03287 10.8716C5.06183 10.8486 5.10647 10.7886 5.12735 10.7466C5.44071 10.1164 4.6409 8.51992 5.9321 7.58408C6.093 7.46746 6.28145 7.35577 6.49911 7.26498C6.57938 7.23149 7.11325 7.04147 7.13344 7.00879Z" fill="#064494"/>
<path fill-rule="evenodd" clip-rule="evenodd" d="M9.06775 8.36902L9.34011 8.49539C9.41723 8.52652 9.68285 8.66479 9.70943 8.71496C9.87387 8.77904 10.1573 9.06319 10.2629 9.1755C10.4121 9.33409 10.586 9.53037 10.701 9.75861C10.9293 9.78166 10.9179 9.82032 11.1572 9.75105C11.2617 9.47189 11.8686 8.68791 12.0422 8.62013C12.0655 8.58311 12.0716 8.57856 12.1166 8.55625C12.1492 8.50581 12.3589 8.38029 12.438 8.35576C12.4155 8.17638 12.3294 8.02157 12.2675 7.87984C11.9577 7.97116 11.6302 8.10271 11.275 8.1177C11.1856 8.14082 11.159 8.19058 11.0177 8.19372C10.8674 8.19705 10.8447 8.1529 10.7441 8.13345C10.2496 8.10858 9.83516 7.96692 9.4417 7.78525C9.41478 7.81994 9.37215 7.86395 9.33887 7.90693C9.30425 7.95165 9.27364 7.99637 9.23552 8.05395C9.18947 8.1235 9.0895 8.28347 9.06775 8.36902Z" fill="#020100"/>
<path fill-rule="evenodd" clip-rule="evenodd" d="M11.4718 1.58945C11.389 1.75162 11.0206 1.73948 11.0566 1.58349C11.0968 1.40965 11.3936 1.41728 11.4718 1.58945ZM10.2389 1.58945C10.3099 1.41708 10.6156 1.41113 10.6534 1.58424C10.6884 1.74491 10.3132 1.74644 10.2389 1.58945ZM10.0402 0.655188L9.97909 1.37955C9.95832 1.77672 9.95737 2.14641 9.95386 2.54313L10.0348 2.74142C10.0632 2.77771 10.0786 2.82907 10.106 2.87576C10.135 2.9253 10.1664 2.9657 10.1911 3.01081C10.2431 3.08341 10.3305 3.20247 10.3839 3.24881C10.4246 3.22972 10.392 3.26037 10.4041 3.20483C10.3137 3.10497 10.2333 2.60077 10.2574 2.42345C10.3235 1.93734 10.5336 1.97684 10.7783 1.97006C10.8001 1.91269 10.7981 1.86114 10.8651 1.8544C10.9412 1.84675 10.9309 1.90397 10.975 1.9594C11.25 1.96831 11.418 1.99704 11.4315 2.41249C11.4396 2.65879 11.3729 2.99001 11.3103 3.2124C11.3016 3.30026 11.303 3.23634 11.3252 3.25811C11.3825 3.2136 11.4605 3.10621 11.5127 3.03357C11.5561 2.97319 11.6329 2.81366 11.6655 2.77978C11.6989 2.66103 11.7513 2.61135 11.7526 2.46121C11.7539 2.32516 11.7537 2.18514 11.7516 2.04917L11.709 1.34797L11.6653 0.65507L11.6197 0.628143C11.5259 0.7172 11.1959 0.740904 11.0495 0.753973C10.8228 0.774218 10.6413 0.753414 10.415 0.73932L10.315 0.834521L10.4445 1.14005L10.1704 0.815147L10.2188 0.713635L10.0402 0.655188Z" fill="#D4001A"/>
<path fill-rule="evenodd" clip-rule="evenodd" d="M0.422893 9.74942C0.453467 9.69194 0.983812 9.246 1.0323 9.22478C1.09647 9.29578 1.15848 9.35908 1.22448 9.43458C1.3575 9.58672 1.7187 9.91699 1.70919 10.1303C1.41609 10.2553 0.606061 9.79234 0.422893 9.74942ZM5.13128 10.8941C5.17804 10.8061 5.22407 10.7559 5.25448 10.6237C5.36495 10.1437 5.14989 9.36132 5.28384 8.7372C5.31944 8.57129 5.3139 8.56741 5.40837 8.4702C5.80337 8.06372 6.46111 8.23317 6.89578 8.44417C7.23159 8.60716 7.33538 8.72309 7.57671 8.9311C7.63908 8.98486 7.70783 9.06992 7.76435 9.12752C7.71825 9.17162 7.64347 9.19407 7.58833 9.22509L7.25819 9.45556C7.10897 9.5754 6.72814 9.98067 6.55651 10.1271C6.50315 10.1727 6.46648 10.2155 6.41056 10.2621C6.357 10.3067 6.31985 10.344 6.26281 10.3947C5.98659 10.6405 5.5338 10.9435 5.13128 10.8941ZM0.949644 7.84864C1.35179 8.10183 1.45698 8.24206 1.7341 8.46654L2.0228 8.73945C2.077 8.78806 2.11775 8.82409 2.17003 8.8733C2.2242 8.92429 2.25238 8.96477 2.3042 9.02013C2.35265 9.0719 2.39407 9.11034 2.44307 9.16231C2.51973 9.2436 2.67283 9.36426 2.71223 9.46583C2.58906 9.53468 2.08838 10.0197 1.79975 10.0841C1.71063 9.90617 1.76632 9.94842 1.61117 9.74925C1.46638 9.56339 1.06548 9.13648 0.890766 8.97035L0.516896 8.5948C0.33307 8.42278 0.0593962 8.08601 0.0910854 7.76091C0.432033 7.5932 0.659087 7.6657 0.949644 7.84864ZM8.8084 10.3828L8.81549 10.0982L8.80507 10.2381L8.75439 10.1892C8.73262 10.1645 8.73221 10.1609 8.71331 10.1368L7.72968 8.97932C7.63206 8.88193 7.69673 8.92809 7.55568 8.8098C7.52038 8.7802 7.50349 8.75641 7.46707 8.72707C7.19861 8.51086 6.96863 8.34394 6.55234 8.22788C6.35424 8.17265 6.13971 8.12678 5.92312 8.14113C5.67427 8.15762 5.58189 8.2443 5.41987 8.33679C5.5241 8.01325 5.89427 7.6843 6.18404 7.51071C6.33188 7.42214 6.54816 7.3264 6.72355 7.25843C6.81022 7.22484 7.26857 7.07919 7.30207 7.04534L7.1335 7.00877C7.11331 7.04145 6.57944 7.23147 6.49917 7.26495C6.28151 7.35575 6.09306 7.46744 5.93215 7.58406C4.64096 8.5199 5.44077 10.1164 5.12741 10.7466C5.10653 10.7886 5.06189 10.8486 5.03293 10.8715C4.98746 10.9076 4.9381 10.8931 4.86707 10.8826C4.4057 10.8143 3.97742 10.6136 3.62158 10.3407C3.22728 10.0382 3.2422 9.90382 2.9843 9.63466L2.77792 9.40379C2.60618 9.19364 1.846 8.44037 1.65682 8.2927C1.20046 7.93646 0.82123 7.47705 0.181784 7.6249C0.274962 7.46712 0.508907 7.30306 0.681064 7.18442C0.86006 7.06107 1.07531 6.96005 1.29744 6.86834C2.21886 6.48795 3.34129 6.31031 4.34622 6.2066C4.69387 6.17073 5.79732 6.08644 6.09503 6.12108C6.07552 6.08666 6.06829 6.08508 6.04838 6.05394C5.95295 5.90472 6.00467 5.99879 5.95217 5.93251L5.9073 5.86533C5.88174 5.90486 5.92717 5.8806 5.8468 5.91314C5.84513 5.91381 5.79358 5.92787 5.78661 5.92981C5.28439 6.06964 5.39416 6.04112 4.83747 6.08174C3.79735 6.15762 2.60064 6.33559 1.64066 6.65108C1.20175 6.79532 0.72715 7.01512 0.383525 7.3057L0.0702983 7.61706C-0.204684 7.98908 0.398513 8.59295 0.651377 8.85224C0.719402 8.92199 0.934531 9.09139 0.960672 9.18183C0.872558 9.22715 0.707223 9.38673 0.616098 9.46153C0.552756 9.51352 0.319424 9.69639 0.303322 9.76097C0.358809 9.83479 1.38269 10.2734 1.65895 10.2333C1.80273 10.2124 2.13275 10.0067 2.25968 9.91769L2.76922 9.51883C2.85162 9.56506 3.17728 10.0117 3.24419 10.0955C3.65394 10.6085 4.6809 11.1144 5.42818 10.9472C5.94487 10.8316 6.31774 10.468 6.68649 10.1181C6.7338 10.0732 6.76865 10.0275 6.81657 9.98299C6.86624 9.93688 6.90488 9.90168 6.95472 9.85568L7.21735 9.60341C7.31535 9.50425 7.66874 9.22568 7.85137 9.20346C7.88134 9.24935 7.93796 9.31396 7.9777 9.35788L8.33923 9.79325C8.41977 9.88781 8.4951 9.98644 8.57587 10.0881C8.65402 10.1865 8.73175 10.2938 8.8084 10.3828Z" fill="#102A83"/>
<path fill-rule="evenodd" clip-rule="evenodd" d="M10.4842 5.46931C10.5924 5.41339 11.2497 5.41755 11.3581 5.46931C11.3467 5.47799 11.3522 5.47824 11.3236 5.48709C11.2212 5.51869 10.5565 5.53092 10.4842 5.46931ZM10.5612 4.56665C10.5998 4.52945 10.6435 4.4936 10.6963 4.4753C10.7976 4.60284 10.7834 4.51278 10.7818 4.69335C10.5126 4.90993 10.7055 5.15039 10.8941 5.161C11.0254 5.16839 11.1271 5.08622 11.1532 4.99084C11.2103 4.78273 11.0765 4.7655 11.0336 4.6775C11.0336 4.55232 11.0508 4.52715 11.1251 4.47404C11.1719 4.49568 11.2247 4.52611 11.2535 4.56665C11.2386 4.62374 11.1983 4.6366 11.2135 4.67118C11.2383 4.7272 11.2714 4.68298 11.3406 4.67981C11.3723 4.72518 11.3898 4.77029 11.3878 4.83586C11.3306 4.87296 11.315 4.8421 11.2923 4.89921C11.3185 4.96178 11.3292 4.93001 11.3975 4.9646L11.3546 5.12102C11.2712 5.12331 11.2614 5.08405 11.2238 5.12533C11.1995 5.15195 11.24 5.18658 11.2588 5.23177C11.226 5.27942 11.1735 5.31244 11.1251 5.32392C11.0861 5.28811 11.084 5.25116 11.0378 5.26462C10.9692 5.28461 11.0258 5.30546 10.9866 5.37264L10.8327 5.37538C10.8119 5.31226 10.8467 5.28309 10.7855 5.26923C10.7401 5.25895 10.7351 5.29947 10.6943 5.33093L10.5678 5.25256C10.5759 5.17585 10.6131 5.17935 10.5947 5.14136C10.5718 5.09401 10.5359 5.13372 10.4634 5.11804L10.4195 4.97124C10.4816 4.9371 10.5162 4.96311 10.5094 4.90111C10.5024 4.8369 10.481 4.88602 10.4235 4.83586L10.4657 4.68488C10.5375 4.68422 10.6263 4.7406 10.587 4.63163L10.5612 4.56665ZM10.8458 4.24476L10.8581 4.40395L10.9603 4.40675L10.9712 4.24815C11.0358 4.26891 11.0773 4.33329 11.0445 4.41662C11.0107 4.50256 10.9656 4.4469 10.9656 4.59832C10.9656 4.74732 10.9877 4.92946 10.9345 5.00069C10.8282 5.0043 10.8493 4.94002 10.8504 4.83621C10.8563 4.29965 10.8096 4.56157 10.7633 4.40049C10.739 4.31612 10.7926 4.2627 10.8458 4.24476ZM10.6935 4.02146C10.2807 4.10278 9.9058 4.51247 10.0234 5.05096C10.113 5.4616 10.5515 5.80804 11.0592 5.70388C11.4734 5.61893 11.8587 5.21009 11.7413 4.67558C11.6404 4.21593 11.1829 3.92507 10.6935 4.02146Z" fill="#FEFEFE"/>
<path fill-rule="evenodd" clip-rule="evenodd" d="M5.46746 5.21589C5.64354 5.10038 5.73762 5.13939 5.78398 4.81871C5.76142 4.77815 5.78762 4.72604 5.7907 4.66193C5.79663 4.53888 5.75796 4.46478 5.69219 4.37773C5.55165 4.19172 5.92676 3.67983 5.57508 3.7029C5.44739 3.72866 5.39214 3.82345 5.35293 3.94839C5.28249 4.17285 5.39196 4.15503 5.36047 4.33487C5.21876 4.37224 4.92048 4.36156 4.76973 4.34573C4.52896 4.32044 4.30777 4.23568 4.24698 4.23411C4.23085 4.2648 4.19151 4.37646 4.18487 4.38567L4.01574 4.31449C3.83661 4.51122 3.97894 4.57648 3.99371 4.608C4.02189 4.66815 3.97685 4.67809 4.03461 4.72113C4.13014 4.79232 4.10127 4.73158 4.12097 4.83505C4.14144 4.94257 4.15208 4.92171 4.24868 4.96153C4.33913 4.99882 4.51431 5.10564 4.58644 5.11174L5.30748 5.1438C5.40242 5.14692 5.48753 5.12205 5.46746 5.21589Z" fill="#FBC189"/>
<path fill-rule="evenodd" clip-rule="evenodd" d="M10.8789 2.62101C10.8276 2.62101 10.789 2.61777 10.7398 2.60564L10.6566 2.57697C10.6343 2.56436 10.6382 2.56503 10.6263 2.55447L11.1874 2.54203C11.1062 2.59353 10.9909 2.62101 10.8789 2.62101ZM10.4041 3.20482L10.4326 3.2686C10.7557 3.36788 10.9548 3.34409 11.2838 3.2818L11.3102 3.21239C11.3729 2.99 11.4396 2.65877 11.4315 2.41248C11.418 1.99703 11.2488 1.96673 10.9737 1.95782C10.9588 1.8964 10.9412 1.84673 10.865 1.85439C10.7981 1.86112 10.7844 1.91309 10.7783 1.97005C10.5336 1.97683 10.3234 1.93733 10.2574 2.42343C10.2333 2.60076 10.3136 3.10496 10.4041 3.20482Z" fill="#FBC189"/>
<path fill-rule="evenodd" clip-rule="evenodd" d="M13.2335 11.3428L13.0871 11.399C13.0427 11.4535 12.9994 11.4767 12.9515 11.5455L12.8883 11.6994C12.891 11.7655 12.8653 11.7224 12.913 11.7472C13.1567 11.7415 13.3923 11.7547 13.6261 11.796C13.7527 11.8184 14.0367 11.8881 14.1588 11.9437L14.2202 11.9842C14.2927 11.9837 14.3673 12.0474 14.4378 12.0656C14.4636 12.0295 14.5161 11.8697 14.6116 11.7187L14.6995 11.6104C14.6424 11.7681 14.3047 12.1374 14.5261 12.2994C14.7549 12.3132 14.9612 11.8891 15.0131 11.6619C15.022 11.5676 14.9703 11.4882 14.9498 11.4091C14.8484 11.3982 14.7858 11.4852 14.7485 11.5462L14.7141 11.6015C14.6536 11.569 14.5842 11.5323 14.5133 11.5003C14.4562 11.4744 14.3737 11.4497 14.3259 11.4216C14.0365 11.3644 13.5191 11.2335 13.2335 11.3428Z" fill="#020100"/>
<path fill-rule="evenodd" clip-rule="evenodd" d="M10.0403 0.655185L10.2189 0.713633L10.1705 0.815144L10.4446 1.14005L10.3151 0.834519L10.4151 0.739317C10.6414 0.753409 10.8229 0.774216 11.0496 0.753971C11.196 0.740902 11.526 0.717197 11.6198 0.628141C11.6422 0.494569 11.5942 0.52182 11.6673 0.39017L11.736 0.513586L11.6994 0.164706C11.6115 0.193092 11.4764 0.318061 11.3899 0.36422L11.4757 0.187365C11.4434 0.214763 11.4137 0.237078 11.3799 0.267932C11.3364 0.307507 11.3277 0.33428 11.2749 0.358746L11.3608 0C11.263 0.0669593 11.1376 0.317542 11.0529 0.369928L11.0513 0.00692116C10.9712 0.0761562 10.8912 0.292453 10.8175 0.35192L10.6527 0.129531L10.6435 0.271041C10.6073 0.238343 10.586 0.211086 10.5403 0.164568C10.4947 0.118143 10.4828 0.0826713 10.4301 0.0501009L10.4879 0.359639L10.2812 0.243885L10.2703 0.357674C10.1915 0.326431 10.1488 0.277735 10.0811 0.248512L10.153 0.45251L9.93225 0.38944C9.98858 0.462874 10.017 0.534454 10.0403 0.655185Z" fill="#020100"/>
<path fill-rule="evenodd" clip-rule="evenodd" d="M10.8842 7.716C11.2214 7.60137 11.4348 7.96352 11.1276 8.08385C10.8023 8.2113 10.5331 7.83538 10.8842 7.716ZM9.44401 7.58217C9.94707 7.71779 9.90948 7.78967 10.5866 7.86932L10.5987 7.89584C10.6002 7.90002 10.6022 7.90451 10.6037 7.90912C10.6052 7.91362 10.6063 7.91776 10.6077 7.92238C10.6218 7.97016 10.611 7.97725 10.6419 8.02473L10.719 8.10601C10.7476 8.13497 10.7239 8.10906 10.7442 8.13345C10.8449 8.15289 10.8675 8.19705 11.0178 8.19371C11.1592 8.19058 11.1857 8.14081 11.2751 8.1177L11.3243 8.06494C11.338 8.04953 11.3516 8.03345 11.3635 8.01025C11.3906 7.95756 11.3883 7.9273 11.3905 7.86389C11.5976 7.82928 11.7753 7.80194 11.9716 7.74983C12.1556 7.70097 12.3328 7.62593 12.4977 7.58154C12.4992 7.54661 12.5029 7.49576 12.5016 7.46182C12.4995 7.40408 12.5176 7.37109 12.4722 7.38414C12.4082 7.40685 12.3517 7.44001 12.2862 7.44027C12.21 7.52855 11.5056 7.66036 11.3096 7.66938C11.1973 7.67454 11.1366 7.60553 10.971 7.6118C10.8133 7.61776 10.8021 7.68281 10.6333 7.66674C10.3953 7.64407 9.83813 7.54577 9.66721 7.45127L9.45962 7.3793C9.45238 7.3913 9.45127 7.38786 9.4452 7.41833C9.44179 7.43541 9.44099 7.44574 9.44019 7.46319C9.43865 7.49715 9.4423 7.54747 9.44401 7.58217Z" fill="#FDC84E"/>
<path fill-rule="evenodd" clip-rule="evenodd" d="M8.94189 14.2032C8.95841 14.5274 8.99592 14.8439 9.00614 15.177C9.01634 15.5091 9.01982 15.8405 9.02009 16.1747C9.02033 16.4744 9.01275 16.8206 9.11958 17.0825C9.27186 17.4558 9.22022 17.5559 9.20932 17.9675C9.23079 18.0116 9.16861 17.9992 9.26027 17.9946C9.32082 17.9916 9.29432 17.9803 9.30181 17.9717C9.4626 17.9568 9.49939 17.7087 9.53855 17.5671C9.59787 17.3528 9.54503 17.118 9.5952 16.9764C9.75623 16.5218 10.0251 16.3492 9.57271 16.162C9.60752 16.0475 9.71559 15.8558 9.76992 15.7302C9.90321 15.422 10.2326 14.5696 10.211 14.2845C10.149 14.1409 10.0913 13.9123 9.98599 13.8562C9.98584 13.8564 9.98558 13.8584 9.98524 13.8618L9.98389 13.8597C9.92301 13.8225 9.8505 13.7311 9.75668 13.6714C9.57854 13.5581 9.61196 13.5491 9.26853 13.8363C9.16505 13.9228 9.10822 14.0313 9.03901 14.0638L9.06543 14.0494C9.02732 14.0728 8.95373 14.1448 8.9419 14.2032H8.94189Z" fill="#023186" stroke="#023186" stroke-width="0.216"/>
<path fill-rule="evenodd" clip-rule="evenodd" d="M8.51245 5.8704C8.55409 5.90781 8.59835 5.99017 8.63322 6.03851C8.82739 6.30778 8.97267 6.41095 9.05112 6.51033C9.08538 6.5334 9.11885 6.5632 9.14641 6.58601C9.19302 6.63285 9.24055 6.66094 9.29883 6.69969C9.38135 6.75454 9.38868 6.75193 9.41885 6.86199C9.4535 6.98838 9.4972 7.2446 9.4596 7.37935L9.66719 7.45132C9.68381 7.26149 9.62993 6.96187 9.57102 6.79946C9.49925 6.60157 9.39243 6.48338 9.28601 6.34864C9.11475 6.13181 8.96293 5.97739 8.83471 5.70445C8.7934 5.61651 8.76688 5.52889 8.7246 5.43985C8.68017 5.48198 8.53296 5.82128 8.51245 5.8704Z" fill="#BE202E" stroke="#BE202E" stroke-width="0.216"/>
<path fill-rule="evenodd" clip-rule="evenodd" d="M9.77088 5.75706C9.39904 5.75416 9.19975 5.70116 8.92209 5.50363C8.70394 5.34843 8.75989 5.30797 8.79151 5.15649C8.90041 5.21991 9.09466 5.47047 9.35487 5.59644C9.66035 5.74432 9.92672 5.67501 10.2646 5.69106L10.2113 5.71586C10.1959 5.72057 10.176 5.72397 10.1601 5.72685L9.77088 5.75706ZM7.13343 7.00878L7.302 7.04536C7.45646 7.06271 7.59406 7.06156 7.73761 7.01847C7.78582 7.004 7.86618 6.97772 7.90446 6.9535C7.96877 6.9128 7.96067 6.86358 8.0296 6.84986C8.07672 6.80295 8.07192 6.78398 8.11106 6.74115L8.12619 6.69065C8.25315 6.41765 8.38115 6.13654 8.51235 5.8704C8.53286 5.82128 8.68007 5.48198 8.72449 5.43985C8.76678 5.52888 8.7933 5.6165 8.83461 5.70444C8.96283 5.97739 9.11465 6.1318 9.28591 6.34864C9.39233 6.48338 9.49914 6.60156 9.57092 6.79945C9.62983 6.96186 9.68371 7.26149 9.66708 7.45132C9.838 7.54581 10.3951 7.64412 10.6332 7.66678C10.8019 7.68285 10.8132 7.61781 10.9708 7.61184C11.1365 7.60558 11.1972 7.67459 11.3095 7.66942C11.5055 7.66041 12.2099 7.52859 12.2861 7.44032C12.2016 7.38751 12.3623 6.81123 12.3958 6.72928C12.5631 6.32049 12.9914 6.141 13.2326 5.37294C13.2672 5.26277 13.2844 5.13144 13.321 5.02906C13.4293 5.33737 13.476 5.33583 13.5808 5.57168C13.6435 5.66425 13.6946 5.77148 13.7505 5.87151C13.7974 5.9554 13.8842 6.09297 13.9145 6.17653L13.984 6.31212L14.0041 6.31384C14.0127 6.35846 14.0905 6.45106 14.1201 6.48878C14.2538 6.65897 14.5838 6.67951 14.7882 6.64278C15.1936 6.56989 15.2275 6.35287 15.4831 6.19096C15.5434 6.12914 15.5174 6.14887 15.4223 6.18316C15.3008 6.21517 15.0848 6.30051 14.9092 6.20336L14.8953 6.20077C14.855 6.04622 14.7829 5.93813 14.7567 5.75379C14.7193 5.49093 14.8143 5.4347 14.8315 5.24642C14.8628 5.20882 14.8565 5.19294 14.8805 5.15295C14.9133 5.09821 14.9163 5.12041 14.9503 5.07964C14.9118 4.84712 14.6709 4.36164 14.5594 4.18386C14.4057 3.93855 14.1873 3.7008 13.8846 3.58353L13.8141 3.55131L13.4319 3.44137C13.3752 3.49867 13.27 3.59946 13.2376 3.67311L12.9608 3.64751L12.7148 3.63328C12.6523 3.63473 12.525 3.64029 12.474 3.60882L12.3071 3.60667L11.9319 3.58376L11.5702 3.57993L9.99329 3.58834L9.65786 3.60486L9.33146 3.60466C9.29907 3.6435 9.31603 3.62851 9.24914 3.63357C9.2211 3.63569 9.18477 3.63504 9.15539 3.63621C9.09786 3.63851 9.03482 3.64719 8.98065 3.63607C8.86663 3.62775 8.84418 3.65484 8.74951 3.65399C8.705 3.53089 8.62997 3.49015 8.59109 3.42739L8.40438 3.42639L8.24737 3.47286C8.13431 3.49787 8.04712 3.55665 7.96069 3.62257L7.88266 3.67448L7.80883 3.76733C7.78147 3.79662 7.75966 3.81634 7.73488 3.84908C7.45605 4.21744 7.13172 4.97257 7.08217 5.37749C7.11234 5.41077 7.12381 5.40228 7.15618 5.43594C7.19025 5.47135 7.19265 5.50035 7.21831 5.53473C7.24275 5.73011 7.34074 5.81687 7.30927 6.07071C7.28341 6.27922 7.21234 6.39012 7.16282 6.5643L7.14704 6.55775C7.1151 6.63876 6.86143 6.61842 6.80107 6.61052C6.69698 6.59689 6.59191 6.5618 6.51221 6.51672C6.55062 6.57249 6.73177 6.73751 6.79698 6.78786C6.92076 6.88342 6.94728 6.95121 7.13343 7.00879V7.00878ZM10.7491 3.9472C11.0453 3.90791 11.2694 3.98531 11.4596 4.12754C12.0964 4.60352 11.8478 5.63486 11.022 5.7587C10.4835 5.83946 10.0214 5.4496 9.95646 4.99203C9.87752 4.43585 10.2534 4.01294 10.7491 3.9472ZM11.9253 5.69608C12.2692 5.69608 12.541 5.5425 12.7098 5.37394C12.766 5.31779 12.7981 5.30252 12.8559 5.23941L13.2774 4.83747C13.2915 4.91903 13.1821 5.04013 13.0956 5.18507C12.8846 5.53852 12.5227 5.76338 12.0792 5.76338C11.9813 5.76338 11.5476 5.73575 11.4853 5.69337L11.9253 5.69608Z" fill="#D4001A" stroke="#D4001A" stroke-width="0.216"/>
<path fill-rule="evenodd" clip-rule="evenodd" d="M10.124 3.0663C10.0679 3.11487 10.0128 3.16575 9.93847 3.21881C9.87671 3.26292 9.7917 3.29396 9.73975 3.34575C9.78799 3.39656 9.81831 3.42404 9.86928 3.46789C9.90134 3.49547 9.97375 3.56401 9.99329 3.58831L11.5702 3.5799C11.6148 3.50868 11.6675 3.44876 11.723 3.37669C11.7652 3.322 11.8518 3.2213 11.88 3.16388L11.6689 2.97357C11.6223 3.04129 11.6001 3.10186 11.5513 3.16837L11.4099 3.33923C11.258 3.51568 11.2368 3.47462 10.9404 3.47462C10.7798 3.47463 10.487 3.51266 10.3914 3.40547C10.3346 3.34176 10.1698 3.09137 10.124 3.0663Z" fill="#FBC189"/>
<path fill-rule="evenodd" clip-rule="evenodd" d="M12.2718 12.7051L12.2008 12.7698C12.1767 12.779 12.1673 12.8027 12.1424 12.8343L11.9761 13.0439C11.9017 13.1432 11.8295 13.223 11.7519 13.3199L11.1619 13.9961C11.1263 14.017 10.7523 14.0601 10.6975 14.2791C10.6519 14.4611 10.9197 14.8125 10.9508 15.0219C10.9532 15.2449 10.9313 15.3366 10.9926 15.5517C11.0321 15.6904 11.0596 15.8729 11.1675 15.9401C11.2277 15.9839 11.2577 15.9888 11.3408 15.986C11.3288 15.6854 11.2784 15.4762 11.3559 15.1772C11.3865 15.0594 11.4376 14.9688 11.4651 14.8447C11.5372 14.5197 11.4291 14.4862 11.5926 14.391C11.9836 14.1634 12.3733 13.9277 12.7457 13.6775L13.912 12.8639C13.8834 12.7641 13.8578 12.8029 13.7977 12.7356L13.7756 12.7341C13.6623 12.618 13.3693 12.5772 13.1718 12.5757C12.901 12.5736 12.7317 12.6164 12.4791 12.6529L12.4355 12.6679L12.2718 12.7051Z" fill="#023186" stroke="#023186" stroke-width="0.216"/>
<path fill-rule="evenodd" clip-rule="evenodd" d="M9.72844 12.7005C9.8042 12.5621 9.88044 12.3644 9.84676 12.1557C9.83023 12.0533 9.80266 11.9687 9.70802 11.9483C9.63724 11.933 9.44787 11.936 9.37294 11.9438C9.33536 12.025 9.27163 12.0619 9.24198 12.1624C9.21476 12.2547 9.21979 12.4047 9.25525 12.4932C9.32713 12.6726 9.48724 12.7545 9.72844 12.7005Z" fill="#020100"/>
<path fill-rule="evenodd" clip-rule="evenodd" d="M11.0336 4.67752C11.0765 4.76552 11.2103 4.78275 11.1533 4.99087C11.1271 5.08625 11.0254 5.16841 10.8942 5.16103C10.7055 5.15042 10.5127 4.90996 10.7818 4.69338C10.7835 4.51281 10.7976 4.60287 10.6963 4.47533C10.6435 4.49363 10.5998 4.52948 10.5613 4.56667L10.587 4.63165C10.6263 4.74063 10.5375 4.68425 10.4657 4.6849L10.4235 4.83589C10.481 4.88605 10.5024 4.83693 10.5095 4.90114C10.5163 4.96314 10.4816 4.93713 10.4196 4.97127L10.4635 5.11807C10.536 5.13374 10.5719 5.09403 10.5947 5.14139C10.6131 5.17937 10.576 5.17587 10.5678 5.25259L10.6943 5.33095C10.7351 5.29949 10.7401 5.25897 10.7855 5.26925C10.8467 5.28312 10.8119 5.31228 10.8328 5.37541L10.9867 5.37267C11.0258 5.30549 10.9692 5.28464 11.0378 5.26465C11.084 5.25119 11.0862 5.28813 11.1252 5.32395C11.1735 5.31247 11.226 5.27944 11.2589 5.23179C11.2401 5.1866 11.1995 5.15197 11.2238 5.12536C11.2615 5.08407 11.2712 5.12333 11.3546 5.12105L11.3975 4.96462C11.3292 4.93004 11.3186 4.96181 11.2924 4.89923C11.315 4.84212 11.3306 4.87299 11.3878 4.83589C11.3899 4.77032 11.3723 4.7252 11.3406 4.67984C11.2714 4.68301 11.2383 4.72723 11.2136 4.67121C11.1983 4.63663 11.2386 4.62377 11.2536 4.56667C11.2247 4.52613 11.1719 4.49571 11.1252 4.47406C11.0508 4.52717 11.0336 4.55235 11.0336 4.67752Z" fill="#BE202E"/>
<path fill-rule="evenodd" clip-rule="evenodd" d="M10.6936 4.02147C11.1829 3.92508 11.6404 4.21594 11.7414 4.67558C11.8588 5.2101 11.4734 5.61894 11.0593 5.70389C10.5516 5.80804 10.113 5.46161 10.0234 5.05097C9.90584 4.51247 10.2807 4.10278 10.6936 4.02147ZM10.7492 3.94717C10.2535 4.01291 9.87762 4.43582 9.95655 4.992C10.0215 5.44957 10.4836 5.83942 11.0221 5.75867C11.8479 5.63482 12.0964 4.60349 11.4597 4.1275C11.2695 3.98528 11.0454 3.90787 10.7492 3.94717Z" fill="#D4D4D4"/>
<path fill-rule="evenodd" clip-rule="evenodd" d="M9.44177 7.78525C9.83524 7.96693 10.2497 8.10859 10.7442 8.13346C10.7239 8.10907 10.7475 8.13498 10.7189 8.10602L10.6419 8.02474C10.611 7.97726 10.6218 7.97017 10.6076 7.92238C10.6063 7.91777 10.6051 7.91363 10.6036 7.90913C10.6021 7.90452 10.6002 7.90003 10.5986 7.89585L10.5866 7.86933C9.90943 7.78967 9.94703 7.7178 9.44396 7.58218L9.44177 7.78525Z" fill="#422E01"/>
<path fill-rule="evenodd" clip-rule="evenodd" d="M11.3103 3.21241L11.2839 3.28182C10.9549 3.34411 10.7558 3.3679 10.4327 3.26862L10.4042 3.20483C10.3921 3.26037 10.4247 3.22972 10.384 3.24882C10.3306 3.20248 10.2431 3.08342 10.1912 3.01081C10.1434 3.03236 10.152 3.03038 10.1241 3.06632C10.1699 3.09139 10.3347 3.34178 10.3915 3.40549C10.4871 3.51268 10.7799 3.47465 10.9405 3.47465C11.2369 3.47464 11.2581 3.5157 11.41 3.33926L11.5514 3.16839C11.6002 3.10189 11.6224 3.04131 11.669 2.97359L11.8801 3.16391L11.9505 3.08142C11.8648 2.99377 11.6581 2.9431 11.6655 2.77979C11.633 2.81366 11.5561 2.9732 11.5127 3.03358C11.4605 3.10621 11.3826 3.21361 11.3253 3.25812C11.3031 3.23635 11.3016 3.30027 11.3103 3.21241Z" fill="#F9B16C"/>
<path fill-rule="evenodd" clip-rule="evenodd" d="M11.2751 8.11777C11.6303 8.10277 11.9578 7.97122 12.2676 7.8799L12.5 7.78762L12.4977 7.5816C12.3328 7.62599 12.1556 7.70104 11.9716 7.7499C11.7753 7.80201 11.5976 7.82935 11.3905 7.86396C11.3883 7.92736 11.3906 7.95763 11.3635 8.01032C11.3516 8.03351 11.338 8.04959 11.3243 8.06501L11.2751 8.11777Z" fill="#422E01"/>
<path fill-rule="evenodd" clip-rule="evenodd" d="M11.9254 5.69604L11.4855 5.69333C11.5477 5.73571 11.9814 5.76334 12.0793 5.76334C12.5229 5.76334 12.8847 5.53849 13.0957 5.18504C13.1822 5.04009 13.2917 4.919 13.2776 4.83743L12.8561 5.23937C12.7982 5.30249 12.7661 5.31775 12.7099 5.3739C12.5411 5.54247 12.2693 5.69604 11.9254 5.69604Z" fill="#BE202E" stroke="#D4001A" stroke-width="0.216"/>
<path fill-rule="evenodd" clip-rule="evenodd" d="M13.2169 9.05244C13.2395 9.09641 13.2376 9.09255 13.2843 9.11533C13.3877 8.62615 13.506 8.16853 13.6225 7.69038C13.6796 7.45623 13.7426 7.22518 13.8041 6.99049C13.8408 6.85064 13.9367 6.40656 13.9841 6.3121L13.9145 6.17651C13.9063 6.37825 13.4655 7.96613 13.382 8.33126C13.3314 8.55231 13.2794 8.83569 13.2169 9.05244Z" fill="#102A83" stroke="#102A83" stroke-width="0.216"/>
<path fill-rule="evenodd" clip-rule="evenodd" d="M8.89369 13.906C8.97091 13.8825 8.959 13.8189 9.03399 13.7735L9.05095 13.7346C9.12412 13.6956 9.1726 13.6132 9.24712 13.5454C9.3093 13.4889 9.38958 13.4269 9.46238 13.3707C9.57385 13.2847 9.58434 13.218 9.82853 13.4076C9.86777 13.438 9.88208 13.4577 9.90895 13.4767C9.90923 13.4857 9.90954 13.4948 9.90991 13.5037C9.91001 13.5041 10.1725 13.758 10.2412 14.0469C10.2431 14.0051 10.2352 14.0491 10.261 14.0292C10.2648 13.7224 10.2882 13.5062 10.2325 13.1975C10.182 12.9177 10.1132 12.7743 10.0199 12.5391C9.96502 12.6143 10.035 12.6125 9.81558 12.6115C9.82642 12.5423 9.8547 12.4902 9.86626 12.4098C9.87654 12.3384 9.86732 12.2663 9.88303 12.1876L10.079 12.1905L10.0717 12.2604C10.1004 12.2312 10.1002 12.2229 10.1156 12.1735C10.1255 12.142 10.1326 12.1115 10.142 12.0754C10.1573 12.0166 10.1716 11.9394 10.1968 11.8901L10.2354 11.7625C10.2487 11.6319 10.3275 11.415 10.3644 11.2739C10.4069 11.1119 10.4452 10.9451 10.4842 10.7811C10.5625 10.4513 10.6453 10.0944 10.7012 9.75867C10.5861 9.53043 10.4122 9.33415 10.2631 9.17555C10.1574 9.06324 9.874 8.77909 9.70957 8.71501C9.68299 8.66484 9.41737 8.52657 9.34025 8.49545L9.06789 8.36908C8.90919 8.91359 8.82514 9.48882 8.81556 10.0983L8.80847 10.3829C8.81812 10.7052 8.82121 11.0088 8.84349 11.3289C8.85415 11.4821 8.86782 11.6336 8.88316 11.7835C8.8961 11.91 8.92755 12.0907 8.92558 12.2122C8.9503 12.1712 8.94926 12.1851 9.00581 12.1842L9.09531 12.1848L9.12479 12.0278C9.21347 11.9566 9.24813 11.962 9.37305 11.9438C9.44798 11.936 9.63734 11.933 9.70812 11.9483C9.80276 11.9687 9.83033 12.0533 9.84686 12.1557C9.88054 12.3645 9.8043 12.5621 9.72854 12.7005L9.68227 12.7604C9.65653 12.778 9.62673 12.8001 9.58054 12.811C9.22722 12.8942 9.20389 12.6041 9.15551 12.5829L9.03248 12.581C9.0114 12.5839 9.00905 12.5859 8.9844 12.5837L8.92476 12.5697L8.89966 12.5671L8.84555 12.5649L8.91658 12.5768C8.85832 12.7669 8.84732 13.0371 8.8484 13.2451C8.84954 13.4636 8.89574 13.7106 8.89369 13.906Z" fill="#D4001A" stroke="#D4001A" stroke-width="0.216"/>
<path fill-rule="evenodd" clip-rule="evenodd" d="M10.1967 11.8901C10.6626 12.2418 11.3483 12.8679 12.072 12.76C12.2335 12.736 12.1859 12.7297 12.2008 12.7698L12.2717 12.7051C12.2349 12.692 12.2703 12.7216 12.2497 12.6885L12.2818 12.642C12.2209 12.6222 12.0652 12.6817 11.9713 12.6843C11.3443 12.7018 10.8611 12.3135 10.4096 11.9543C10.3077 11.8733 10.2302 11.8354 10.2352 11.7625L10.1967 11.8901Z" fill="#102A83" stroke="#102A83" stroke-width="0.216"/>
<path fill-rule="evenodd" clip-rule="evenodd" d="M10.8841 7.71604C10.533 7.83541 10.8022 8.21133 11.1275 8.08388C11.4347 7.96356 11.2213 7.60141 10.8841 7.71604Z" fill="#FEE6B4"/>
<path fill-rule="evenodd" clip-rule="evenodd" d="M7.00536 5.42653C7.08838 5.53965 7.14112 5.77019 7.14423 5.94431C7.14683 6.09047 7.12238 6.39453 7.00291 6.48863C6.83797 6.46859 6.76819 6.49221 6.59703 6.43975C6.47657 6.40283 6.37724 6.3433 6.27588 6.31207C6.3111 6.36735 6.33795 6.38961 6.376 6.42926C6.41662 6.47158 6.45298 6.49083 6.51233 6.51668C6.59203 6.56177 6.6971 6.59686 6.8012 6.61049C6.86156 6.61839 7.131 6.64527 7.16294 6.56427C7.21246 6.39009 7.28354 6.27919 7.30939 6.07067C7.34086 5.81684 7.24288 5.73008 7.21844 5.5347C7.19277 5.50032 7.19038 5.47132 7.15631 5.43591C7.12393 5.40225 7.11246 5.41074 7.08229 5.37746L6.97157 5.33374L7.00536 5.42653Z" fill="#D5BA7D"/>
<path fill-rule="evenodd" clip-rule="evenodd" d="M10.2646 5.69107C9.92681 5.67501 9.66043 5.74433 9.35495 5.59645C9.09474 5.47048 8.90049 5.21992 8.7916 5.15649C8.75998 5.30798 8.70402 5.34844 8.92217 5.50363C9.19983 5.70117 9.39912 5.75416 9.77097 5.75707L10.1602 5.72686C10.1761 5.72397 10.196 5.72058 10.2114 5.71586L10.2646 5.69107Z" fill="#BE202E" stroke="#D4001A" stroke-width="0.216"/>
<path fill-rule="evenodd" clip-rule="evenodd" d="M9.12471 12.0278L9.09523 12.1848C9.09392 12.4122 9.10825 12.3786 9.15799 12.5642L8.92468 12.5697L8.98432 12.5836C9.00897 12.5859 9.01132 12.5839 9.0324 12.581L9.15543 12.5829C9.20381 12.6041 9.22714 12.8942 9.58046 12.811C9.6531 12.7938 9.67765 12.7592 9.711 12.7347L9.72846 12.7005C9.48726 12.7545 9.32715 12.6726 9.25527 12.4932C9.21981 12.4047 9.21478 12.2547 9.242 12.1624C9.27165 12.0619 9.33538 12.0249 9.37297 11.9438C9.24805 11.962 9.21339 11.9566 9.12471 12.0278Z" fill="#020100" stroke="#020100" stroke-width="0.216"/>
<path fill-rule="evenodd" clip-rule="evenodd" d="M11.932 3.58375L12.3072 3.60666C12.3127 3.53631 12.3245 3.47314 12.3392 3.40988C12.3555 3.33944 12.3541 3.28143 12.4209 3.27037C12.3793 3.24291 12.3042 3.22734 12.2463 3.20689C12.1834 3.18467 12.1299 3.15954 12.0671 3.13303C12.0406 3.28389 11.9457 3.46731 11.932 3.58375Z" fill="#102A83"/>
<path fill-rule="evenodd" clip-rule="evenodd" d="M9.95386 2.54314C9.95738 2.14642 9.95833 1.77673 9.9791 1.37956C9.90989 1.37523 9.83599 1.36441 9.78431 1.39551C9.6987 1.46789 9.74991 1.66137 9.79012 1.75986C9.87367 1.9645 9.8116 1.99801 9.90319 2.05507C9.93961 2.07776 9.84514 2.0198 9.92431 2.06706C9.92728 2.06883 9.9325 2.07217 9.93493 2.07363C9.93738 2.07511 9.94234 2.07769 9.94558 2.08039C9.93978 2.19791 9.91802 2.45271 9.95386 2.54314Z" fill="#F9B16C"/>
<path fill-rule="evenodd" clip-rule="evenodd" d="M9.57141 3.19049C9.59891 3.23208 9.69323 3.31784 9.73978 3.34577C9.79174 3.29399 9.87675 3.26294 9.93851 3.21883C10.0128 3.16578 10.0679 3.1149 10.1241 3.06632C10.152 3.03038 10.1433 3.03236 10.1911 3.01081C10.1664 2.96571 10.135 2.9253 10.106 2.87577C10.0786 2.82908 10.0632 2.77772 10.0348 2.74142C10.0423 2.80993 10.0185 2.86671 9.99218 2.92581C9.96101 2.99593 9.93392 2.99286 9.86618 3.03344C9.78581 3.08158 9.62841 3.14673 9.57141 3.19049Z" fill="#F7A654"/>
<path fill-rule="evenodd" clip-rule="evenodd" d="M11.8801 3.16394C11.852 3.22136 11.7653 3.32206 11.7232 3.37674C11.6676 3.44881 11.6149 3.50874 11.5703 3.57995L11.9321 3.58378C11.9458 3.46734 12.0406 3.28392 12.0672 3.13306L11.9505 3.08145L11.8801 3.16394Z" fill="#3657A0"/>
<path fill-rule="evenodd" clip-rule="evenodd" d="M9.31604 3.27523C9.38804 3.27948 9.37907 3.27472 9.42175 3.32625C9.45318 3.36418 9.46833 3.38537 9.5016 3.41865C9.55657 3.47363 9.62046 3.54897 9.65799 3.60483L9.99342 3.58831C9.97388 3.56401 9.90147 3.49546 9.86941 3.46789C9.81843 3.42403 9.78811 3.39655 9.73987 3.34574C9.69333 3.31781 9.599 3.23204 9.5715 3.19046C9.51227 3.20084 9.35412 3.23936 9.31604 3.27523Z" fill="#102A83"/>
<path fill-rule="evenodd" clip-rule="evenodd" d="M14.0026 12.5687L13.999 12.5866C14.0727 12.6211 14.0661 12.6648 14.1257 12.6865C14.1812 12.647 14.2195 12.6151 14.2814 12.5658C14.312 12.5414 14.3223 12.5341 14.3583 12.5029C14.4045 12.4629 14.396 12.4591 14.4587 12.45C14.5761 12.5614 15.1869 11.9073 15.0131 11.6619C14.9611 11.8892 14.7549 12.3133 14.526 12.2995C14.3046 12.1374 14.6423 11.7681 14.6994 11.6105L14.6115 11.7188C14.516 11.8698 14.4635 12.0295 14.4377 12.0656C14.3672 12.0474 14.2926 11.9837 14.2201 11.9842L14.1587 11.9438C14.0366 11.8882 13.7526 11.8184 13.626 11.7961C13.3922 11.7548 13.1566 11.7415 12.9129 11.7473L12.4014 12.4902L12.6331 12.4384L12.652 12.4338C12.8746 12.3761 13.152 12.3506 13.3875 12.3629C13.6985 12.3792 13.7841 12.4531 14.0026 12.5687ZM14.7484 11.5462C14.7857 11.4852 14.8483 11.3982 14.9497 11.4092C14.9175 11.1739 14.7051 10.8988 14.5973 10.7485C14.3973 10.4695 13.9756 9.89675 13.7405 9.63473L13.2843 9.11535C13.2376 9.09258 13.2395 9.09644 13.2169 9.05247C13.1473 9.01188 13.0915 8.92689 13.0252 8.86679L12.438 8.3558C12.3589 8.38034 12.1492 8.50586 12.1166 8.5563C12.0716 8.57861 12.0655 8.58316 12.0422 8.62018C11.8686 8.68796 11.2618 9.47194 11.1572 9.7511C11.322 9.90046 11.3744 9.9794 11.5847 10.1592C12.0165 10.5283 12.3305 10.7596 12.8115 11.066C12.9041 11.1249 12.9913 11.1687 13.0813 11.2387C13.1221 11.2507 13.1221 11.2538 13.1608 11.2766C13.1683 11.281 13.199 11.2979 13.2008 11.2992C13.2298 11.3202 13.2225 11.3087 13.2334 11.3429C13.519 11.2335 14.0364 11.3645 14.3258 11.4216C14.3736 11.4498 14.4561 11.4744 14.5132 11.5003C14.5841 11.5324 14.6535 11.569 14.714 11.6016L14.7484 11.5462Z" fill="#D4001A" stroke="#D4001A" stroke-width="0.216"/>
<path fill-rule="evenodd" clip-rule="evenodd" d="M8.84058 3.35347L8.9807 3.63602C9.03487 3.64715 9.09791 3.63847 9.15544 3.63617C9.18483 3.63499 9.22116 3.63564 9.24919 3.63352C9.31608 3.62846 9.29912 3.64346 9.33151 3.60461C9.28695 3.56397 9.16611 3.35967 9.15263 3.29575L8.84058 3.35347Z" fill="#102A83"/>
<path fill-rule="evenodd" clip-rule="evenodd" d="M10.9346 5.00071C10.9877 4.92948 10.9656 4.74735 10.9656 4.59834C10.9656 4.44692 11.0108 4.50259 11.0446 4.41664C11.0773 4.33331 11.0358 4.26893 10.9712 4.24817L10.9603 4.40678L10.8582 4.40398L10.8459 4.24478C10.7927 4.26273 10.7391 4.31615 10.7633 4.40051C10.8096 4.56159 10.8564 4.29967 10.8505 4.83623C10.8493 4.94005 10.8282 5.00433 10.9346 5.00071Z" fill="#1B2C59"/>
<path fill-rule="evenodd" clip-rule="evenodd" d="M11.7517 2.04917C11.8345 2.01313 11.8118 1.95484 11.836 1.8606C11.8632 1.75425 11.966 1.57887 11.9068 1.43362C11.8721 1.34864 11.8088 1.37575 11.7091 1.34796L11.7517 2.04917Z" fill="#FBC28B"/>
<path fill-rule="evenodd" clip-rule="evenodd" d="M9.15271 3.29576C9.16619 3.35969 9.28702 3.56399 9.33159 3.60463L9.65799 3.60483C9.62045 3.54897 9.55656 3.47363 9.50159 3.41865C9.46832 3.38537 9.45318 3.36418 9.42175 3.32625C9.37906 3.27472 9.38803 3.27948 9.31604 3.27524L9.15271 3.29576Z" fill="#3657A0"/>
<path fill-rule="evenodd" clip-rule="evenodd" d="M8.11113 6.74114C8.07198 6.78397 8.07679 6.80295 8.02966 6.84985C8.1882 6.83036 8.41376 6.754 8.57972 6.71389C8.7218 6.67954 9.01701 6.58775 9.14637 6.586C9.11882 6.56319 9.08535 6.53339 9.05109 6.51031L8.11113 6.74114Z" fill="#102A83"/>
<path fill-rule="evenodd" clip-rule="evenodd" d="M10.2389 1.58947C10.3132 1.74645 10.6884 1.74492 10.6534 1.58426C10.6156 1.41115 10.3099 1.4171 10.2389 1.58947Z" fill="#262626"/>
<path fill-rule="evenodd" clip-rule="evenodd" d="M11.4719 1.58945C11.3937 1.41728 11.0969 1.40965 11.0567 1.58349C11.0206 1.73948 11.3891 1.75162 11.4719 1.58945Z" fill="#262626"/>
<path fill-rule="evenodd" clip-rule="evenodd" d="M10.0198 12.5391C10.0306 12.4594 10.0704 12.3087 10.0716 12.2604L10.0788 12.1905L9.88289 12.1875C9.86717 12.2663 9.8764 12.3383 9.86611 12.4098C9.85455 12.4902 9.82627 12.5423 9.81543 12.6114C10.0348 12.6125 9.96487 12.6143 10.0198 12.5391Z" fill="#030100"/>
<path fill-rule="evenodd" clip-rule="evenodd" d="M8.40442 3.42636L8.59113 3.42736C8.63 3.49012 8.70504 3.53086 8.74954 3.65396C8.84421 3.65481 8.86667 3.62772 8.98068 3.63604L8.84056 3.35349C8.73048 3.36159 8.48239 3.38548 8.40442 3.42636Z" fill="#3657A0"/>
<path fill-rule="evenodd" clip-rule="evenodd" d="M10.4841 5.46935C10.5565 5.53096 11.2212 5.51873 11.3236 5.48713C11.3522 5.47828 11.3467 5.47803 11.358 5.46935C11.2497 5.41759 10.5923 5.41343 10.4841 5.46935Z" fill="#1C305E"/>
<path fill-rule="evenodd" clip-rule="evenodd" d="M8.89966 12.567L8.92476 12.5697L9.15807 12.5642C9.10833 12.3786 9.094 12.4122 9.09531 12.1848L9.00582 12.1841C8.99215 12.2714 9.01454 12.3436 8.98077 12.4159C8.95278 12.4759 8.9181 12.5059 8.89966 12.567Z" fill="#020100" stroke="#020100" stroke-width="0.216"/>
<path fill-rule="evenodd" clip-rule="evenodd" d="M5.78393 4.81874C5.77108 4.87279 5.763 4.93131 5.73497 4.98961C5.69265 5.07765 5.64728 5.11973 5.56141 5.15952C5.50152 5.18728 5.51783 5.17839 5.46741 5.21592C5.46709 5.28827 5.51448 5.29489 5.5562 5.30068C5.58473 5.27766 5.59054 5.27777 5.62666 5.25856C5.63267 5.25536 5.66587 5.23743 5.66712 5.23689C5.66808 5.23648 5.669 5.23606 5.66992 5.23564L5.66992 5.23564C5.78185 5.19097 5.88966 5.02089 5.89527 4.83721C5.86907 4.78079 5.81186 4.78582 5.78393 4.81874Z" fill="#C8A452"/>
<path fill-rule="evenodd" clip-rule="evenodd" d="M7.00537 5.42652L6.97158 5.33373C6.84226 5.26844 6.70717 5.20898 6.57407 5.14879C6.45431 5.09464 6.27107 4.99097 6.15484 4.96307L5.89534 4.83716C5.8687 4.99338 5.82353 5.15161 5.71161 5.19629L5.67366 5.23399C5.67177 5.23483 5.66964 5.23578 5.66719 5.23683C5.66594 5.23737 5.63274 5.25531 5.62673 5.2585C5.59061 5.27772 5.5848 5.2776 5.55627 5.30062C5.5892 5.40227 5.84933 5.81587 5.90737 5.86531L5.95224 5.93249C6.00475 5.99877 5.95302 5.90471 6.04845 6.05392C6.06836 6.08506 6.07559 6.08663 6.0951 6.12106C6.16164 6.18929 6.20529 6.24454 6.27589 6.31207C6.37725 6.34329 6.47658 6.40283 6.59704 6.43974C6.76821 6.4922 6.83798 6.46859 7.00292 6.48862C7.13165 6.40595 7.1485 6.183 7.14424 5.9443C7.14113 5.77019 7.08839 5.53964 7.00537 5.42652Z" fill="#182956" stroke="#182956" stroke-width="0.216"/>
<path fill-rule="evenodd" clip-rule="evenodd" d="M8.89368 13.906C8.90768 13.9758 8.90984 14.129 8.94195 14.2032C8.95221 14.1525 9.00887 14.0917 9.0486 14.0612C9.11781 14.0286 9.16511 13.9228 9.26858 13.8363C9.61202 13.549 9.5786 13.558 9.75673 13.6714C9.85055 13.7311 9.92306 13.8224 9.98394 13.8597L10.0015 13.8866C10.0787 13.946 10.1491 14.1409 10.211 14.2845C10.2484 14.2349 10.2565 14.1003 10.261 14.0292C10.2186 13.9864 10.1119 13.6872 9.97184 13.5429C9.95019 13.501 9.86629 13.4369 9.82852 13.4075C9.58433 13.218 9.57384 13.2846 9.46237 13.3707C9.38957 13.4269 9.30929 13.4889 9.24711 13.5454C9.17612 13.6099 9.12876 13.6878 9.06117 13.7288L9.06107 13.7289C9.05775 13.7309 9.05437 13.7328 9.05094 13.7346L9.05029 13.7361C8.98449 13.7848 8.96701 13.8837 8.89368 13.906V13.906Z" fill="#CCAD66" stroke="#CCAD66" stroke-width="0.216"/>
<path fill-rule="evenodd" clip-rule="evenodd" d="M12.4014 12.4902C12.3658 12.5175 12.3161 12.6023 12.2819 12.6421L12.2498 12.6885C12.2704 12.7217 12.235 12.692 12.2718 12.7051L12.4418 12.6679L12.4853 12.6529L12.4855 12.6519C12.7346 12.6156 12.9033 12.5736 13.1718 12.5757C13.3693 12.5772 13.6623 12.6181 13.7757 12.7341C13.8358 12.8014 13.8834 12.7641 13.912 12.864L13.9668 12.8104C13.9776 12.801 13.9999 12.7843 14.0187 12.7703L14.1257 12.6865C14.0661 12.6649 14.0721 12.601 13.9984 12.5664C13.783 12.4521 13.6965 12.3791 13.3875 12.3629C13.152 12.3506 12.8746 12.3761 12.6521 12.4338L12.6331 12.4384L12.6313 12.4402L12.4014 12.4902Z" fill="#CCAD66"/>
<path fill-rule="evenodd" clip-rule="evenodd" d="M10.879 2.62104C10.9909 2.62104 11.1063 2.59355 11.1875 2.54205L10.6263 2.5545C10.6382 2.56506 10.6344 2.56438 10.6567 2.577L10.7399 2.60566C10.7891 2.6178 10.8277 2.62104 10.879 2.62104Z" fill="#E9904C"/>
<path fill-rule="evenodd" clip-rule="evenodd" d="M8.92549 12.2122L8.94578 12.3797C8.88813 12.4171 8.84688 12.464 8.84546 12.5648L8.89956 12.567C8.918 12.5059 8.95268 12.4759 8.98067 12.4159C9.01444 12.3436 8.99205 12.2714 9.00572 12.1841C8.94917 12.1851 8.9502 12.1712 8.92549 12.2122Z" fill="#020100"/>
<path fill-rule="evenodd" clip-rule="evenodd" d="M16.1658 4.49903C16.2258 4.53608 16.1944 4.57687 16.2336 4.67798C16.2664 4.7629 16.2952 4.76279 16.338 4.82295L16.4964 4.90188L16.5182 4.8891C16.5216 4.88772 16.526 4.88537 16.5298 4.88408C16.5337 4.88278 16.5379 4.88151 16.5421 4.88046L16.8955 4.86366C17.3876 4.84241 17.2711 4.89005 17.6159 4.72257C17.8362 4.61554 17.7445 4.72832 17.8191 4.50333C17.878 4.46425 17.9025 4.47794 17.9206 4.40479C17.9363 4.34087 17.8996 4.39553 17.9435 4.33253C17.976 4.28595 18.0672 4.25315 17.9114 4.05815C17.8501 4.06781 17.8085 4.10239 17.7422 4.12568C17.7243 4.09116 17.6965 4.01305 17.6828 3.97807C17.5966 3.98303 17.5186 4.02367 17.4338 4.04247C17.2163 4.09072 16.776 4.13409 16.5876 4.07769C16.5481 3.97925 16.6141 3.91903 16.6179 3.83673C16.6312 3.54684 16.2713 3.29771 16.2227 3.54163C16.1916 3.69749 16.3238 3.8759 16.2863 4.06005C16.2726 4.12714 16.2191 4.13666 16.1792 4.25738C16.1476 4.35319 16.1615 4.40345 16.1658 4.49903Z" fill="#FBC189"/>
<path fill-rule="evenodd" clip-rule="evenodd" d="M12.2862 7.4403C12.3516 7.44005 12.4082 7.40688 12.4722 7.38417C12.459 7.22951 12.4818 6.8406 12.5698 6.75025C12.6006 6.7186 12.7368 6.63301 12.7783 6.60036C12.8548 6.54021 12.9089 6.48468 12.9735 6.42129C13.1649 6.23366 13.3093 6.03675 13.4568 5.81009C13.5096 5.72895 13.5328 5.64328 13.5809 5.57166C13.4761 5.33581 13.4294 5.33736 13.3211 5.02905C13.2846 5.13143 13.2673 5.26276 13.2327 5.37293C12.9916 6.14099 12.5632 6.32048 12.3959 6.72927C12.3624 6.81122 12.2017 7.3875 12.2862 7.4403Z" fill="#BE202E" stroke="#D4001A" stroke-width="0.216"/>
<path fill-rule="evenodd" clip-rule="evenodd" d="M15.0413 6.10754C15.2702 6.17392 15.5472 6.03132 15.7251 5.9517C15.84 5.86554 16.0044 5.64406 16.1027 5.50822C16.1743 5.40923 16.3762 5.11706 16.4146 4.99316L16.2642 4.89639C16.1457 4.85964 16.1161 4.65625 16.0994 4.60962C16.0763 4.54491 16.1002 4.5932 16.0736 4.5636C15.901 4.64909 15.7401 4.72427 15.5698 4.80264C15.4445 4.86028 15.1582 4.97843 15.0731 5.03949C15.0484 5.12716 14.9985 5.18226 14.9674 5.27463C14.9419 5.35047 14.9189 5.46055 14.9127 5.54951C14.8943 5.81095 14.9687 5.91395 15.012 6.11255L15.0413 6.10754Z" fill="#182956" stroke="#182956" stroke-width="0.216"/>
<path fill-rule="evenodd" clip-rule="evenodd" d="M14.9503 5.07961C14.9164 5.12039 14.9133 5.09818 14.8805 5.15292C14.8565 5.19291 14.8628 5.20879 14.8315 5.2464C14.8143 5.43467 14.7193 5.4909 14.7567 5.75377C14.7829 5.9381 14.855 6.0462 14.8953 6.20075L14.9092 6.20333C15.0848 6.30048 15.3008 6.21514 15.4224 6.18313C15.5528 6.14877 15.658 6.08674 15.725 5.9517C15.5471 6.03133 15.2701 6.17393 15.0412 6.10754L15.0119 6.11255C14.9686 5.91396 14.8942 5.81095 14.9125 5.54951C14.9188 5.46055 14.9418 5.35047 14.9673 5.27464C14.9983 5.18226 15.0483 5.12717 15.0729 5.03949L14.9503 5.07961Z" fill="#D5BA7D"/>
<path fill-rule="evenodd" clip-rule="evenodd" d="M12.4741 3.60882C12.5251 3.6403 12.6524 3.63473 12.7149 3.63328L12.7854 3.63248C12.8292 3.52012 12.911 3.45769 12.9572 3.35696L12.6179 3.30222C12.6321 3.3555 12.633 3.3289 12.5978 3.38901L12.4741 3.60882Z" fill="#102A83"/>
<path fill-rule="evenodd" clip-rule="evenodd" d="M12.9608 3.64748L13.2377 3.67307C13.27 3.59942 13.3753 3.49864 13.432 3.44134C13.3617 3.40309 13.2466 3.39374 13.1544 3.3851C13.1182 3.43279 12.976 3.6052 12.9608 3.64748Z" fill="#102A83"/>
<path fill-rule="evenodd" clip-rule="evenodd" d="M12.3071 3.60665L12.4741 3.6088L12.5977 3.389C12.633 3.32888 12.632 3.35548 12.6179 3.3022L12.4209 3.27036C12.354 3.28141 12.3554 3.33942 12.3391 3.40987C12.3244 3.47313 12.3127 3.5363 12.3071 3.60665Z" fill="#3657A0"/>
<path fill-rule="evenodd" clip-rule="evenodd" d="M12.715 3.63328L12.9609 3.64751C12.9761 3.60523 13.1183 3.43282 13.1545 3.38514L12.9572 3.35696C12.911 3.45769 12.8292 3.52012 12.7855 3.63248L12.715 3.63328Z" fill="#3657A0"/>
<path fill-rule="evenodd" clip-rule="evenodd" d="M16.2641 4.89641L16.4145 4.99318C16.4882 4.98746 16.5039 4.98556 16.4964 4.9019L16.338 4.82298C16.2952 4.76282 16.2664 4.76293 16.2335 4.678C16.1944 4.5769 16.2258 4.53611 16.1658 4.49905C16.0995 4.50923 16.1036 4.52822 16.0735 4.56363C16.1001 4.59323 16.0762 4.54494 16.0993 4.60965C16.116 4.65627 16.1456 4.85967 16.2641 4.89641Z" fill="#C8A452" stroke="#C8A452" stroke-width="0.216"/>
<path fill-rule="evenodd" clip-rule="evenodd" d="M13.0871 11.399L13.2336 11.3428C13.2226 11.3087 13.2299 11.3202 13.2009 11.2992C13.1991 11.2978 13.1684 11.2809 13.1609 11.2765C13.1222 11.2537 13.1222 11.2507 13.0814 11.2386L13.0871 11.399Z" fill="#FCFAFB"/>
<path fill-rule="evenodd" clip-rule="evenodd" d="M11.4387 6.33827C11.4512 6.31676 11.4721 6.24566 11.4824 6.21547C11.4948 6.17916 11.5145 6.13157 11.5242 6.09854C11.5272 6.15176 11.5174 6.29873 11.5279 6.3372C11.5472 6.34146 11.5614 6.34359 11.576 6.33451C11.5848 6.31353 11.582 6.08473 11.5762 6.05383C11.5606 6.04705 11.5176 6.04104 11.4974 6.0526C11.4723 6.06696 11.44 6.21617 11.4157 6.25043C11.3865 6.20813 11.3651 6.0637 11.3313 6.05098C11.3114 6.04352 11.2724 6.0436 11.2557 6.05538C11.2476 6.07119 11.2468 6.31092 11.2535 6.33646C11.2725 6.34211 11.2855 6.34234 11.3019 6.3362C11.314 6.303 11.3037 6.15107 11.3058 6.10045C11.3346 6.15492 11.3614 6.29657 11.3891 6.33926L11.4387 6.33827Z" fill="white"/>
<path fill-rule="evenodd" clip-rule="evenodd" d="M11.9589 6.33608C11.9728 6.29958 11.9573 6.17219 11.9627 6.12021C11.9739 6.13851 11.9839 6.16496 11.9949 6.18573L12.0622 6.31761C12.0755 6.33871 12.112 6.35134 12.1336 6.33355C12.146 6.3238 12.1432 6.32344 12.1433 6.30254C12.1434 6.26239 12.1467 6.05801 12.1394 6.05083C12.1248 6.04498 12.1102 6.04487 12.095 6.05083C12.085 6.07237 12.0918 6.21367 12.0915 6.2492C12.0809 6.23851 12.0786 6.22936 12.0724 6.21574L12.0253 6.12246C11.995 6.06556 11.9992 6.03339 11.9166 6.05082C11.9087 6.06903 11.904 6.31398 11.9135 6.33236C11.9228 6.34513 11.9474 6.34064 11.9589 6.33604V6.33608Z" fill="white"/>
<path fill-rule="evenodd" clip-rule="evenodd" d="M10.7618 6.33736C10.7749 6.29098 10.7581 6.1726 10.7655 6.11727C10.7685 6.13444 10.8191 6.2294 10.8305 6.25107C10.8622 6.31185 10.8686 6.35842 10.9414 6.33513C10.9493 6.30896 10.9457 6.2276 10.9457 6.19255C10.9457 6.05267 10.9605 6.03794 10.894 6.05015L10.8937 6.25432C10.8893 6.23985 10.8051 6.07231 10.7937 6.06018C10.7804 6.046 10.7339 6.03919 10.7194 6.05692C10.7067 6.07225 10.7123 6.3223 10.7161 6.33664C10.7353 6.34234 10.7424 6.34156 10.7618 6.33736L10.7618 6.33736Z" fill="white"/>
<path fill-rule="evenodd" clip-rule="evenodd" d="M10.401 6.09436C10.44 6.089 10.4783 6.09141 10.4786 6.13317C10.4789 6.17589 10.4361 6.18158 10.4003 6.17346L10.401 6.09436ZM10.4861 6.2073C10.4901 6.20272 10.4886 6.20439 10.4944 6.20005C10.509 6.18917 10.528 6.1845 10.5355 6.15035C10.5654 6.01562 10.3622 6.04566 10.3474 6.05288C10.3398 6.07509 10.3397 6.31269 10.3465 6.33933L10.3972 6.33693C10.4052 6.30948 10.3999 6.25339 10.4007 6.22183C10.469 6.21086 10.4696 6.29194 10.495 6.33857C10.5148 6.34074 10.5326 6.34336 10.5511 6.3356C10.5527 6.31932 10.5342 6.28157 10.5276 6.2655C10.5157 6.23669 10.5088 6.21743 10.4861 6.2073Z" fill="white"/>
<path fill-rule="evenodd" clip-rule="evenodd" d="M10.1157 6.33586C10.1272 6.3068 10.1192 6.24965 10.1192 6.21336L10.225 6.21438C10.225 6.25018 10.217 6.30717 10.2285 6.33603C10.2377 6.33974 10.2531 6.34246 10.2658 6.34018C10.2833 6.33705 10.2821 6.33378 10.2821 6.31592C10.2822 6.26109 10.2878 6.09301 10.2788 6.051C10.2639 6.04485 10.231 6.03782 10.2254 6.06478L10.225 6.10569C10.2251 6.12458 10.2264 6.14426 10.2232 6.16303L10.121 6.16294C10.1151 6.12905 10.1293 6.0776 10.1145 6.04984C10.1139 6.04935 10.062 6.03112 10.062 6.06912V6.31591C10.062 6.33426 10.0606 6.33723 10.0786 6.34027C10.0915 6.34243 10.1065 6.33979 10.1157 6.33585L10.1157 6.33586Z" fill="white"/>
<path fill-rule="evenodd" clip-rule="evenodd" d="M11.7048 6.22756C11.706 6.20978 11.7347 6.12013 11.7434 6.10634L11.7793 6.22756H11.7048ZM11.6676 6.3373C11.678 6.31766 11.678 6.28516 11.6954 6.27281H11.7887C11.8001 6.27598 11.7984 6.27915 11.8064 6.30682C11.8104 6.32054 11.8113 6.32737 11.8198 6.33984L11.8729 6.33821C11.8748 6.30685 11.7954 6.09628 11.7817 6.04938C11.7369 6.0422 11.7138 6.03941 11.7022 6.06707C11.7005 6.0712 11.6983 6.0793 11.6967 6.08413C11.6923 6.09756 11.6885 6.10904 11.6844 6.12173C11.6702 6.1655 11.6147 6.31293 11.6174 6.33676C11.6362 6.34244 11.6485 6.34156 11.6676 6.3373V6.3373Z" fill="white"/>
<path fill-rule="evenodd" clip-rule="evenodd" d="M11.1233 6.18336C11.136 6.14662 11.2043 6.08869 11.2074 6.05022C11.145 6.0365 11.1476 6.05645 11.1211 6.09509C11.1089 6.11298 11.078 6.16315 11.0644 6.17559C11.062 6.07367 11.0838 6.0391 11.0249 6.04633C11.0053 6.04873 11.0069 6.05003 11.0069 6.06911V6.3159C11.0069 6.33592 11.0046 6.33761 11.0244 6.34053C11.0912 6.35036 11.0581 6.28471 11.065 6.19726C11.0778 6.20948 11.1084 6.26475 11.1211 6.28543C11.144 6.32255 11.1488 6.35249 11.2095 6.33677C11.2137 6.31505 11.1811 6.27492 11.1702 6.25779C11.1533 6.23136 11.1379 6.20847 11.1233 6.18336Z" fill="white"/>
<path fill-rule="evenodd" clip-rule="evenodd" d="M9.83673 6.27681C9.82949 6.31573 9.83463 6.32645 9.86758 6.33674C9.8934 6.34479 9.92377 6.34704 9.95044 6.33962C9.99504 6.32721 10.0369 6.28093 10.0126 6.21941C9.99195 6.1673 9.92584 6.16839 9.90386 6.13925C9.8847 6.11384 9.90521 6.0905 9.93259 6.08915C9.95975 6.08781 9.99103 6.11254 9.99809 6.10447C10.0052 6.09631 10.0038 6.07384 9.99868 6.06455C9.98681 6.04295 9.92438 6.03772 9.8914 6.04976C9.84657 6.06614 9.81997 6.12728 9.85279 6.1738C9.87931 6.21139 9.95455 6.2201 9.95846 6.25701C9.96182 6.28868 9.93622 6.29824 9.90618 6.29626C9.8762 6.29429 9.85387 6.27272 9.83673 6.27681Z" fill="white"/>
<path fill-rule="evenodd" clip-rule="evenodd" d="M10.5985 6.05025C10.5864 6.07479 10.5943 6.18837 10.5943 6.2245C10.5943 6.30716 10.5828 6.33612 10.6114 6.34042C10.6247 6.34241 10.639 6.3399 10.6483 6.33547C10.6558 6.31765 10.6561 6.06695 10.6474 6.05004C10.6318 6.04478 10.6141 6.04484 10.5985 6.05024V6.05025Z" fill="white"/>
<path fill-rule="evenodd" clip-rule="evenodd" d="M12.2817 6.08015C12.2891 6.06933 12.2879 6.06973 12.2882 6.05105L12.2881 5.96491C12.3094 6.01731 12.3185 6.08271 12.3435 6.08035C12.364 6.07843 12.3686 6.03955 12.3745 6.02298C12.3817 6.00266 12.3872 5.9843 12.3954 5.96499L12.3972 6.06931C12.3997 6.07924 12.3963 6.07329 12.4018 6.07847C12.4116 6.08757 12.4239 6.08246 12.4239 6.05131C12.4238 5.97128 12.4365 5.92256 12.389 5.93683C12.3626 5.94474 12.3703 5.98536 12.3424 6.03543C12.3112 5.97736 12.3258 5.92879 12.2772 5.93582C12.2609 5.93818 12.2612 5.9422 12.2606 5.95903C12.2597 5.98277 12.2588 6.065 12.2638 6.07933L12.2817 6.08015Z" fill="white"/>
<path fill-rule="evenodd" clip-rule="evenodd" d="M12.1417 5.93964C12.1411 5.93856 12.1394 5.9405 12.1383 5.94115C12.1377 5.96901 12.1468 5.96011 12.1756 5.96011C12.1784 5.99287 12.1698 6.05155 12.1794 6.07962L12.2016 6.07895C12.2129 6.05319 12.2036 5.99296 12.2061 5.96011C12.2539 5.96011 12.241 5.96395 12.2435 5.94974C12.2468 5.93069 12.2328 5.93559 12.2154 5.9356L12.1417 5.93964Z" fill="white"/>
<path fill-rule="evenodd" clip-rule="evenodd" d="M10.9509 1.90228C10.9966 2.03275 11.0087 2.1619 10.9949 2.28572C10.9404 2.30391 10.9002 2.30014 10.8047 2.28172C11.0196 2.24347 10.9617 2.22392 10.9509 1.90228Z" fill="#E9904C"/>
</svg>
