<svg width="158" height="158" viewBox="0 0 158 158" fill="none" xmlns="http://www.w3.org/2000/svg">
<g filter="url(#filter0_dd_575_2202)">
<rect x="10" y="10" width="136" height="136" rx="10" fill="#FEFEFE"/>
</g>
<path d="M67.888 110.512L63.216 122H61.688L57.016 110.512H58.376C58.5253 110.512 58.6453 110.549 58.736 110.624C58.832 110.699 58.904 110.795 58.952 110.912L62.056 118.72C62.1307 118.912 62.2027 119.123 62.272 119.352C62.3467 119.581 62.4133 119.821 62.472 120.072C62.5253 119.821 62.584 119.581 62.648 119.352C62.712 119.123 62.7813 118.912 62.856 118.72L65.952 110.912C65.9893 110.805 66.056 110.712 66.152 110.632C66.2533 110.552 66.376 110.512 66.52 110.512H67.888ZM70.6343 113.872V122H69.0743V113.872H70.6343ZM70.9303 111.36C70.9303 111.504 70.9009 111.643 70.8423 111.776C70.7836 111.904 70.7036 112.019 70.6023 112.12C70.5063 112.216 70.3916 112.293 70.2582 112.352C70.1249 112.405 69.9863 112.432 69.8423 112.432C69.6983 112.432 69.5623 112.405 69.4343 112.352C69.3063 112.293 69.1916 112.216 69.0903 112.12C68.9943 112.019 68.9169 111.904 68.8583 111.776C68.8049 111.643 68.7783 111.504 68.7783 111.36C68.7783 111.211 68.8049 111.072 68.8583 110.944C68.9169 110.811 68.9943 110.696 69.0903 110.6C69.1916 110.499 69.3063 110.421 69.4343 110.368C69.5623 110.309 69.6983 110.28 69.8423 110.28C69.9863 110.28 70.1249 110.309 70.2582 110.368C70.3916 110.421 70.5063 110.499 70.6023 110.6C70.7036 110.696 70.7836 110.811 70.8423 110.944C70.9009 111.072 70.9303 111.211 70.9303 111.36ZM78.1329 115.84C77.8769 115.504 77.5995 115.269 77.3009 115.136C77.0075 115.003 76.6769 114.936 76.3089 114.936C75.5942 114.936 75.0395 115.195 74.6449 115.712C74.2555 116.224 74.0609 116.973 74.0609 117.96C74.0609 118.477 74.1035 118.92 74.1889 119.288C74.2795 119.651 74.4075 119.949 74.5729 120.184C74.7435 120.413 74.9515 120.584 75.1969 120.696C75.4422 120.803 75.7195 120.856 76.0289 120.856C76.4822 120.856 76.8742 120.755 77.2049 120.552C77.5355 120.349 77.8449 120.064 78.1329 119.696V115.84ZM79.7009 110.192V122H78.7569C78.5382 122 78.4022 121.896 78.3489 121.688L78.2129 120.752C77.8662 121.163 77.4715 121.493 77.0289 121.744C76.5915 121.989 76.0849 122.112 75.5089 122.112C75.0449 122.112 74.6235 122.021 74.2449 121.84C73.8715 121.659 73.5515 121.395 73.2849 121.048C73.0182 120.696 72.8129 120.261 72.6689 119.744C72.5249 119.227 72.4529 118.632 72.4529 117.96C72.4529 117.357 72.5329 116.797 72.6929 116.28C72.8529 115.763 73.0849 115.315 73.3889 114.936C73.6929 114.557 74.0609 114.261 74.4929 114.048C74.9249 113.829 75.4129 113.72 75.9569 113.72C76.4475 113.72 76.8635 113.8 77.2049 113.96C77.5515 114.12 77.8609 114.347 78.1329 114.64V110.192H79.7009ZM87.2613 117.032C87.2613 116.723 87.2159 116.437 87.1253 116.176C87.0399 115.915 86.9119 115.688 86.7413 115.496C86.5706 115.304 86.3626 115.155 86.1173 115.048C85.8719 114.941 85.5893 114.888 85.2693 114.888C84.6133 114.888 84.0959 115.077 83.7173 115.456C83.3439 115.835 83.1066 116.36 83.0053 117.032H87.2613ZM88.5493 120.84C88.3573 121.064 88.1359 121.259 87.8853 121.424C87.6346 121.584 87.3679 121.715 87.0853 121.816C86.8026 121.917 86.5093 121.992 86.2053 122.04C85.9066 122.088 85.6106 122.112 85.3173 122.112C84.7573 122.112 84.2373 122.019 83.7573 121.832C83.2826 121.64 82.8693 121.363 82.5173 121C82.1706 120.632 81.8986 120.179 81.7013 119.64C81.5093 119.096 81.4133 118.472 81.4133 117.768C81.4133 117.203 81.5013 116.677 81.6773 116.192C81.8533 115.701 82.1039 115.275 82.4293 114.912C82.7599 114.549 83.1626 114.264 83.6373 114.056C84.1119 113.848 84.6453 113.744 85.2373 113.744C85.7333 113.744 86.1893 113.827 86.6053 113.992C87.0266 114.152 87.3893 114.387 87.6933 114.696C87.9973 115.005 88.2346 115.387 88.4053 115.84C88.5813 116.293 88.6693 116.811 88.6693 117.392C88.6693 117.632 88.6426 117.795 88.5893 117.88C88.5359 117.96 88.4373 118 88.2933 118H82.9653C82.9813 118.485 83.0506 118.909 83.1733 119.272C83.2959 119.629 83.4639 119.928 83.6773 120.168C83.8959 120.408 84.1546 120.587 84.4533 120.704C84.7519 120.821 85.0853 120.88 85.4533 120.88C85.7999 120.88 86.0986 120.84 86.3493 120.76C86.6053 120.68 86.8239 120.595 87.0053 120.504C87.1919 120.408 87.3466 120.32 87.4693 120.24C87.5973 120.16 87.7093 120.12 87.8053 120.12C87.9333 120.12 88.0319 120.168 88.1013 120.264L88.5493 120.84ZM93.81 113.744C94.4073 113.744 94.946 113.843 95.426 114.04C95.9113 114.232 96.322 114.512 96.658 114.88C96.9993 115.243 97.2607 115.683 97.442 116.2C97.6233 116.712 97.714 117.288 97.714 117.928C97.714 118.568 97.6233 119.147 97.442 119.664C97.2607 120.181 96.9993 120.621 96.658 120.984C96.322 121.347 95.9113 121.627 95.426 121.824C94.946 122.016 94.4073 122.112 93.81 122.112C93.2073 122.112 92.6633 122.016 92.178 121.824C91.698 121.627 91.2873 121.347 90.946 120.984C90.6047 120.621 90.3407 120.181 90.154 119.664C89.9727 119.147 89.882 118.568 89.882 117.928C89.882 117.288 89.9727 116.712 90.154 116.2C90.3407 115.683 90.6047 115.243 90.946 114.88C91.2873 114.512 91.698 114.232 92.178 114.04C92.6633 113.843 93.2073 113.744 93.81 113.744ZM93.81 120.896C94.578 120.896 95.1513 120.637 95.53 120.12C95.9087 119.603 96.098 118.875 96.098 117.936C96.098 116.997 95.9087 116.269 95.53 115.752C95.1513 115.229 94.578 114.968 93.81 114.968C93.0313 114.968 92.45 115.229 92.066 115.752C91.6873 116.269 91.498 116.997 91.498 117.936C91.498 118.875 91.6873 119.603 92.066 120.12C92.45 120.637 93.0313 120.896 93.81 120.896Z" fill="#D4001A"/>
<path d="M60.75 37.5625C61.3644 37.1875 62.0717 36.9926 62.7915 37H93.3405C94.1846 37.0172 94.9993 37.3138 95.6569 37.8433C96.3146 38.3728 96.7781 39.1055 96.975 39.9265C97.0664 40.3511 97.1027 40.7857 97.083 41.2195V57.9835H94.7235C94.6129 57.9878 94.5027 57.9988 94.3935 58.0165C94.1035 57.9949 93.8126 57.9894 93.522 58C93.072 58.0105 92.607 57.979 92.151 58.021C91.9523 57.9934 91.7515 57.9833 91.551 57.991H84.4425C84.1425 57.991 83.8545 58.003 83.562 57.976L83.712 57.8785L74.1825 52.159V57.9925C70.863 57.985 67.542 57.9925 64.2225 57.9925C64.0965 57.996 63.9708 58.0066 63.846 58.024C63.528 57.976 63.2055 58 62.883 58C62.457 58.009 62.028 57.9775 61.6035 58.0225C61.4778 58.0037 61.351 57.9927 61.224 57.9895H58.9125C58.9215 52.537 58.9125 47.0845 58.9125 41.6395C58.8807 41.0718 58.9164 40.5023 59.019 39.943C59.1353 39.4513 59.3483 38.9876 59.6454 38.5789C59.9426 38.1703 60.3181 37.8247 60.75 37.5625ZM61.56 40.8445C61.3547 40.894 61.1714 41.01 61.0388 41.1744C60.9061 41.3387 60.8315 41.5423 60.8265 41.7535V43.7275C60.8412 43.9684 60.9462 44.1948 61.1205 44.3616C61.2949 44.5285 61.5257 44.6234 61.767 44.6275H63.7305C63.9667 44.6137 64.1894 44.5128 64.3556 44.3444C64.5218 44.1759 64.6198 43.9519 64.6305 43.7155C64.638 43.0765 64.6305 42.436 64.6305 41.797C64.6341 41.622 64.5901 41.4493 64.5031 41.2974C64.4162 41.1455 64.2897 41.0201 64.137 40.9345C63.9714 40.8491 63.7862 40.8087 63.6 40.8175H61.896C61.7834 40.8148 61.6707 40.8239 61.56 40.8445ZM92.0715 40.8445C91.8701 40.8983 91.6917 41.0163 91.5634 41.1806C91.4351 41.3449 91.3639 41.5466 91.3605 41.755V43.714C91.3712 43.9504 91.4691 44.1744 91.6353 44.3429C91.8015 44.5113 92.0243 44.6122 92.2605 44.626C92.9145 44.6335 93.5685 44.626 94.2225 44.626C94.4652 44.6218 94.6973 44.5256 94.8719 44.3569C95.0464 44.1881 95.1505 43.9595 95.163 43.717C95.172 43.06 95.163 42.403 95.163 41.746C95.1572 41.5077 95.0626 41.28 94.8978 41.1077C94.733 40.9354 94.5098 40.8309 94.272 40.8145C93.75 40.801 93.222 40.8145 92.7045 40.8145C92.4928 40.8039 92.2806 40.816 92.0715 40.8505V40.8445ZM61.563 46.57C61.4092 46.6062 61.2667 46.6799 61.1484 46.7846C61.0301 46.8893 60.9396 47.0217 60.885 47.17C60.8296 47.3577 60.8088 47.5539 60.8235 47.749V49.4515C60.8367 49.6859 60.9358 49.9072 61.1018 50.0732C61.2678 50.2392 61.4891 50.3382 61.7235 50.3515C62.3235 50.3635 62.916 50.3515 63.5115 50.3515C63.714 50.3681 63.9175 50.3346 64.104 50.254C64.2654 50.1753 64.4016 50.0529 64.497 49.9007C64.5925 49.7485 64.6434 49.5726 64.644 49.393V47.4745C64.6391 47.2339 64.5438 47.004 64.377 46.8305C64.2102 46.657 63.9842 46.5528 63.744 46.5385C63.237 46.5265 62.7285 46.5385 62.22 46.5385C62.0005 46.5288 61.7806 46.5394 61.563 46.57ZM92.07 46.57C91.9214 46.6103 91.7847 46.6859 91.6717 46.7904C91.5586 46.8948 91.4724 47.0251 91.4205 47.17C91.3647 47.3581 91.3439 47.5549 91.359 47.7505V49.447C91.3703 49.6851 91.4701 49.9104 91.6388 50.0788C91.8074 50.2472 92.0329 50.3466 92.271 50.3575C92.88 50.3665 93.489 50.3575 94.098 50.3575C94.295 50.37 94.4918 50.3296 94.668 50.2405C94.8189 50.1587 94.9452 50.0379 95.0336 49.8906C95.122 49.7434 95.1692 49.5752 95.1705 49.4035V47.4775C95.1654 47.239 95.0714 47.0111 94.9068 46.8384C94.7422 46.6658 94.519 46.5609 94.281 46.5445C93.7575 46.531 93.231 46.5445 92.7105 46.5445C92.4959 46.5316 92.2806 46.5427 92.0685 46.5775L92.07 46.57ZM61.5615 52.3C61.3551 52.3491 61.1708 52.4653 61.0376 52.6303C60.9043 52.7953 60.8295 52.9999 60.825 53.212C60.825 53.869 60.8175 54.5275 60.825 55.1845C60.8393 55.4255 60.9442 55.6521 61.1186 55.819C61.2931 55.9859 61.5241 56.0808 61.7655 56.0845H63.7155C63.9536 56.0736 64.179 55.9742 64.3477 55.8058C64.5164 55.6374 64.6162 55.4121 64.6275 55.174V53.2135C64.6233 52.9712 64.5272 52.7395 64.3588 52.5652C64.1903 52.3909 63.962 52.287 63.72 52.2745C63.198 52.264 62.67 52.2745 62.1525 52.2745C61.9551 52.2646 61.7573 52.2732 61.5615 52.3ZM92.064 52.309C91.9171 52.3488 91.7818 52.4232 91.6696 52.5261C91.5574 52.6289 91.4715 52.7571 91.419 52.9C91.363 53.0876 91.3422 53.2839 91.3575 53.479V55.1755C91.3684 55.4136 91.4678 55.6391 91.6362 55.8077C91.8046 55.9764 92.0299 56.0762 92.268 56.0875C92.9205 56.095 93.573 56.0875 94.227 56.0875C94.4697 56.0837 94.702 55.9879 94.8768 55.8194C95.0517 55.651 95.1561 55.4224 95.169 55.18C95.178 54.523 95.169 53.866 95.169 53.2105C95.164 52.9723 95.0701 52.7445 94.9058 52.5719C94.7415 52.3993 94.5187 52.2943 94.281 52.2775C93.7575 52.2625 93.231 52.2775 92.712 52.2775C92.4963 52.2605 92.2794 52.2681 92.0655 52.3L92.064 52.309Z" fill="#064494"/>
<path d="M74.187 52.15C77.363 54.058 80.5395 55.9645 83.7165 57.8695L83.5665 57.967C80.4395 59.839 77.314 61.713 74.19 63.589V57.985C74.1885 56.0425 74.184 54.1 74.187 52.15Z" fill="white"/>
<path d="M58.9126 57.982H61.2241C61.3511 57.9852 61.4779 57.9962 61.6036 58.015C61.353 58.0651 61.1325 58.2123 60.9901 58.4245C60.8563 58.6604 60.7982 58.9316 60.8236 59.2015V60.769C60.823 60.9044 60.8491 61.0385 60.9004 61.1638C60.9518 61.2891 61.0274 61.403 61.1228 61.499C61.2183 61.595 61.3317 61.6712 61.4567 61.7233C61.5817 61.7754 61.7157 61.8023 61.8511 61.8025H63.6391C63.8771 61.7976 64.106 61.7096 64.286 61.5537C64.466 61.3979 64.5857 61.1839 64.6246 60.949C64.6366 60.2785 64.6246 59.599 64.6246 58.9345C64.6214 58.7143 64.5416 58.5021 64.399 58.3343C64.2564 58.1666 64.0598 58.0537 63.8431 58.015C63.9679 57.9976 64.0936 57.987 64.2196 57.9835H74.1796V63.5875C77.3066 61.7165 80.4321 59.8425 83.5561 57.9655C83.8561 57.9925 84.1426 57.976 84.4366 57.9805H91.5481C91.7486 57.9728 91.9493 57.9829 92.1481 58.0105C91.9904 58.0393 91.8425 58.1073 91.718 58.2082C91.5935 58.3091 91.4964 58.4397 91.4356 58.588C91.3705 58.7845 91.3475 58.9925 91.3681 59.1985V60.7195C91.3593 60.8598 91.3798 61.0005 91.4282 61.1325C91.4766 61.2645 91.552 61.385 91.6494 61.4864C91.7468 61.5878 91.8643 61.6679 91.9943 61.7215C92.1243 61.7751 92.264 61.8012 92.4046 61.798H94.1446C94.4106 61.799 94.6665 61.6966 94.8585 61.5125C95.0505 61.3283 95.1635 61.0768 95.1736 60.811V59.335C95.2081 59.0322 95.1561 58.7259 95.0236 58.4515C94.9542 58.3392 94.8624 58.2424 94.7541 58.167C94.6457 58.0917 94.523 58.0394 94.3936 58.0135C94.5028 57.9958 94.613 57.9848 94.7236 57.9805H97.0831C97.0996 60.562 97.0831 63.145 97.0831 65.728V75.1675C97.0786 76.0754 96.7535 76.9525 96.1651 77.644C95.5673 78.3479 94.7341 78.8106 93.8206 78.946C93.3317 78.9945 92.8401 79.011 92.3491 78.9955H64.0861C63.4012 79.0221 62.7153 78.998 62.0341 78.9235C61.324 78.7912 60.6658 78.4612 60.135 77.9713C59.6043 77.4814 59.2227 76.8517 59.0341 76.1545C58.9394 75.7892 58.894 75.4128 58.8991 75.0355V59.3365C58.9096 58.8865 58.8961 58.4335 58.9126 57.982ZM61.6051 63.7465C61.3744 63.7856 61.1674 63.9111 61.0261 64.0975C60.8853 64.3015 60.8147 64.5458 60.8251 64.7935V66.5365C60.8355 66.8022 60.9486 67.0535 61.1405 67.2375C61.3324 67.4216 61.5882 67.5241 61.8541 67.5235H63.7786C64.0276 67.4801 64.252 67.3467 64.4091 67.1487C64.5661 66.9507 64.645 66.7019 64.6306 66.4495V64.663C64.6312 64.5339 64.6049 64.4061 64.5532 64.2878C64.5016 64.1694 64.4257 64.0633 64.3306 63.976C64.1275 63.8027 63.8669 63.7117 63.6001 63.721H61.8961C61.7985 63.7204 61.701 63.7289 61.6051 63.7465ZM92.1541 63.7465C91.9436 63.7799 91.7511 63.8845 91.6085 64.0429C91.466 64.2012 91.3822 64.4037 91.3711 64.6165V66.4495C91.3623 66.5896 91.3827 66.7301 91.4311 66.8619C91.4795 66.9938 91.5547 67.1141 91.652 67.2154C91.7493 67.3166 91.8665 67.3966 91.9963 67.4501C92.1262 67.5037 92.2657 67.5297 92.4061 67.5265C93.0481 67.5265 93.6916 67.534 94.3336 67.5265C94.5708 67.4788 94.7842 67.3506 94.9378 67.1637C95.0915 66.9767 95.1758 66.7425 95.1766 66.5005V64.981C95.211 64.6844 95.1461 64.3848 94.9921 64.129C94.8996 64.0045 94.7793 63.9034 94.6407 63.8338C94.5021 63.7643 94.3491 63.7282 94.1941 63.7285H92.7631C92.56 63.7156 92.3561 63.7211 92.1541 63.745V63.7465ZM61.6066 69.472C61.4868 69.4913 61.372 69.5342 61.269 69.5984C61.166 69.6625 61.0767 69.7465 61.0066 69.8455C60.8764 70.0448 60.8115 70.2796 60.8206 70.5175V72.2155C60.8223 72.4667 60.9141 72.709 61.0792 72.8984C61.2443 73.0877 61.4719 73.2116 61.7206 73.2475H63.7846C64.0336 73.2038 64.2578 73.07 64.4146 72.8717C64.5715 72.6734 64.6499 72.4244 64.6351 72.172V70.3885C64.6359 70.2591 64.6097 70.131 64.558 70.0125C64.5064 69.8939 64.4304 69.7874 64.3351 69.7C64.1333 69.5275 63.8744 69.4365 63.6091 69.445H61.8976C61.7999 69.4448 61.7025 69.4538 61.6066 69.472ZM92.1496 69.472C91.979 69.4991 91.8194 69.5735 91.689 69.6867C91.5585 69.7999 91.4624 69.9474 91.4116 70.1125C91.3694 70.2739 91.3547 70.4412 91.3681 70.6075V72.4C91.4077 72.634 91.5276 72.8469 91.7072 73.0021C91.8868 73.1573 92.1148 73.2451 92.3521 73.2505H94.1416C94.2808 73.25 94.4185 73.2214 94.5463 73.1664C94.6742 73.1114 94.7897 73.0312 94.8858 72.9304C94.9819 72.8297 95.0567 72.7106 95.1056 72.5803C95.1545 72.45 95.1766 72.3111 95.1706 72.172V70.426C95.1712 70.2651 95.1325 70.1064 95.0577 69.9639C94.9829 69.8214 94.8744 69.6994 94.7416 69.6085C94.3709 69.4455 93.9622 69.3884 93.5611 69.4435C93.0931 69.4585 92.6176 69.4135 92.1511 69.4705L92.1496 69.472Z" fill="#053676"/>
<defs>
<filter id="filter0_dd_575_2202" x="0" y="0" width="158" height="158" filterUnits="userSpaceOnUse" color-interpolation-filters="sRGB">
<feFlood flood-opacity="0" result="BackgroundImageFix"/>
<feColorMatrix in="SourceAlpha" type="matrix" values="0 0 0 0 0 0 0 0 0 0 0 0 0 0 0 0 0 0 127 0" result="hardAlpha"/>
<feOffset dx="4" dy="4"/>
<feGaussianBlur stdDeviation="4"/>
<feComposite in2="hardAlpha" operator="out"/>
<feColorMatrix type="matrix" values="0 0 0 0 0 0 0 0 0 0 0 0 0 0 0 0 0 0 0.15 0"/>
<feBlend mode="normal" in2="BackgroundImageFix" result="effect1_dropShadow_575_2202"/>
<feColorMatrix in="SourceAlpha" type="matrix" values="0 0 0 0 0 0 0 0 0 0 0 0 0 0 0 0 0 0 127 0" result="hardAlpha"/>
<feOffset dx="-2" dy="-2"/>
<feGaussianBlur stdDeviation="4"/>
<feComposite in2="hardAlpha" operator="out"/>
<feColorMatrix type="matrix" values="0 0 0 0 0 0 0 0 0 0 0 0 0 0 0 0 0 0 0.15 0"/>
<feBlend mode="normal" in2="effect1_dropShadow_575_2202" result="effect2_dropShadow_575_2202"/>
<feBlend mode="normal" in="SourceGraphic" in2="effect2_dropShadow_575_2202" result="shape"/>
</filter>
</defs>
</svg>
